<?xml version="1.0" encoding="UTF-8" standalone="no"?>
<svg
   xmlns:dc="http://purl.org/dc/elements/1.1/"
   xmlns:cc="http://creativecommons.org/ns#"
   xmlns:rdf="http://www.w3.org/1999/02/22-rdf-syntax-ns#"
   xmlns:svg="http://www.w3.org/2000/svg"
   xmlns="http://www.w3.org/2000/svg"
   xmlns:sodipodi="http://sodipodi.sourceforge.net/DTD/sodipodi-0.dtd"
   xmlns:inkscape="http://www.inkscape.org/namespaces/inkscape"
   style="font-size:12px;font-style:normal;font-weight:normal;fill:#000000;fill-opacity:1;stroke:#000000;stroke-width:1;stroke-linecap:square;stroke-linejoin:miter;stroke-miterlimit:10;stroke-opacity:1;stroke-dasharray:none;stroke-dashoffset:0;font-family:Dialog"
   width="379.00284"
   height="295.12012"
   id="svg2"
   version="1.1"
   inkscape:version="0.48.4 r9939"
   sodipodi:docname="404.svg">
  <metadata
     id="metadata21">
    <rdf:RDF>
      <cc:Work
         rdf:about="">
        <dc:format>image/svg+xml</dc:format>
        <dc:type
           rdf:resource="http://purl.org/dc/dcmitype/StillImage" />
      </cc:Work>
    </rdf:RDF>
  </metadata>
  <sodipodi:namedview
     pagecolor="#ffffff"
     bordercolor="#666666"
     borderopacity="1"
     objecttolerance="10"
     gridtolerance="10"
     guidetolerance="10"
     inkscape:pageopacity="0"
     inkscape:pageshadow="2"
     inkscape:window-width="640"
     inkscape:window-height="480"
     id="namedview19"
     showgrid="false"
     fit-margin-top="0"
     fit-margin-left="0"
     fit-margin-right="0"
     fit-margin-bottom="0"
     inkscape:zoom="0.27929688"
     inkscape:cx="339"
     inkscape:cy="167.15763"
     inkscape:window-x="0"
     inkscape:window-y="0"
     inkscape:window-maximized="0"
     inkscape:current-layer="svg2" />
  <!--Generated by Alchemy (http://al.chemy.org) with Batik SVG Generator-->
  <defs
     id="genericDefs" />
  <g
     id="g5"
     transform="translate(-173,-192.03752)">
    <g
       style="fill:#ffffff;stroke:#ffffff"
       id="g7" />
    <g
       style="fill:#000000;fill-opacity:0.77649997;stroke:#000000;stroke-opacity:0.77649997"
       id="g11">
      <path
         style="stroke:none"
         d="m 334,451 5,-1 4.8039,-0.9806 6.8022,-2.9386 6.0777,-2.0295 q 0,0 4.4153,-2.4627 4.4152,-2.4627 7.338,-4.9098 2.9227,-2.447 6.4522,-4.9698 3.5295,-2.5227 6.4201,-6.4158 2.8906,-3.8932 5.4065,-6.9133 2.5159,-3.0201 4.4528,-6.9236 1.9369,-3.9035 2.9033,-7.3173 0.9665,-3.4137 0.9472,-6.2764 Q 395,395 395.5097,392.4019 q 0.5097,-2.598 0.005,-5.9292 -0.5047,-3.3313 -1.9257,-6.1246 -1.4211,-2.7934 -3.3586,-5.7172 -1.9375,-2.9238 -3.089,1.7934 -1.1514,4.7171 -1.6532,7.7286 -0.5018,3.0115 -0.495,8.9293 Q 385,399 385,403.5 q 0,4.5 0.4969,8.9448 0.497,4.4448 2.457,8.7969 1.9599,4.3522 3.9599,8.8522 2,4.5 4.013,10.0322 2.013,5.5322 3.9772,8.955 1.9643,3.4228 3.0152,7.5496 1.051,4.1268 2.9819,6.9707 1.931,2.8439 2.9893,5.9631 1.0583,3.1193 2.069,7.1561 1.0108,4.0369 1.0257,6.6581 0.0149,2.6213 -4.1708,3.5855 -4.1857,0.9643 -5.4851,-2.8787 -1.2994,-3.843 -1.8046,-6.3662 -0.5052,-2.5232 -1.0118,-7.066 -0.5067,-4.5429 -0.5097,-8.0981 Q 399,459 399,454 q 0,-5 0,-8.5 0,-3.5 0,-7.5 0,-4 2.084,-7.2773 2.0839,-3.2774 3.0358,-5.6857 0.9517,-2.4084 1.9517,-4.9084 1,-2.5 4.1107,-6.6678 3.1107,-4.1679 5.9115,-3.5379 2.8007,0.6299 4.6308,2.9375 1.8302,2.3075 4.0785,-0.4346 2.2483,-2.742 1.7483,-5.9258 -0.5,-3.1838 -2.0107,-7.4631 -1.5108,-4.2794 0.7507,-5.6054 2.2615,-1.3259 6.2615,-3.8259 4,-2.5 7.433,-4.9597 3.433,-2.4596 5.3331,-4.8651 1.9002,-2.4055 4.1442,-0.9467 2.244,1.4588 6.1131,0.3963 3.8691,-1.0625 6.6465,-1.1464 2.7773,-0.084 6.2066,-0.579 3.4293,-0.495 6.7226,-2.416 3.2934,-1.9211 6.7172,-4.3586 3.4238,-2.4375 5.3613,-5.3613 1.9375,-2.9238 3.4536,-4.9464 1.516,-2.0227 3.5625,-4.0763 2.0464,-2.0535 6.6226,-5.116 4.5762,-3.0625 7.5762,-5.0625 3,-2 6.5804,-3.5435 3.5804,-1.5436 8.1192,-3.0583 4.5389,-1.5148 9.9286,-4.9623 5.3896,-3.4475 8.4344,-4.9728 3.0449,-1.5254 4.3398,-3.8355 1.2948,-2.31 3.37,-4.4063 2.0752,-2.0963 2.9544,-4.9009 0.8792,-2.8045 0.8279,0.5117 -0.0513,3.3162 -2.1721,5.5117 -2.1208,2.1954 -3.5456,4.5991 -1.4248,2.4037 -4.63,4.0937 -3.2051,1.6899 -8.6602,5.1645 -5.4552,3.4747 -10.0656,5.0272 -4.6103,1.5525 -8.0714,3.0377 -3.4612,1.4853 -6.3808,3.4417 -2.9196,1.9565 -5.9196,3.9565 -3,2 -6.4238,4.9375 -3.4238,2.9375 -5.8613,6.3613 -2.4375,3.4238 -5.5,7 -3.0625,3.5762 -6.1387,5.1387 -3.0762,1.5625 -8.7828,3.1414 -5.7067,1.579 -8.2774,1.584 -2.5707,0.005 -5.4126,1.4793 -2.8419,1.4744 -6.3535,-0.6464 -3.5117,-2.1208 -4.7677,0.338 -1.256,2.4588 -4.8558,5.0533 -3.5999,2.5945 -7.5905,5.0877 -3.9906,2.4931 -6.3055,5.2143 -2.3149,2.7213 -0.3257,4.4419 1.9893,1.7207 2.5149,5.3788 0.5257,3.6581 -0.5,6.8162 -1.0256,3.1581 -5.2773,2.4161 -4.2517,-0.7421 -5.9215,-4.4346 -1.6699,-3.6924 -3.8692,-0.0625 -2.1992,3.63 -4.0885,7.9621 -1.8893,4.3322 -2.8893,6.8322 -1,2.5 -3.0483,5.5916 -2.0481,3.0917 -1.9642,6.8143 Q 401,442 401,445.5 q 0,3.5 0,8.5 0,5 0,8.5 0,3.5 0.4969,7.9448 0.497,4.4448 0.9903,6.9019 0.4934,2.4572 1.4774,5.8971 0.9841,3.44 3.5937,2.8207 2.6096,-0.6192 2.0406,-4.7206 -0.5691,-4.1014 -2.0583,-9.0645 -1.4893,-4.9632 -3.431,-7.8439 -1.9417,-2.8808 -3.0107,-7.0369 -1.0691,-4.1561 -3.0181,-7.5293 -1.9491,-3.3732 -3.9848,-8.9504 -2.0358,-5.5772 -4.0228,-10.045 -1.987,-4.4678 -3.987,-8.9678 -2,-4.5 -2.5401,-9.1478 -0.54,-4.6479 -0.543,-9.2031 Q 383,399 383,395.5 q 0,-3.5 0.5068,-9.0822 0.5068,-5.5822 1.005,-9.0707 0.4982,-3.4885 4.3468,-3.7714 3.8485,-0.2828 5.411,2.7934 1.5625,3.0762 2.6414,8.2828 1.079,5.2067 0.5743,7.8754 -0.5047,2.6688 -0.495,5.5708 0.01,2.9019 -1.0095,6.5393 -1.0193,3.6373 -3.0528,7.7236 -2.0336,4.0862 -4.5967,7.1827 -2.5631,3.0965 -5.5472,7.0764 -2.9841,3.9799 -6.5935,6.5867 -3.6094,2.6069 -6.5799,5.0842 -2.9705,2.4772 -7.5478,5.0302 -4.5772,2.5529 -7.662,3.5902 -3.0847,1.0373 -6.5458,2.5225 -3.4612,1.4853 -6.0601,2.016 -2.5989,0.5307 -5.1969,0.5404 z"
         id="path13"
         inkscape:connector-curvature="0" />
      <path
         style="stroke:none"
         d="m 374,316 -3.5528,2.8944 -2.7401,2.8127 -1.875,2.8476 -0.8834,2.7615 q 0,0 0.0256,4.3419 0.0257,4.3419 4.1238,5.8516 4.098,1.5097 8.8418,0.5257 4.7439,-0.9841 6.5484,-2.8633 1.8046,-1.8792 3.8046,-3.8792 2,-2 1.8536,-5.1464 Q 390,323 389.505,319.5707 q -0.495,-3.4293 -3.2773,-5.5839 -2.7824,-2.1547 0.495,-3.0708 Q 390,310 395,310 q 5,0 10.8787,-1.4851 5.8788,-1.4851 12.3876,-2.9872 6.5088,-1.5021 11.5232,-2.5052 5.0144,-1.0031 8.8888,-2.96 3.8745,-1.9569 6.8208,-3.9258 2.9462,-1.9688 4.7492,-5.2109 1.803,-3.242 1.7871,-7.9859 -0.016,-4.7438 -3.8792,-8.9883 -3.8633,-4.2445 -6.8298,-6.7139 -2.9666,-2.4695 -5.4037,-3.9248 -2.4372,-1.4554 -5.928,-3.45 -3.4908,-1.9946 -6.4009,-2.9544 -2.91,-0.9598 -6.41,-2.4598 -3.5,-1.5 -6.7207,-1.4893 -3.2206,0.0107 -3.3418,4.0257 -0.1213,4.0149 0.8668,10.4064 0.9881,6.3916 1.9808,9.8627 0.9926,3.4711 3.4489,7.8656 2.4563,4.3945 4.4762,8.9343 2.0198,4.5398 4.4698,7.9522 2.4499,3.4125 4.9499,6.9125 2.5,3.5 4.5092,6.5132 2.0092,3.0133 4.4772,5.9706 2.4681,2.9572 4.0312,6.0537 1.5631,3.0965 3.0447,5.5629 1.4815,2.4663 2.5595,-1.3586 1.0781,-3.825 2.1071,-6.4285 1.0289,-2.6035 2.5932,-4.7178 1.5642,-2.1143 4.8061,-3.7887 3.2419,-1.6743 5.7143,-2.6642 2.4724,-0.9899 9.1029,-2.0226 6.6305,-1.0327 10.1857,-1.0357 3.5552,-0.003 6.9845,-0.4981 3.4293,-0.495 6.2764,-1.9472 2.8471,-1.4522 7.385,-2.9692 4.5379,-1.5171 3.2764,-7.3292 Q 503.1056,292.4472 506,296 q 2.8944,3.5528 1.9114,6.4621 -0.9829,2.9093 -3.7615,4.1878 -2.7785,1.2786 -7.7406,3.2615 -4.9621,1.983 -8.615,2.5308 -3.6529,0.5478 -7.2236,0.5528 -3.5707,0.005 -8.0155,0.5019 -4.4448,0.497 -8.8143,1.9643 -4.3695,1.4673 -7.2779,2.919 -2.9083,1.4519 -5.2214,5.7215 -2.3131,4.2697 -2.7842,7.1662 -0.471,2.8965 -0.9739,5.4123 -0.5029,2.5159 -3.9219,-1.3249 -3.4191,-3.8408 -4.9376,-6.8745 -1.5184,-3.0336 -3.9553,-5.9371 -2.4369,-2.9035 -4.4688,-5.9463 -2.032,-3.0427 -4.5228,-6.5294 -2.4908,-3.4868 -4.9908,-6.9868 -2.5,-3.5 -4.5501,-8.0875 -2.05,-4.5876 -4.5302,-9.0478 -2.4801,-4.4602 -3.5238,-8.0657 -1.0437,-3.6055 -2.0511,-8.1344 -1.0073,-4.5289 -1.0192,-8.6373 Q 405,257 405.5097,254.4019 q 0.5097,-2.598 2.8787,-3.485 2.3691,-0.887 5.6485,0.1237 3.2793,1.0107 8.2793,3.0107 5,2 8.59,4.0403 3.5899,2.0401 6.0991,3.5455 2.5092,1.5054 5.572,4.05 3.0629,2.5447 5.5963,5.0752 2.5335,2.5306 4.0799,4.5841 1.5465,2.0536 2.1368,4.7555 0.5903,2.702 0.0903,5.3981 -0.5,2.6961 -2.5903,6.3981 -2.0903,3.7019 -5.213,5.8179 -3.1226,2.1161 -7.1764,4.1473 -4.0537,2.0311 -9.1792,3.0742 -5.1256,1.0431 -11.6112,2.54 -6.4856,1.4969 -12.4768,2.9948 -5.9912,1.4979 -11.1124,1.5128 Q 390,312 387,312 q -3,0 0.3535,1.6465 3.3536,1.6464 3.995,5.4292 0.6415,3.7829 0.6465,7.3536 0.005,3.5707 -2.1415,5.9242 -2.1464,2.3536 -4.1464,4.3536 -2,2 -5.1954,3.1208 -3.1955,1.1208 -7.9516,0.6367 -4.7562,-0.484 -6.9582,-2.0743 Q 363.4,336.8 363.2,333.9 q -0.2,-2.9 0.3257,-6.5581 0.5256,-3.6581 3.1464,-6.8536 z"
         id="path15"
         inkscape:connector-curvature="0" />
      <path
         style="stroke:none"
         d="m 173,329 7,-1 2.6838,-0.9487 10.9745,-3.9911 8.9356,-3.974 q 0,0 4.5,-2 4.5,-2 10.0322,-4.013 5.5322,-2.013 9.9602,-4.4802 4.4281,-2.4671 10.4189,-5.962 5.9909,-3.4948 11.5034,-6.5018 5.5125,-3.0071 10.9835,-6.49 5.471,-3.4829 9.4102,-6.9373 3.9392,-3.4545 7.9149,-7.4317 3.9757,-3.9773 6.4053,-7.8887 2.4295,-3.9115 6.0281,-7.0261 3.5986,-3.1146 5.4541,-8.4059 1.8555,-5.2912 2.8373,-9.7288 0.9818,-4.4376 1.4749,-7.8999 0.4931,-3.4622 0.4881,-6.3915 Q 300,225 298.0528,219.7236 q -1.9472,-5.2764 -3.4288,-7.7427 -1.4815,-2.4664 -4.3528,-5.8236 -2.8712,-3.3573 -5.3836,-5.3669 -2.5123,-2.0095 -5.8581,-3.9256 -3.3457,-1.9161 -7.1876,-2.3905 Q 268,194 264,194 q -4,0 -7.303,1.4596 -3.3031,1.4595 -6.7,4.4 -3.397,2.9404 -5.8129,5.8605 -2.4159,2.9201 -3.3256,5.7581 -0.9098,2.838 -2.4369,5.9035 -1.5272,3.0655 -2.4936,6.4793 -0.9665,3.4137 -1.449,9.3179 -0.4824,5.9041 -0.4807,11.3626 0.002,5.4585 1.976,11.3004 1.9744,5.8419 3.9699,11.3291 1.9956,5.4873 4.9646,10.9187 2.9691,5.4314 6.462,11.4189 3.493,5.9875 6.0163,11.5326 2.5233,5.545 5.5221,12.0424 2.9988,6.4973 5.5063,12.5145 2.5076,6.0173 6.503,15.0065 3.9953,8.9893 6.5127,16.5342 2.5175,7.545 5.0175,15.045 2.5,7.5 4.5064,14.5207 2.0064,7.0208 5,16 2.9936,8.9793 4.5095,16.5393 1.516,7.5601 2.5176,13.0687 1.0017,5.5086 1.0097,10.5981 0.008,5.0894 -0.495,9.6446 -0.503,4.5552 -2.543,9.2031 -2.0401,4.6478 -5.7734,7.392 -3.7333,2.7441 -8.7988,4.2713 -5.0655,1.5271 -10.3058,1.0459 -5.2403,-0.4811 -7.8438,-1.5101 -2.6035,-1.0289 -6.2084,-3.5863 -3.6049,-2.5574 -7.6143,-5.5642 -4.0094,-3.0069 -7.563,-6.5534 -3.5535,-3.5464 -7.0254,-6.5203 -3.4718,-2.974 -8.0181,-8.0191 -4.5462,-5.0451 -6.5906,-8.1023 -2.0443,-3.0571 -3.5879,-6.6375 -1.5435,-3.5804 -2.0772,-6.6951 -0.5336,-3.1148 -1.0373,-7.6418 -0.5038,-4.527 0.499,-11.1582 1.0027,-6.6313 2.518,-11.6989 1.5153,-5.0677 4.5782,-9.7013 3.0629,-4.6337 6.5317,-11.5799 3.4688,-6.9463 7.4902,-13.4848 4.0213,-6.5384 9.0772,-12.1127 5.0559,-5.5743 10.0559,-11.0743 5,-5.5 11.5164,-12.0172 6.5164,-6.5172 13.0651,-11.56 6.5487,-5.0427 10.9819,-9.9809 4.4332,-4.9382 9.5476,-8.0324 5.1144,-3.0943 7.0181,-5.0191 1.9037,-1.9248 0.6108,0.2823 -1.2929,2.2071 -5.3341,5.744 -4.0412,3.5369 -5.9063,7.87 -1.8652,4.3332 -1.8124,9.1096 Q 299,314 303,313.5 q 4,-0.5 6.0528,-3.7236 2.0528,-3.2236 1.5068,-7.9178 -0.546,-4.6942 -1.9688,-7.499 -1.4229,-2.8049 0.335,-6.0566 1.758,-3.2517 4.8321,-2.0547 3.0742,1.197 4.5117,4.6208 1.4375,3.4238 4.4627,3.2923 3.0252,-0.1316 5.8691,-2.0625 2.8439,-1.931 4.7308,-4.3273 1.8869,-2.3963 2.803,-5.2421 0.9161,-2.8457 4.9885,-1.1779 4.0724,1.6678 7.3162,1.1838 3.2439,-0.4841 4.9277,-3.6678 1.6837,-3.1838 2.673,-6.647 0.9892,-3.4631 3.1208,-7.1954 2.1315,-3.7323 6.4851,-5.3787 Q 370,258 375.5,258 q 5.5,0 8.7773,2.084 3.2774,2.0839 6.6465,0.1464 3.3691,-1.9375 6.3691,-4.9375 3,-3 5.5762,-6.0625 2.5762,-3.0624 3.3792,-5.8045 0.803,-2.7421 3.3301,-7.3076 2.5272,-4.5655 2.4744,-7.8419 Q 412,225 413,228.5 q 1,3.5 -0.5528,6.7236 -1.5528,3.2236 -3.5256,7.6581 -1.9729,4.4345 -4.5,7.5 -2.5272,3.0655 -5.6208,6.1954 -3.0937,3.13 -7.3492,5.2667 -4.2555,2.1368 -7.6309,0.0625 -3.3754,-2.0742 -6.098,-1.9903 Q 375,260 370,260 q -5,0 -7.6465,2.8535 -2.6464,2.8536 -3.5149,6.6213 -0.8684,3.7677 -1.8792,6.8046 -1.0107,3.0368 -2.5851,5.1787 Q 352.8,283.6 348.9,284.3 q -3.9,0.7 -6.4981,0.1903 -2.598,-0.5097 -6.1095,3.3123 -3.5115,3.8221 -6.6246,5.9258 -3.1131,2.1037 -7.0486,2.162 -3.9354,0.0583 -5.7773,-3.9161 -1.8419,-3.9743 -5.1838,-4 -3.3419,-0.0256 -2.0839,2.7227 1.2579,2.7483 2.335,7.4434 1.0772,4.6952 0.0312,9.001 -1.046,4.3058 -4.9932,6.0822 Q 303,315 300,312 q -3,-3 -1.9472,-7.7236 1.0528,-4.7236 2.0358,-7.1857 0.9829,-2.4621 3.6348,-4.6668 2.6519,-2.2048 5.6107,-5.1679 2.9588,-2.9631 5.0123,-4.5095 2.0536,-1.5465 -0.7929,2.7071 -2.8464,4.2535 -7.9427,7.3287 -5.0963,3.0752 -9.4819,7.9809 -4.3856,4.9058 -10.9524,9.9676 -6.5668,5.0618 -13.0181,11.5191 -6.4513,6.4572 -11.4349,11.94 -4.9836,5.4828 -9.9836,10.9828 -5,5.5 -8.9441,11.9257 -3.9441,6.4257 -7.4228,13.3873 -3.4786,6.9615 -6.5098,11.5152 -3.0312,4.5538 -4.4683,9.4201 -1.4371,4.8664 -2.4218,11.2987 -0.9847,6.4324 -0.482,10.8011 0.5028,4.3688 0.999,7.3418 0.4963,2.973 1.9627,6.3582 1.4663,3.3853 3.4228,6.3049 1.9564,2.9196 6.4121,7.8625 4.4556,4.9428 7.9094,7.8977 3.4537,2.9549 6.9819,6.4809 3.5281,3.5261 7.4746,6.4797 3.9464,2.9535 7.437,5.4466 3.4906,2.4932 5.8857,3.4358 2.3951,0.9426 5.2916,1.4137 2.8965,0.471 7.6562,-0.5101 4.7597,-0.9812 8.6942,-2.4541 3.9345,-1.4728 7.2012,-7.2287 3.2667,-5.7558 3.7266,-10.108 0.46,-4.3521 0.457,-9.2969 Q 302,438 301.0081,432.5894 q -0.992,-5.4105 -2.4903,-12.9019 -1.4984,-7.4914 -4.4824,-16.4313 -2.9841,-8.94 -4.9905,-15.9607 -2.0064,-7.0208 -4.5,-14.5 -2.4936,-7.4793 -4.9936,-14.9793 -2.5,-7.5 -6.4825,-16.455 -3.9826,-8.9551 -6.4873,-14.9658 -2.5046,-6.0108 -5.497,-12.4935 -2.9925,-6.4828 -5.4937,-11.9855 -2.5012,-5.5026 -5.9779,-11.4576 -3.4767,-5.9549 -6.4837,-11.4674 -3.0071,-5.5125 -5.038,-11.0811 -2.031,-5.5686 -4.0354,-11.5813 -2.0045,-6.0128 -2.0301,-11.6709 Q 232,239 232.5017,232.9585 q 0.5017,-6.0415 1.5193,-9.6374 1.0175,-3.5958 2.551,-6.6821 1.5336,-3.0862 2.5064,-6.0207 0.9729,-2.9345 3.5631,-6.0965 2.5903,-3.162 4.6744,-4.7419 2.0841,-1.5799 7.1871,-4.6395 5.1031,-3.0595 9.3,-3.1 4.197,-0.0404 8.3551,0.4853 4.1581,0.5256 7.8,2.6 3.6419,2.0743 6.1543,4.0839 2.5123,2.0095 5.6472,5.6764 3.1348,3.6668 4.6164,6.1331 1.4815,2.4664 3,5.5 1.5184,3.0337 2.0615,5.6592 0.5431,2.6256 0.5528,5.7236 0.01,3.0981 -0.4953,6.6688 -0.505,3.5707 -1.5119,8.1085 -1.0069,4.5377 -3.0251,10.1001 -2.0182,5.5624 -5.6627,8.7712 -3.6445,3.2087 -6.0459,7.0941 -2.4014,3.8854 -6.4719,7.9739 -4.0704,4.0886 -8.0947,7.6113 -4.0243,3.5228 -9.5851,7.0683 -5.5608,3.5456 -11.0898,6.5627 -5.529,3.0171 -11.5165,6.51 -5.9875,3.493 -10.4966,5.9982 -4.5092,2.5051 -10.0811,4.538 -5.572,2.0328 -10.0398,4.0198 -4.4678,1.987 -8.9678,3.987 -4.5,2 -10.0322,4.013 -5.5322,2.013 -10.703,2.5431 z"
         id="path17"
         inkscape:connector-curvature="0" />
    </g>
  </g>
</svg>
