<?xml version="1.0" encoding="UTF-8" standalone="no"?>
<svg
   xmlns:dc="http://purl.org/dc/elements/1.1/"
   xmlns:cc="http://creativecommons.org/ns#"
   xmlns:rdf="http://www.w3.org/1999/02/22-rdf-syntax-ns#"
   xmlns:svg="http://www.w3.org/2000/svg"
   xmlns="http://www.w3.org/2000/svg"
   xmlns:xlink="http://www.w3.org/1999/xlink"
   xmlns:sodipodi="http://sodipodi.sourceforge.net/DTD/sodipodi-0.dtd"
   xmlns:inkscape="http://www.inkscape.org/namespaces/inkscape"
   style="font-size:12px;font-style:normal;font-weight:normal;fill:#000000;fill-opacity:1;stroke:#000000;stroke-width:1;stroke-linecap:square;stroke-linejoin:miter;stroke-miterlimit:10;stroke-opacity:1;stroke-dasharray:none;stroke-dashoffset:0;font-family:Dialog"
   width="257.25146"
   height="155.19089"
   id="svg12099"
   version="1.1"
   inkscape:version="0.48.4 r9939"
   sodipodi:docname="contact.svg">
  <metadata
     id="metadata21211">
    <rdf:RDF>
      <cc:Work
         rdf:about="">
        <dc:format>image/svg+xml</dc:format>
        <dc:type
           rdf:resource="http://purl.org/dc/dcmitype/StillImage" />
        <dc:title />
      </cc:Work>
    </rdf:RDF>
  </metadata>
  <sodipodi:namedview
     pagecolor="#ffffff"
     bordercolor="#666666"
     borderopacity="1"
     objecttolerance="10"
     gridtolerance="10"
     guidetolerance="10"
     inkscape:pageopacity="0"
     inkscape:pageshadow="2"
     inkscape:window-width="1366"
     inkscape:window-height="715"
     id="namedview21209"
     showgrid="false"
     fit-margin-top="1"
     fit-margin-bottom="1"
     fit-margin-left="40"
     fit-margin-right="40"
     inkscape:zoom="1.5862247"
     inkscape:cx="63.258463"
     inkscape:cy="92.337505"
     inkscape:window-x="-8"
     inkscape:window-y="-8"
     inkscape:window-maximized="1"
     inkscape:current-layer="svg12099" />
  <!--Generated by Alchemy (http://al.chemy.org) with Batik SVG Generator-->
  <defs
     id="genericDefs">
    <linearGradient
       inkscape:collect="always"
       xlink:href="#linearGradient1218"
       id="linearGradient21790"
       gradientUnits="userSpaceOnUse"
       spreadMethod="pad"
       x1="928.83081"
       y1="362.13239"
       x2="936.25269"
       y2="377.9021" />
  </defs>
  <path
     style="fill:#000000;stroke-width:0.22506852"
     d=""
     id="path9550"
     inkscape:connector-curvature="0" />
  <path
     style="fill:#000000;stroke-width:0.22506852"
     d=""
     id="path9548"
     inkscape:connector-curvature="0" />
  <path
     style="fill:#000000;stroke-width:0.15052962"
     d="m 86.016962,148.41126 c -0.82486,-0.0643 -1.78092,-0.2028 -2.12461,-0.30763 -0.34368,-0.10474 -1.01855,-0.30555 -1.4997,-0.44608 -1.791,-0.52308 -4.8379,-2.29327 -6.13771,-3.56591 -0.30857,-0.30214 -0.60982,-0.54932 -0.66947,-0.54932 -0.0596,0 -0.38019,-0.46053 -0.71235,-1.02343 -0.33213,-0.56288 -0.70233,-1.15215 -0.82261,-1.30946 -0.12036,-0.15732 -0.21871,-0.39027 -0.21871,-0.51769 0,-0.12748 -0.0425,-0.23166 -0.0945,-0.23166 -0.2037,0 -0.39725,-1.06322 -0.43733,-2.40233 -0.0304,-1.01363 1.4e-4,-1.40515 0.10945,-1.40515 0.21416,0 0.28504,-0.39281 0.14308,-0.79244 -0.0664,-0.18653 -0.0727,-0.29895 -0.0145,-0.24983 0.0584,0.049 0.21801,-0.0682 0.35466,-0.26095 0.24798,-0.34963 0.24798,-0.35004 0,-0.21482 -0.20514,0.11183 -0.22308,0.0901 -0.1029,-0.12519 0.08,-0.14334 0.13636,-0.33537 0.1249,-0.4268 -0.0109,-0.0914 0.0636,-0.19967 0.16691,-0.24042 0.16672,-0.0659 0.16672,-0.0511 0,0.13458 -0.16654,0.18569 -0.16654,0.2003 0,0.13103 0.10309,-0.043 0.17836,-0.19175 0.16727,-0.3311 -0.0109,-0.13916 -0.0887,-1.04916 -0.17236,-2.02206 -0.23387,-2.71668 -0.10855,-4.07236 0.55798,-6.03462 0.3062,-0.90149 0.6857,-1.79896 0.84333,-1.9944 0.27177,-0.33692 0.27701,-0.33735 0.10127,-0.008 -0.17473,0.32702 -0.16909,0.33447 0.0958,0.12956 0.25889,-0.20009 0.33912,-0.42129 0.29289,-0.80734 -0.009,-0.0822 0.0396,-0.0978 0.11018,-0.0346 0.0704,0.0632 0.12817,0.0392 0.12817,-0.0534 0,-0.24603 1.04543,-1.72189 1.59164,-2.24692 1.5332,-1.47379 2.08051,-1.91653 3.26228,-2.63897 2.06008,-1.25941 3.53902,-1.68784 6.20643,-1.79798 3.59524,-0.14835 5.75998,0.49945 8.60466,2.5753 0.8833,0.64458 1.64876,1.13362 1.70099,1.0868 0.0522,-0.0467 0.30007,0.21237 0.55072,0.57602 0.7304,1.05961 1.51327,0.79908 0.824,-0.27424 -0.25338,-0.39457 -0.4263,-0.46705 -0.96369,-0.40389 -0.32406,0.0382 -0.37434,-0.26189 -0.0835,-0.49803 0.17708,-0.14376 0.17836,-0.22528 0.0127,-0.77958 -0.3652,-1.22617 -0.43551,-1.28317 -1.21086,-0.98147 -0.37804,0.14709 -0.91232,0.26009 -1.18726,0.25106 -0.47391,-0.0146 -0.46091,-0.0292 0.24994,-0.26191 0.41243,-0.135 0.88603,-0.24904 1.05247,-0.25338 0.16636,-0.004 0.40399,-0.14104 0.52793,-0.30376 0.20872,-0.27403 0.25048,-0.27199 0.56586,0.0277 0.23221,0.22072 0.35577,0.25715 0.38853,0.11454 0.0264,-0.11496 0.14182,-0.20259 0.25634,-0.19487 0.13,0.008 0.14945,0.0486 0.052,0.10578 -0.26603,0.15565 -0.17181,0.37792 0.12527,0.2955 0.15491,-0.043 0.45012,0.0167 0.65613,0.1304 l 0.37459,0.20844 -0.35994,0.419 c -0.32542,0.37881 -0.33741,0.42942 -0.1249,0.52797 0.12927,0.0599 0.46853,0.41926 0.753978,0.79856 l 0.51902,0.68958 0.14382,-0.69622 c 0.0791,-0.3829 0.10527,-0.87617 0.058,-1.09613 l -0.0858,-0.39994 0.29577,0.36262 c 0.16273,0.19946 0.35292,0.45574 0.42278,0.56957 0.20586,0.33542 1.19311,1.17472 1.47412,1.25324 0.14254,0.0399 0.29985,0.16775 0.34952,0.2844 0.0496,0.11663 0.18036,0.16191 0.29038,0.10056 0.10999,-0.0613 0.20008,-0.0323 0.20008,0.0643 0,0.0966 -0.0891,0.17567 -0.19788,0.17567 -0.10873,0 -0.17473,0.10099 -0.14636,0.22454 0.0642,0.27915 1.17882,0.79093 2.09384,0.96135 0.37804,0.0705 0.75703,0.20879 0.84221,0.3075 0.0851,0.0987 0.36636,0.12852 0.62488,0.0665 l 0.47002,-0.11308 -0.37492,0.31461 c -0.35666,0.29926 -0.36122,0.31764 -0.0938,0.37704 0.32837,0.073 0.34633,0.23514 0.10199,0.92066 -0.39719,1.11428 -0.86532,1.15104 -0.87748,0.0688 -0.005,-0.4798 -0.0387,-0.50352 -1.0054,-0.71752 -0.54989,-0.12185 -1.22477,-0.3431 -1.4997,-0.4919 -0.69648,-0.37693 -2.88717,-0.42135 -3.33847,-0.0676 -0.25488,0.19967 -0.303478,0.31728 -0.19581,0.47349 0.0787,0.11434 0.10054,0.26972 0.0485,0.34533 -0.052,0.0755 -0.14927,-0.004 -0.215738,-0.1761 -0.0665,-0.17254 -0.24506,-0.4072 -0.39677,-0.52171 -0.26306,-0.19842 -0.26172,-0.1859 0.0293,0.27303 0.16782,0.26462 0.32356,0.66324 0.34612,0.88582 0.0225,0.22256 0.127088,0.67007 0.232088,0.99445 0.1189,0.36728 0.19903,1.19125 0.21216,2.18408 0.0187,1.41935 -0.0182,1.71003 -0.33474,2.64941 -0.195708,0.58031 -0.531298,1.30178 -0.745748,1.60327 -0.6592,0.92671 -1.59032,1.94822 -1.77586,1.94822 -0.0969,0 -0.17618,0.0749 -0.17618,0.1665 0,0.0916 -0.0378,0.30971 -0.0842,0.48476 -0.0685,0.25884 -0.0393,0.29177 0.15618,0.1763 0.13218,-0.078 0.32475,-0.15919 0.42786,-0.18026 0.10309,-0.0211 0.27183,-0.087 0.37494,-0.14626 0.29226,-0.16838 0.63656,-0.0989 0.58724,0.11851 -0.0245,0.10807 -0.18073,0.29721 -0.34718,0.42039 -0.16636,0.1231 -0.26306,0.22517 -0.21479,0.22663 0.0484,0.001 -0.0502,0.21855 -0.21872,0.48242 -0.16854,0.26385 -0.30647,0.53161 -0.30647,0.59499 0,0.0634 -0.2413,0.21864 -0.53624,0.34497 -0.38068,0.16295 -0.54159,0.33235 -0.55462,0.58351 -0.022,0.42292 0.18692,0.45386 0.553,0.0818 0.14909,-0.15147 0.36418,-0.21816 0.48572,-0.15043 0.14763,0.0822 0.18923,0.0536 0.12872,-0.0887 -0.0571,-0.13416 -0.0238,-0.17359 0.0924,-0.10892 0.3244,0.18069 1.21345,-0.64766 2.09433,-1.95124 0.473658,-0.70094 0.861198,-1.35497 0.861198,-1.45343 0,-0.0985 0.11182,-0.38505 0.24825,-0.63686 0.13654,-0.25184 0.21758,-0.52985 0.18018,-0.61786 -0.0375,-0.088 -0.0164,-0.16003 0.0485,-0.16003 0.17581,0 0.3827,-1.3466 0.41788,-2.71964 0.0146,-0.55799 -0.0864,-1.1482 -0.31843,-1.86731 -0.18837,-0.58368 -0.30694,-1.19959 -0.26648,-1.38447 0.0502,-0.22969 -0.08,-0.56373 -0.41966,-1.07668 -0.37281,-0.56292 -0.47474,-0.84221 -0.41941,-1.14918 0.0402,-0.22302 0.096,-0.30564 0.12418,-0.18361 0.028,0.12206 0.25721,0.22321 0.50924,0.22475 0.59049,0.004 0.83276,0.22554 0.719,0.65883 -0.0707,0.26915 -0.0569,0.29073 0.0693,0.10891 0.0865,-0.12476 0.26292,-0.22664 0.39192,-0.22664 0.19352,0 0.22877,0.11892 0.20168,0.6799 -0.0182,0.37395 -0.0854,0.78191 -0.14981,0.90655 -0.0762,0.14751 -0.068,0.22663 0.0233,0.22663 0.0771,0 0.14018,0.1183 0.14018,0.26297 0,0.14459 0.0974,0.34203 0.21647,0.43868 0.19585,0.15898 0.17799,0.24513 -0.18747,0.90492 -0.35279,0.63691 -0.40392,0.86456 -0.40392,1.79886 0,2.67689 -1.07866,5.02917 -3.393388,7.40006 -0.52598,0.53876 -1.03932,0.97956 -1.14071,0.97956 -0.10146,0 -0.25653,0.12602 -0.34469,0.28023 -0.0882,0.15418 -0.22668,0.24323 -0.30783,0.198 -0.0811,-0.0453 -0.22679,-0.008 -0.32366,0.0805 -0.12054,0.11141 -0.056,0.14354 0.20512,0.10181 0.7678,-0.12268 2.4492,-1.59025 3.507808,-3.06191 1.31967,-1.83462 1.79715,-3.16497 1.93358,-5.38735 l 0.0951,-1.5489 -0.0338,1.81308 c -0.0385,2.06413 -0.28431,2.98723 -1.17821,4.42444 -0.30403,0.48881 -0.46824,0.90516 -0.42359,1.07399 0.0544,0.2053 0.0164,0.24424 -0.14854,0.15252 -0.2608,-0.14522 -1.196718,0.84398 -1.196718,1.26477 0,0.14709 -0.0564,0.21691 -0.12527,0.15523 -0.11181,-0.10036 -1.62445,1.1172 -1.62445,1.30736 0,0.0423 0.12654,0.0294 0.28119,-0.0286 0.15473,-0.0582 -0.0795,0.14543 -0.52018,0.45222 -1.0564,0.73544 -2.31615,1.31935 -3.69775,1.71393 -1.02079,0.29152 -1.64848,0.63038 -1.18102,0.63753 0.15454,0.002 0.15363,0.0315 -0.007,0.19842 -0.16217,0.16942 -0.16017,0.18319 0.0145,0.10245 0.11145,-0.0513 0.46242,-0.1496 0.77982,-0.21872 0.31741,-0.0691 0.54866,-0.19237 0.51391,-0.27387 -0.0347,-0.0816 0.12054,-0.13708 0.34497,-0.12351 1.34979,0.0822 3.47346,-0.60184 4.41084,-1.42074 0.77193,-0.67433 0.86883,-0.73004 0.73867,-0.4245 -0.0615,0.14417 -0.0127,0.14396 0.17309,-7.5e-4 0.142,-0.11017 0.30012,-0.30193 0.35152,-0.42603 0.0611,-0.14751 0.0191,-0.13812 -0.12109,0.0267 -0.118,0.13896 -0.23196,0.22044 -0.25332,0.18132 -0.0215,-0.0392 0.40177,-0.68335 0.940318,-1.43159 0.53857,-0.74823 0.9792,-1.31795 0.9792,-1.26604 0,0.052 -0.25102,0.51069 -0.55785,1.01951 -0.30681,0.50882 -0.52238,0.97657 -0.47906,1.03942 0.0433,0.0628 -0.0291,0.11559 -0.16072,0.11705 -0.176898,0.002 -0.196428,0.0423 -0.0745,0.1546 0.124178,0.11434 0.0625,0.27752 -0.24996,0.66098 -0.22819,0.2801 -0.39943,0.58387 -0.38052,0.67504 0.0189,0.0912 -0.0736,0.11601 -0.20554,0.0553 -0.13945,-0.0643 -0.32026,0.006 -0.43162,0.16774 -0.25049,0.3634 -0.38145,0.35436 -0.28258,-0.0188 0.0658,-0.24885 0.0476,-0.26008 -0.11163,-0.0684 -0.13145,0.15836 -0.19171,0.57271 -0.19482,1.34014 -0.005,1.39546 -0.23206,1.83023 -1.43272,2.75095 -0.48116,0.36897 -1.01543,0.78273 -1.18728,0.91947 -0.17182,0.13666 -0.37863,0.2491 -0.45954,0.2497 -0.0809,3.6e-4 -0.58704,0.29872 -1.12477,0.66247 -0.53773,0.36372 -1.1183,0.68566 -1.29013,0.71543 -0.45695,0.0793 -2.77982,0.96168 -3.00158,1.1404 -0.10436,0.0841 -0.51535,0.16379 -0.91351,0.17693 -0.39811,0.0125 -0.81894,0.0857 -0.93516,0.16087 -0.11617,0.0751 -0.88614,0.0839 -1.71097,0.0188 z m 2.43701,-6.04746 c 0,-0.14959 -0.0222,-0.27194 -0.0491,-0.27194 -0.0269,0 -0.0814,0.12247 -0.12109,0.27194 -0.0394,0.1496 -0.0182,0.27197 0.0491,0.27197 0.0667,0 0.12109,-0.12247 0.12109,-0.27197 z m 3.55556,-0.28786 c 0.0749,-0.10453 0.0749,-0.17046 0,-0.17922 -0.13108,-0.0146 -0.33601,-0.0853 -0.80608,-0.27577 -0.17182,-0.0695 -0.27294,-0.0641 -0.22467,0.0125 0.0484,0.0764 0.0109,0.25169 -0.0847,0.38939 -0.22275,0.32317 -0.31543,0.31683 -0.31543,-0.0215 0,-0.1496 -0.0749,-0.27199 -0.16654,-0.27199 -0.12399,0 -0.19932,0.66866 -0.0938,0.83203 0.0542,0.0839 1.60141,-0.36003 1.69134,-0.4853 z m -4.76011,0.10662 c -0.0395,-0.1496 -0.20193,-0.27197 -0.36079,-0.27197 -0.15891,0 -0.3801,-0.0509 -0.49165,-0.11287 -0.1329,-0.0739 -0.19025,-0.0269 -0.16636,0.13603 0.02,0.13687 0.23318,0.29848 0.47377,0.35912 0.24058,0.0605 0.47783,0.12184 0.52723,0.13603 0.0493,0.0146 0.0575,-0.0966 0.0182,-0.24624 z m 2.38648,0.10328 c 0.0395,-0.0928 0.007,-0.22782 -0.0744,-0.29997 -0.0885,-0.0795 -0.11291,-0.0528 -0.0618,0.0674 0.0549,0.12894 -0.1029,0.22317 -0.44933,0.26832 l -0.53401,0.0697 0.52377,0.0317 c 0.28809,0.0167 0.55614,-0.0442 0.59568,-0.13708 z m -3.88974,-0.19383 c -0.0573,-0.0997 -0.11818,-0.18131 -0.13545,-0.18131 -0.56735,0 -0.58917,0.008 -0.40617,0.18131 0.25105,0.23537 0.67676,0.23537 0.54155,0 z m 3.23896,-0.11997 c -0.086,-0.0503 -0.22652,-0.0503 -0.31245,0 -0.0858,0.0503 -0.0164,0.0914 0.15618,0.0914 0.17181,0 0.24214,-0.0411 0.15618,-0.0914 z m -12.02892,-4.73165 c 0,-0.0757 -0.12654,-0.25045 -0.28119,-0.3883 -0.2802,-0.24971 -0.28036,-0.24923 -0.0431,0.1377 0.2547,0.41543 0.3243,0.46922 0.3243,0.2506 z m -1.58156,-1.59255 c -0.0407,-0.15377 -0.10073,-0.2409 -0.13364,-0.19341 -0.0327,0.0476 -0.0225,0.17338 0.0227,0.27979 0.12327,0.28926 0.19527,0.23307 0.11073,-0.0864 z m 15.05262,0.0943 c 1.21625,-0.1859 2.19137,-0.43744 2.77579,-0.71617 0.17181,-0.082 0.64988,-0.29208 1.0623,-0.46692 1.09387,-0.46375 2.87069,-1.85141 3.34136,-2.60952 1.70464,-2.74572 1.8656,-3.16997 1.91238,-5.04069 0.0269,-1.07409 0.0109,-1.32381 -0.0478,-0.77189 l -0.0876,0.8159 -0.0998,-0.90656 c -0.11709,-1.06261 -0.56577,-2.55466 -0.93589,-3.11211 -0.14327,-0.21589 -0.29706,-0.60342 -0.34168,-0.86122 -0.0445,-0.2578 -0.13636,-0.46872 -0.20389,-0.46872 -0.0675,0 -0.35275,-0.28556 -0.63384,-0.63458 -0.28104,-0.34902 -0.58524,-0.63459 -0.67598,-0.63459 -0.0907,0 -0.1649,-0.0682 -0.1649,-0.15189 0,-0.14417 -0.96213,-0.88504 -1.84339,-1.41967 -0.59459,-0.3607 -0.49619,-0.13207 0.1249,0.29049 0.43621,0.29671 0.47677,0.36246 0.22692,0.3679 -0.16727,0.004 -0.55115,0.18006 -0.85292,0.39196 -0.44119,0.30985 -0.57748,0.34013 -0.69558,0.1546 -0.11546,-0.18152 -0.10109,-0.20739 0.0678,-0.12122 0.11818,0.0601 0.25331,0.0188 0.3005,-0.092 0.0558,-0.13124 0.028,-0.1496 -0.0798,-0.053 -0.12018,0.10765 -0.14363,0.0657 -0.0856,-0.15336 0.112,-0.42352 -0.10527,-0.37547 -0.40364,0.0893 -0.24814,0.38639 -0.26034,0.38741 -1.03592,0.0857 -3.34214,-1.29997 -7.1679,-0.96078 -10.47047,0.92832 -0.44677,0.25559 -0.95041,0.59471 -1.11919,0.75366 -0.31723,0.29873 -0.91118,0.4172 -0.80154,0.15982 0.09,-0.21129 -0.30389,-0.73054 -0.45285,-0.59697 -0.0693,0.062 -0.12599,0.0695 -0.12599,0.0167 0,-0.0528 0.35113,-0.42728 0.7803,-0.83186 l 0.78031,-0.73557 0.10164,0.56908 c 0.12018,0.67245 0.2241,0.60262 0.23906,-0.16045 0.007,-0.38818 0.0955,-0.60187 0.30445,-0.73997 0.18369,-0.12143 0.29374,-0.12769 0.29374,-0.0167 0,0.0977 -0.0811,0.17735 -0.18,0.17735 -0.0991,0 -0.22032,0.0945 -0.2695,0.20985 -0.0613,0.14376 -0.004,0.17777 0.18018,0.10766 0.22412,-0.0851 0.27175,-0.0211 0.28288,0.3794 0.009,0.33516 0.0502,0.23349 0.13436,-0.33427 0.0666,-0.44873 0.21514,-0.92324 0.33028,-1.05448 0.35196,-0.40105 -0.42926,-0.0616 -1.29031,0.56075 -1.42542,1.03017 -3.23899,3.16803 -3.1079,3.66362 0.0345,0.13103 -0.005,0.29993 -0.0898,0.37529 -0.0976,0.0876 -0.12072,0.0616 -0.0636,-0.0724 0.0491,-0.11517 0.0589,-0.20931 0.0218,-0.20931 -0.0371,0 -0.19066,0.34674 -0.34139,0.77056 -0.40779,1.14653 -0.46437,3.34855 -0.12,4.6687 0.96382,3.69429 4.64853,6.61692 9.26223,7.34659 1.85892,0.29399 2.61626,0.30931 4.09788,0.0828 z m -3.8877,-1.56447 c -0.16072,-0.23316 -0.0862,-1.46799 0.10218,-1.69491 0.16181,-0.19487 0.1872,-0.11726 0.18554,0.56703 -0.002,0.8155 -0.13745,1.34614 -0.28781,1.12788 z m 2.75815,-0.82639 c -0.20967,-0.57465 -0.29861,-1.00664 -0.22828,-1.10869 0.0704,-0.10203 0.26575,0.26542 0.50153,0.94303 0.48073,1.38157 0.22661,1.53561 -0.27325,0.16566 z m 0.53739,-0.0672 c -0.39434,-0.90206 -0.45648,-1.16395 -0.27621,-1.16395 0.13763,0 0.81514,1.80762 0.72603,1.93693 -0.0376,0.0547 -0.24008,-0.2932 -0.44982,-0.77298 z m 0.60555,0.24122 c -0.0925,-0.32411 -0.16418,-0.63006 -0.15891,-0.67993 0.005,-0.0499 -0.0807,-0.18715 -0.19061,-0.30508 -0.15091,-0.1619 -0.16473,-0.26625 -0.0562,-0.42619 0.10927,-0.16087 0.16145,-0.13124 0.21721,0.12372 0.0404,0.18465 0.072,0.39966 0.0705,0.478 -0.002,0.0785 0.0835,0.26776 0.18898,0.4209 0.16709,0.24242 0.27585,0.97776 0.14454,0.97776 -0.026,0 -0.12309,-0.26514 -0.21557,-0.58923 z m 0.51689,0.0563 c -0.0862,-0.23385 -0.0876,-0.38926 -0.004,-0.464 0.0689,-0.0618 0.12527,-0.0261 0.12527,0.0797 0,0.37481 0.0255,0.46552 0.16817,0.59718 0.10673,0.0985 0.10473,0.13395 -0.007,0.13603 -0.0835,0.001 -0.21018,-0.15544 -0.28152,-0.34883 z m -0.4256,-1.10873 c -0.174,-0.42726 -0.18256,-0.53406 -0.0429,-0.53406 0.1979,0 0.50691,0.84715 0.35777,0.98085 -0.0534,0.048 -0.19518,-0.15314 -0.31479,-0.44679 z m -7.19128,0.10057 c 0.0127,-0.34345 0.2213,-0.92174 0.22856,-0.63459 0.004,0.1496 -0.0476,0.39436 -0.11418,0.54393 -0.0665,0.1496 -0.118,0.19028 -0.11436,0.0905 z m 9.11254,-0.96698 c 0,-0.11642 -0.12655,-0.22099 -0.2812,-0.23257 -0.23145,-0.0167 -0.24015,-0.0363 -0.0493,-0.10766 0.24929,-0.0931 0.55679,0.22333 0.41581,0.42786 -0.0471,0.068 -0.0855,0.0288 -0.0855,-0.0876 z m -9.00822,-0.3196 c -0.15254,-0.26654 -0.0554,-0.59 0.28351,-0.94473 0.12454,-0.1304 0.22635,-0.35467 0.22635,-0.4986 0,-0.14396 0.0582,-0.26168 0.12945,-0.26168 0.0838,0 0.0775,0.14084 -0.0182,0.39926 -0.10981,0.29746 -0.1109,0.41691 -0.004,0.46838 0.0785,0.038 0.1429,0.25678 0.1429,0.48614 0,0.49084 -0.53773,0.73941 -0.7598,0.35123 z m 6.90541,-1.2181 c -0.14945,-0.2308 -0.27173,-0.55323 -0.27173,-0.71654 0,-0.42832 -1.03023,-1.41873 -1.25814,-1.2095 -0.0985,0.0903 -0.44424,0.16566 -0.76832,0.16712 -0.7328,0.004 -0.90804,-0.3429 -0.73584,-1.45462 0.14109,-0.91076 0.20414,-1.01461 0.44232,-0.72785 0.10508,0.12644 0.41833,0.19675 0.72161,0.16191 l 0.53608,-0.0616 -0.0231,0.67991 c -0.0164,0.49719 0.0271,0.6799 0.16363,0.6799 0.10927,0 0.14982,0.0868 0.0975,0.20933 -0.0551,0.12936 -0.0344,0.16003 0.0544,0.0807 0.17109,-0.15336 1.28935,1.14937 1.18891,1.38513 -0.038,0.0891 0.007,0.1471 0.0996,0.12853 0.0929,-0.0188 0.25314,-0.0227 0.35623,-0.008 0.15599,0.0209 0.15836,0.0509 0.0145,0.18298 -0.13563,0.12477 -0.11563,0.18507 0.0938,0.2814 0.14654,0.0676 0.26648,0.2076 0.26648,0.31119 0,0.1037 0.0873,0.13979 0.19394,0.0805 0.11127,-0.062 0.16145,-0.0315 0.11764,0.0713 -0.15273,0.35839 -1.00467,0.19947 -1.28959,-0.24042 z m -9.95708,-0.30497 c -0.0344,-0.0805 0.11455,-0.23616 0.33096,-0.3456 0.50624,-0.25602 0.54142,-0.25091 0.36733,0.0534 -0.17708,0.30962 -0.61314,0.49208 -0.69829,0.2922 z m -0.32053,-0.92836 c -0.15673,-0.42513 -0.15582,-0.42569 1.34687,-0.7503 0.98343,-0.21242 1.16137,-0.21181 1.21852,0.004 0.0367,0.13916 0.0669,0.27826 0.0669,0.30914 0,0.0816 -0.61902,0.29836 -1.1116,0.38954 -0.23333,0.0432 -0.64215,0.14959 -0.90849,0.23637 -0.4147,0.1352 -0.50264,0.10808 -0.6122,-0.18903 z m 13.72391,-0.2802 c 0.086,-0.0503 0.22652,-0.0503 0.31243,0 0.086,0.0503 0.0164,0.0914 -0.15618,0.0914 -0.17181,0 -0.24214,-0.0411 -0.15618,-0.0914 z m -16.49743,-1.61753 c -0.12054,-0.49027 -0.21905,-1.12041 -0.2187,-1.40033 5.4e-4,-0.7421 0.26252,-2.1307 0.38135,-2.02415 0.056,0.0503 0.13509,0.0125 0.17563,-0.0818 0.0406,-0.0951 0.18505,-0.14209 0.32107,-0.10412 0.136,0.038 0.24734,0.0125 0.24734,-0.0565 0,-0.0691 0.13527,-0.1256 0.3005,-0.1256 0.31505,0 0.30496,0.12706 -0.0576,0.72522 -0.41656,0.68727 -0.77802,1.93349 -0.85406,2.94464 l -0.0762,1.0138 z m 3.62491,-0.21025 c -0.56193,-0.0359 -0.96856,-0.14125 -0.96856,-0.25095 0,-0.20967 1.75338,-0.0357 2.18708,0.21709 0.24996,0.14563 0.24996,0.14563 0,0.12059 -0.13745,-0.0146 -0.6858,-0.0528 -1.21852,-0.0868 z m 0.55943,-0.5993 c -1.01065,-0.26335 -1.60878,-0.53509 -1.17781,-0.53509 0.078,0 0.11163,-0.11413 0.0749,-0.25363 -0.11764,-0.44463 0.18692,-0.51163 1.30073,-0.28621 1.3572,0.27468 1.41682,0.32156 1.16151,0.91308 l -0.20023,0.46388 z m 0.28417,-0.35378 c -0.13745,-0.0857 -0.41866,-0.15085 -0.62488,-0.14459 -0.3661,0.0104 -0.36462,0.0146 0.0625,0.14459 0.61351,0.18736 0.8629,0.18736 0.56238,0 z m 0,-0.36262 c 0.046,-0.10808 -0.0898,-0.17401 -0.3363,-0.16316 -0.38883,0.0167 -0.39486,0.0267 -0.10109,0.16316 0.17181,0.0799 0.32319,0.15335 0.33632,0.16316 0.0127,0.0104 0.0585,-0.0634 0.10109,-0.16316 z m 0.46084,0.0574 c -0.0902,-0.0524 -0.19801,-0.0461 -0.23952,0.0146 -0.0416,0.0603 0.0324,0.10307 0.164,0.0951 0.14563,-0.008 0.17527,-0.0517 0.0756,-0.10954 z m -1.49971,-0.36263 c -0.0902,-0.0524 -0.19801,-0.0459 -0.23953,0.0146 -0.0416,0.0601 0.0324,0.10307 0.16399,0.0951 0.14563,-0.008 0.17527,-0.0517 0.0756,-0.10954 z m 8.05064,0.27437 c 0.0629,-0.14772 0.0182,-0.17276 -0.1489,-0.082 -0.13164,0.0716 0.12636,-0.35953 0.57313,-0.95783 0.44679,-0.59831 0.74205,-1.09167 0.65613,-1.09638 -0.20422,-0.0104 -0.19763,-0.2197 0.0205,-0.65261 0.162,-0.32144 0.17509,-0.28699 0.15618,0.41202 -0.0164,0.58758 -0.0851,0.81298 -0.30177,0.98131 -0.15473,0.12018 -0.2812,0.29114 -0.2812,0.3799 0,0.0887 0.0704,0.10349 0.15618,0.0328 0.0858,-0.0707 -0.0376,0.16921 -0.27448,0.53323 -0.40919,0.62876 -0.74957,0.90407 -0.55599,0.44968 z m 3.79864,-0.59102 c 0,-0.0499 0.11254,-0.17797 0.24993,-0.28472 0.13746,-0.10682 0.24996,-0.15335 0.24996,-0.10348 0,0.0499 -0.11254,0.17797 -0.24996,0.28471 -0.13745,0.10662 -0.24993,0.15335 -0.24993,0.10349 z m -0.37492,-0.36467 c 0,-0.044 0.0562,-0.1304 0.1249,-0.19195 0.0687,-0.0616 0.12491,-0.0257 0.12491,0.0799 0,0.10557 -0.0562,0.19195 -0.12491,0.19195 -0.0687,0 -0.1249,-0.0361 -0.1249,-0.0799 z m -9.27946,-0.79236 c -0.39525,-0.36736 -0.7186,-0.7371 -0.7186,-0.82166 0,-0.1425 1.11953,0.69875 1.68372,1.26517 0.24537,0.24635 0.24537,0.24745 0,0.23595 -0.13564,-0.006 -0.56988,-0.3121 -0.96512,-0.67946 z m 6.9049,0.5204 c 0,-0.10558 0.0562,-0.19196 0.1249,-0.19196 0.0687,0 0.12491,0.0361 0.12491,0.0799 0,0.044 -0.0562,0.13041 -0.12491,0.19196 -0.0687,0.0615 -0.1249,0.0257 -0.1249,-0.0799 z m 1.96497,0.0434 c -0.0313,-0.0797 0.21677,-0.45198 0.55127,-0.82743 0.64993,-0.72956 0.836,-0.68133 0.26447,0.0686 -0.55219,0.72451 -0.75507,0.91325 -0.81574,0.7589 z m -8.40123,-0.96067 c -0.54988,-0.3833 -0.89998,-0.7033 -0.77796,-0.71108 0.22208,-0.0146 1.96524,1.18144 1.96524,1.34794 0,0.16191 -0.18,0.0653 -1.18728,-0.63686 z m 2.81197,-0.7672 c -0.53208,-0.96364 -0.64346,-1.22718 -0.51863,-1.22718 0.0662,0 0.35587,0.40794 0.6436,0.90653 0.28774,0.49862 0.44765,0.90203 0.35532,0.89652 -0.0924,-0.004 -0.30844,-0.26466 -0.48029,-0.57587 z m 3.03627,0.17797 c 0.0364,-0.2244 0.0973,-0.60258 0.13563,-0.84043 0.0965,-0.59956 0.19034,-0.6907 0.18247,-0.17735 -0.0127,0.79793 -0.12436,1.42563 -0.25449,1.42563 -0.0713,0 -0.1,-0.1836 -0.0636,-0.40793 z m -10.23668,0.0789 c 0.0431,-0.1012 0.0109,-0.21672 -0.0724,-0.25678 -0.0935,-0.0453 -0.0676,-0.11914 0.0682,-0.19466 0.13091,-0.0728 0.18818,-0.0499 0.14254,0.0574 -0.10872,0.25532 0.10655,0.22204 0.30665,-0.0474 0.13309,-0.17922 0.15,-0.17943 0.0805,-7.5e-4 -0.0484,0.12414 -0.20394,0.31582 -0.34586,0.42603 -0.15654,0.12143 -0.22723,0.1279 -0.17963,0.0167 z m 16.12644,-2.97375 c 0.114,-0.0926 0.28036,-0.0926 0.39441,0 0.14672,0.11914 0.0964,0.16003 -0.1972,0.16003 -0.29366,0 -0.34404,-0.0409 -0.19721,-0.16003 z m 3.49289,11.81818 c 0.63586,-0.99639 1.2127,-2.27773 1.19792,-2.66099 -0.004,-0.0789 -0.11909,0.16921 -0.25792,0.5508 -0.13891,0.38169 -0.68466,1.35271 -1.21299,2.1578 -0.52833,0.80511 -0.84243,1.37354 -0.698,1.26317 0.14436,-0.11037 0.58137,-0.70023 0.97099,-1.31078 z m 1.410388,-4.39408 c -0.0342,-0.12268 -0.0602,0.0215 -0.0576,0.32073 0.002,0.29917 0.0305,0.39961 0.0624,0.22318 0.0316,-0.1763 0.0296,-0.42117 -0.005,-0.54391 z m 1.61859,-1.30686 c -0.11617,-0.25723 -0.17745,-0.54697 -0.13617,-0.64389 0.0413,-0.0968 -0.0445,-0.17609 -0.19076,-0.17609 l -0.26585,0 0.25847,0.52659 c 0.14217,0.28962 0.25846,0.67308 0.25846,0.85214 0,0.24513 0.0355,0.27411 0.14363,0.11726 0.108,-0.1569 0.0915,-0.32382 -0.0676,-0.67596 z m -1.62505,-0.22706 c -0.0416,-0.0601 -0.0711,0.0469 -0.0656,0.23798 0.007,0.21121 0.0356,0.25416 0.0756,0.10953 0.0362,-0.13082 0.0316,-0.28728 -0.009,-0.34751 z m -0.757738,-3.1193 c -0.0453,-0.1064 -0.14218,-0.19341 -0.21529,-0.19341 -0.0829,0 -0.0733,0.10391 0.0251,0.27633 0.17145,0.29963 0.3246,0.23276 0.19009,-0.083 z m 0.23039,-1.90491 c -0.0647,-0.24459 -0.58084,-0.82676 -0.733,-0.82676 -0.0604,0 0.70455,1.06887 0.77475,1.08254 0.0145,0.002 -0.004,-0.11225 -0.0416,-0.25578 z m -11.54584,-3.54077 0.93732,-0.12832 -0.99981,-0.008 c -0.54989,-0.004 -1.33724,0.0511 -1.74966,0.12539 l -0.74986,0.13499 0.81235,0.002 c 0.44678,0.001 1.23413,-0.0547 1.74966,-0.12539 z m 2.15584,0.0557 c -0.086,-0.0503 -0.22652,-0.0503 -0.31245,0 -0.086,0.0503 -0.0164,0.0914 0.15618,0.0914 0.17181,0 0.24214,-0.0411 0.15618,-0.0914 z m 2.6271,24.30587 c 0.0416,-0.0601 0.14927,-0.0668 0.23952,-0.0146 0.0996,0.0578 0.07,0.10077 -0.0755,0.10953 -0.13182,0.008 -0.20556,-0.0348 -0.164,-0.0951 z m 6.46487,-3.37355 c 0,-0.15397 0.0936,-0.39197 0.20794,-0.52882 0.1902,-0.22761 0.19407,-0.21019 0.0456,0.20447 -0.21772,0.60784 -0.25348,0.65357 -0.25348,0.3244 z m 0.37494,-1.03893 c 0,-0.10558 0.0562,-0.19195 0.12491,-0.19195 0.0687,0 0.1249,0.0361 0.1249,0.0799 0,0.044 -0.0562,0.1304 -0.1249,0.19195 -0.0687,0.0616 -0.12491,0.0257 -0.12491,-0.0799 z m 3.061908,-9.25743 c 0.0425,-0.0997 0.16163,-0.18131 0.2647,-0.18131 0.10309,0 0.15272,0.0816 0.11018,0.18131 -0.0426,0.0997 -0.16163,0.18132 -0.26472,0.18132 -0.10309,0 -0.15273,-0.0816 -0.11018,-0.18132 z m 3.18837,-2.25038 c 0.0813,-0.11809 0.17254,-0.10807 0.2671,0.0292 0.10818,0.1569 0.0776,0.20114 -0.12345,0.17923 -0.17599,-0.0188 -0.22494,-0.0903 -0.14363,-0.20844 z m -1.18877,-3.92661 c -0.20619,-0.0887 -0.52444,-0.3495 -0.70716,-0.57974 -0.2754,-0.34699 -0.30905,-0.4795 -0.19658,-0.7744 0.12218,-0.32043 0.11454,-0.3307 -0.0769,-0.10328 -0.32724,0.3886 -0.40871,0.0714 -0.1029,-0.40086 0.37633,-0.58113 0.34159,-0.82656 -0.0429,-0.30264 -0.25714,0.35048 -0.34212,0.38497 -0.46866,0.19028 -0.12273,-0.18882 -0.12273,-0.25477 -2e-5,-0.32012 0.30206,-0.16086 0.7188,-0.74988 0.62606,-0.88491 -0.0518,-0.0755 -0.23912,0.0603 -0.41625,0.30169 -0.48577,0.66209 -1.15066,0.58836 -2.36398,-0.26209 -0.54987,-0.38545 -1.123898,-0.86545 -1.275578,-1.06667 -0.20278,-0.26904 -0.37517,-0.33704 -0.65128,-0.25694 -0.20652,0.0599 -0.40517,0.0394 -0.44144,-0.0459 -0.12982,-0.30487 0.28252,-0.56021 1.06886,-0.6618 0.705878,-0.0912 0.773928,-0.073 0.580838,0.15586 -0.12036,0.1425 -0.218698,0.30462 -0.218698,0.36007 0,0.20552 1.025358,-0.0269 1.227588,-0.27839 0.22108,-0.27482 0.64704,-0.54166 0.64704,-0.40531 0,0.0442 -0.16873,0.20698 -0.37492,0.36158 -0.20621,0.1546 -0.37494,0.36742 -0.37494,0.4727 0,0.10537 0.18278,0.0321 0.40617,-0.16274 0.4913,-0.42834 1.28459,-0.72846 0.94669,-0.35814 -0.11509,0.12623 -0.3899,0.37473 -0.61057,0.55237 -0.59505,0.47898 -0.35748,0.57806 0.31709,0.13228 0.78578,-0.51932 0.96852,-0.37857 0.31861,0.2454 -0.63306,0.60776 -0.59759,0.83478 0.0445,0.28513 0.26585,-0.22752 0.54351,-0.33906 0.66949,-0.26894 0.17127,0.0954 0.0944,0.22899 -0.37597,0.65374 -0.62804,0.56707 -0.77593,0.81838 -0.31005,0.52685 0.15473,-0.0968 0.43585,-0.26531 0.62488,-0.3745 0.18903,-0.10912 0.34368,-0.31897 0.34368,-0.46615 0,-0.40983 2.35078,1.44494 2.84319,2.24329 0.43657,0.7078 0.52789,1.3981 0.20848,1.57592 -0.28257,0.15732 -1.4226,0.10599 -1.86441,-0.0839 z M 70.519942,110.72584 c -0.0426,-0.0997 -0.0182,-0.18131 0.0551,-0.18131 0.0727,0 0.13236,0.0816 0.13236,0.18131 0,0.0997 -0.0247,0.18131 -0.0551,0.18131 -0.0304,0 -0.0898,-0.0816 -0.13236,-0.18131 z"
     id="path9631"
     inkscape:connector-curvature="0"
     sodipodi:nodetypes="cssssssssssscssccccccssscsccssssscsssscssscsscccsccssscsccssscssssscccssscscscccsccsssssscccccscssscssccssccscscscccsssccssssssssccssscssscscscssccsscsscscssssscccscccsscsccscscsccsssssccsccssccccsscccccccsscccccsccsssssssscscccccsssscsscsssssscssscccssssccsscscssscscssscccsssscccsccsssssscsccscsccscccsccccsscsccccsccsscsssscscccsccssccsscccccssscccccssccscsscccssssscsccsssscscscccsscsscssscsscscsccscccccccccscccssccccssscsscsssssscsssssscsscssssssscscscscccscccsccccscscsscscccccscscsscsccccccsccccscccccsccccssssccsccssssssscssssssccsccsssssssscsssscssssssssssssssssssssssssss" />
  <path
     style="fill:#000000;stroke-width:0.21026315"
     d="m 167.06421,151.28759 c -0.52399,-0.41226 -4.88394,-3.07609 -9.2095,-5.62681 -1.14294,-0.67398 -1.63876,-1.08999 -1.59462,-1.33796 0.0353,-0.19801 0.0905,-1.49931 0.12309,-2.892 0.0325,-1.39267 0.14236,-3.10188 0.24416,-3.79822 0.10181,-0.69635 0.26712,-2.00673 0.36731,-2.91197 0.47448,-4.28713 0.88404,-7.64887 0.98018,-8.04562 0.0731,-0.30185 0.0485,-0.35874 -0.0793,-0.18382 -0.10182,0.13917 -0.35357,1.44965 -0.55941,2.91197 -0.20583,1.46231 -0.44937,3.0069 -0.54122,3.43238 -0.1899,0.87977 -0.68096,8.17499 -0.68409,10.16296 -8e-4,0.72297 -0.0609,1.36517 -0.13309,1.42716 -0.072,0.062 -0.60235,-0.20944 -1.17853,-0.60319 -0.57617,-0.39375 -1.15101,-0.72261 -1.27746,-0.73081 -0.12636,-0.008 -1.11543,-0.58464 -2.19777,-1.28097 -1.08233,-0.69634 -2.08105,-1.26608 -2.21941,-1.26608 -0.13836,0 -0.82942,-0.40166 -1.53575,-0.89258 -1.29662,-0.90119 -2.4297,-1.42895 -3.07083,-1.43031 -0.60128,-0.001 -1.15264,-0.21594 -1.06756,-0.41564 0.0449,-0.10536 -0.0502,-0.2028 -0.2111,-0.21642 -0.1609,-0.0146 -0.66593,-0.0565 -1.12206,-0.0954 -0.45614,-0.0388 -0.82933,-0.16587 -0.82933,-0.28257 0,-0.11663 -0.16181,-0.21216 -0.35952,-0.21216 -0.19772,0 -0.31093,-0.11392 -0.25157,-0.25321 0.0595,-0.13917 -0.0145,-0.25323 -0.16436,-0.25323 -0.14963,0 -0.27221,-0.11267 -0.27221,-0.25038 0,-0.1377 -0.17673,-0.24127 -0.39285,-0.23015 -0.21606,0.0104 -0.7464,-0.0584 -1.17853,-0.1546 -0.43212,-0.0962 -1.02139,-0.20051 -1.30948,-0.2322 -0.28808,-0.0315 -0.70056,-0.0772 -0.91663,-0.10161 -0.21607,-0.0242 -0.39285,-0.15794 -0.39285,-0.29728 0,-0.13916 0.17673,-0.26349 0.39285,-0.27605 0.2849,-0.0167 0.22494,-0.0924 -0.21825,-0.27604 -0.3361,-0.13916 -0.69791,-0.35713 -0.80403,-0.48415 -0.10618,-0.12706 -0.49897,-0.39356 -0.87298,-0.59236 -0.67491,-0.3587 -0.67609,-0.3617 -0.15618,-0.39532 0.56411,-0.0365 0.55426,-0.0472 -0.69247,-0.75128 -0.35454,-0.20008 -0.44888,-0.35427 -0.29916,-0.48849 0.14509,-0.12999 -0.0335,-0.35115 -0.52971,-0.65641 -0.41163,-0.25321 -1.06271,-0.66192 -1.44682,-0.90827 -0.3841,-0.24636 -1.60191,-0.95723 -2.70625,-1.57972 -1.10433,-0.62248 -3.89352,-2.26838 -6.19821,-3.65755 -4.30503,-2.59489 -24.337988,-14.20263 -31.340178,-18.1595 -2.16064,-1.22096 -4.14097,-2.3778 -4.40075,-2.57073 -0.8172,-0.60697 -0.82596,-1.4657 -0.12636,-12.377245 0.44666,-6.96586 0.67647,-9.28202 0.96925,-9.76873 0.13218,-0.21986 0.24047,-0.52102 0.24047,-0.66924 0,-0.34111 0.45173,-0.6011 0.75305,-0.43339 0.126,0.0701 0.37397,-0.10432 0.55084,-0.38779 0.34225,-0.54845 0.72173,-0.71353 0.5127,-0.22301 -0.0778,0.18256 -0.0478,0.22354 0.0798,0.10912 0.11236,-0.10078 0.16527,-0.27533 0.11727,-0.38787 -0.0478,-0.11267 0.4811,-0.74321 1.17568,-1.40143 0.6946,-0.65823 4.16995,-3.93989 7.72299,-7.29255 6.392298,-6.03183 7.594958,-7.23148 7.594978,-7.57597 0,-0.0974 -0.24079,-0.69464 -0.53508,-1.32705 -0.2943,-0.63242 -0.49048,-1.25455 -0.43593,-1.38253 0.15145,-0.35547 -0.0833,-1.03803 -0.35716,-1.03803 -0.27432,0 -0.35808,-1.94912 -0.26116,-6.077144 0.0311,-1.323046 0.0164,-2.348588 -0.0318,-2.278943 -0.0973,0.139373 -0.44488,4.737821 -0.50304,6.653497 -0.0333,1.09592 -0.0622,1.17233 -0.30938,0.81459 -0.21848,-0.31629 -0.28386,-1.179273 -0.32894,-4.340739 l -0.0562,-3.94598 -0.87412,-0.535607 c -0.82694,-0.506689 -0.86838,-0.576856 -0.76755,-1.299887 0.56219,-4.030834 0.75333,-10.545083 0.43341,-14.769183 -0.27859,-3.67827 -0.34573,-4.189925 -0.51715,-3.941327 -0.09,0.130611 -0.0815,1.124168 0.0207,2.375232 0.34424,4.214816 0.37635,9.077009 0.086,13.018858 -0.15309,2.078041 -0.30594,3.818311 -0.3397,3.8673 -0.0338,0.04903 -0.59492,-0.258112 -1.24699,-0.682408 l -1.185588,-0.771457 0.11345,-2.336196 c 0.27718,-5.711599 0.32592,-10.858527 0.13273,-14.010578 -0.11182,-1.825083 -0.15382,-3.505806 -0.0931,-3.734917 0.0605,-0.229131 0.27352,-0.416618 0.47313,-0.416618 0.1996,0 0.525108,-0.216842 0.723348,-0.481902 0.94928,-1.269175 26.19608,-19.2159265 34.40691,-24.4582255 3.33686,-2.13047303 3.1605,-2.07816603 4.74312,-1.406628 5.96329,2.530421 28.95203,13.6608085 36.8983,17.8649215 0.62419,0.33024 3.49193,1.815381 6.37281,3.300334 15.23722,7.854049 30.84631,16.312035 32.64966,17.691624 0.28809,0.22041 0.6083,0.401429 0.7116,0.402284 0.10327,6.88e-4 0.36538,0.27568 0.58239,0.610698 0.32646,0.503977 0.36081,0.700727 0.1989,1.139482 -0.10763,0.291662 -0.409,0.727204 -0.66971,0.967832 -0.6552,0.604772 -8.00718,8.339915 -8.80572,9.264662 -0.63668,0.737302 -0.66932,0.746399 -1.65867,0.463897 -0.55508,-0.158569 -1.23168,-0.317221 -1.50357,-0.352732 -0.46251,-0.06051 -0.39506,-0.180685 1.0476,-1.869294 1.62027,-1.896397 8.67733,-9.601809 9.13146,-9.970418 0.38643,-0.313611 0.18998,-0.490978 -1.83064,-1.652556 -1.00552,-0.578066 -1.76981,-1.144511 -1.6984,-1.258784 0.0715,-0.114337 0.0393,-0.132697 -0.0714,-0.04069 -0.11073,0.0918 -1.32359,-0.467464 -2.69513,-1.242969 -1.37159,-0.775525 -2.77375,-1.558813 -3.11596,-1.740687 -0.34221,-0.181936 -2.39,-1.270092 -4.55065,-2.418317 -2.16064,-1.148203 -5.42123,-2.877144 -7.24579,-3.842054 -1.82454,-0.964932 -4.18159,-2.212408 -5.23791,-2.772197 -1.05631,-0.559768 -2.17592,-1.129384 -2.48801,-1.265794 -0.3121,-0.136453 -0.56744,-0.363331 -0.56744,-0.504269 0,-0.140834 -0.0667,-0.196542 -0.14818,-0.123308 -0.0815,0.07303 -0.69041,-0.156691 -1.35313,-0.51057 -0.66269,-0.35388 -3.20839,-1.665534 -5.65711,-2.914783 -2.44874,-1.24925 -4.96293,-2.544213 -5.58712,-2.877686 -0.62418,-0.333495 -2.15627,-1.112902 -3.40464,-1.73207 -1.24837,-0.619148 -2.78046,-1.380736 -3.40464,-1.692386 -0.62419,-0.311671 -2.82411,-1.41028 -4.88872,-2.441352 -6.08519,-3.0389875 -9.03507,-4.4645395 -14.57887,-7.0453065 -2.88086,-1.341114 -5.64554,-2.644611 -6.14374,-2.896693 -0.49821,-0.252062 -0.96961,-0.367149 -1.04758,-0.255755 -0.078,0.111416 -0.7703,0.592776 -1.53854,1.069712 -1.21575,0.754766 -2.53334,1.63768 -8.29338,5.557433 -3.35879,2.2857035 -24.57343,17.7887885 -24.84442,18.1556455 -0.11236,0.1521 2.09613,1.785503 2.41418,1.785503 0.13818,0 28.27012,16.195925 29.50143,16.984387 0.38412,0.245948 2.58405,1.532398 4.88874,2.858762 14.39298,10.913966 27.14505,15.732476 41.29223,24.848196 1.00828,0.65127 1.95111,1.23543 2.09516,1.29813 0.25716,0.11204 0.89431,-0.57757 6.80929,-7.36898 1.58447,-1.81926 3.08674,-3.53322 3.33837,-3.80879 1.13896,-1.28067 8.97904,-9.369645 10.13137,-10.689436 0.22263,-0.244446 2.60495,0.672602 2.83557,0.408314 5.89907,-6.760051 -10.63963,11.623322 -11.50388,12.582932 -0.86427,0.95961 -3.45704,3.91235 -5.76171,6.56165 -4.64645,5.34124 -4.99243,5.70173 -5.47231,5.70173 -0.18366,0 -0.41166,0.1425 -0.50662,0.31651 -0.47962,0.87922 -1.69663,7.45488 -2.39319,12.93081 -0.51557,4.05302 -0.52403,4.2245 -0.20815,4.2245 0.25078,0 1.8388,-1.6604 3.86615,-4.04235 0.67218,-0.78978 1.61501,-1.82225 2.09514,-2.29439 0.48016,-0.47213 2.44438,-2.56801 4.36495,-4.65749 1.92055,-2.08947 4.67047,-5.03349 6.11089,-6.54223 1.44043,-1.50876 3.23495,-3.39332 3.98782,-4.18794 3.71209,-3.9179 6.35866,-6.63568 6.46186,-6.63568 0.0524,0 0.0109,0.34768 -0.0904,0.77259 -0.10218,0.42492 -0.15145,0.82215 -0.10963,0.88276 0.0418,0.0607 0.37168,-0.2826 0.73309,-0.76269 0.63922,-0.84916 0.71325,-1.58172 0.13018,-1.2891 -0.26072,0.13082 -0.26174,0.11454 -0.0109,-0.17276 0.15236,-0.17442 0.5452,-0.62488 0.87299,-1.00104 0.32778,-0.37615 1.36201,-1.55103 2.29829,-2.61086 0.93629,-1.05982 1.70232,-2.10329 1.70232,-2.31882 0,-0.48301 0.79529,-0.25995 1.26583,0.35505 0.72309,0.94505 1.07913,0.50626 -8.23642,10.15088 -2.24934,2.32881 -4.10717,4.34572 -4.12851,4.482 -0.0213,0.13625 1.32951,2.11687 3.00187,4.40126 1.67238,2.28441 3.0851,4.4103 3.13943,4.7242 0.0544,0.3139 0.0109,0.80924 -0.0967,1.10076 -0.16764,0.45434 -0.35749,0.53001 -1.3293,0.53001 -1.58074,0 -5.54393,0.62887 -10.37743,1.64667 -2.25666,0.47523 -4.77087,0.9917 -5.58712,1.14779 -0.81623,0.15607 -1.73757,0.47427 -2.0474,0.70707 -0.30983,0.2328 -1.76336,1.80186 -3.23005,3.48676 -3.30077,3.79187 -4.93152,5.41964 -5.42767,5.41783 -0.20997,-6.9e-4 -0.69607,-0.13541 -1.08019,-0.2993 -0.3841,-0.16379 -0.76558,-0.27314 -0.8477,-0.2429 -0.21756,0.0801 -0.64739,-0.49175 -0.5469,-0.72754 0.0471,-0.11058 -0.0687,-0.1423 -0.25736,-0.0707 -0.20168,0.0764 -1.01103,-0.34119 -1.96446,-1.01384 -3.70049,-2.61064 -3.97239,-2.69523 -6.70034,-2.08447 -2.16104,0.48383 -12.532,2.92758 -15.69821,3.69901 -1.15234,0.28075 -2.37016,0.55919 -2.70626,0.61873 -0.33609,0.0597 -1.27028,0.28265 -2.07597,0.49578 -1.48747,0.39348 -1.94382,0.47811 -4.12222,0.76455 -0.67221,0.0883 -1.39832,0.21232 -1.61358,0.27541 -0.5795,0.169845 -1.41648,2.757345 -2.08202,6.436495 -1.26745,7.00648 -1.63798,10.98187 -1.4153,15.18442 0.12527,2.36407 0.57688,4.81955 0.88644,4.81955 0.0873,0 0.11708,-0.15753 0.0662,-0.3501 -0.18387,-0.69487 2.38461,-1.6893 5.38048,-2.08316 0.67218,-0.0883 1.64885,-0.3168 2.17033,-0.50765 0.52148,-0.19091 2.64284,-0.63888 4.71412,-0.99562 7.99709,-1.37736 13.74562,-2.46691 22.01136,-4.17194 1.39242,-0.28722 3.39594,-0.6876 4.45224,-0.88976 8.07093,-1.54452 10.57012,-2.1027 12.40842,-2.77134 0.62458,-0.22715 1.28988,-0.34201 1.47842,-0.25521 0.19454,0.0895 0.34282,0.0409 0.34282,-0.11246 0,-0.14855 0.13746,-0.26852 0.30556,-0.26639 0.26112,0.002 0.26747,0.0396 0.0436,0.24932 -0.16018,0.15023 -0.18054,0.24697 -0.0524,0.24935 0.11527,0.002 0.27696,-0.17067 0.3593,-0.38417 0.0847,-0.21933 0.48697,-0.44403 0.92533,-0.51683 0.42657,-0.0707 0.89341,-0.17902 1.03746,-0.24061 0.144,-0.0615 0.61546,-0.17484 1.04759,-0.25198 0.43212,-0.077 1.06067,-0.24158 1.39677,-0.36558 0.3361,-0.12393 0.99936,-0.29694 1.47391,-0.38436 0.47455,-0.0874 1.41369,-0.32699 2.087,-0.5324 0.67331,-0.2053 1.30644,-0.32754 1.40695,-0.27142 0.11527,0.0645 0.17272,-0.39821 0.15545,-1.25179 l -0.0273,-1.35385 0.6384,0.4754 c 0.70782,0.52709 1.2495,1.6624 1.2495,2.61886 0,0.61291 -0.054,0.63653 -2.92451,1.27836 -1.60847,0.35966 -3.82804,0.83244 -4.93237,1.05064 -1.10432,0.2182 -2.87211,0.69 -3.92843,1.04845 l -1.92057,0.65172 -1.31846,1.9719 c -0.75904,1.13521 -1.43871,2.4158 -1.60183,3.01804 -0.15582,0.57538 -0.21073,0.98106 -0.122,0.90149 0.0887,-0.0795 0.16145,0.0236 0.16145,0.229 0,0.20552 -0.082,0.41334 -0.18234,0.46183 -0.10036,0.0484 -0.1956,0.34285 -0.21178,0.65414 -0.0191,0.36686 -0.14327,0.56599 -0.3529,0.56599 -0.17799,0 -0.48497,0.12539 -0.68231,0.27847 -0.26088,0.20259 -0.32639,0.20259 -0.2401,0 0.0653,-0.15314 0.0253,-0.27847 -0.0889,-0.27847 -0.34405,0 -17.0405,24.45182 -18.28447,26.77745 -0.46857,0.87601 -0.6797,1.07429 -1.13509,1.06602 -0.30768,-0.004 -0.77572,-0.18026 -1.04008,-0.38828 z m -0.7438,-5.1723 c 0.23997,-2.81326 1.44761,-12.55269 1.85602,-14.96823 0.0851,-0.50316 0.34456,-1.32063 0.57664,-1.81663 0.35154,-0.75126 0.37825,-0.92617 0.16,-1.0476 -0.58611,-0.32619 -0.73649,-0.13791 -0.84438,1.05698 -0.0596,0.66153 -0.21745,1.65857 -0.3505,2.21565 -0.3175,1.32957 -0.77876,3.98505 -0.96763,5.57072 -0.0829,0.69632 -0.31285,2.63343 -0.51092,4.30464 -0.42524,3.58782 -0.63529,7.48339 -0.439,8.14149 0.17526,0.58733 0.17417,0.59365 0.51973,-3.45702 z m 4.60168,-0.69635 c 0.90623,-1.35787 3.42412,-5.09001 5.59532,-8.29366 2.17118,-3.20367 5.12616,-7.62425 6.56658,-9.82351 1.44044,-2.19924 3.57311,-5.44633 4.73928,-7.21571 1.16619,-1.76939 2.10902,-3.23475 2.09517,-3.25637 -0.0145,-0.0215 -0.65371,0.12227 -1.42193,0.31968 -0.76823,0.19738 -2.94693,0.68556 -4.84155,1.0847 l -3.44477,0.72572 -2.57883,3.61499 c -3.12887,4.38603 -4.85971,6.57511 -5.19872,6.57511 -0.36683,0 -0.95016,1.81423 -1.33919,4.16497 -0.46455,2.80716 -1.84774,12.18111 -1.99153,13.49677 -0.0647,0.5919 -0.0524,1.07618 0.0275,1.07618 0.0798,0 0.88653,-1.111 1.79276,-2.46887 z m -8.33994,-5.88723 c 0.2022,-1.88013 0.52188,-4.50089 0.71042,-5.82394 0.44054,-3.09137 0.50719,-3.83596 0.32912,-3.67635 -0.44183,0.39603 -1.76936,12.42097 -1.72765,15.64945 l 0.0236,1.82711 0.14836,-2.27892 c 0.0816,-1.25343 0.3139,-3.81723 0.51608,-5.69735 z m -1.39538,2.78538 c 0.108,-1.46234 0.46201,-4.76678 0.78683,-7.34325 0.60659,-4.81141 0.69751,-5.8952 0.40588,-4.83793 -0.54485,1.97537 -1.56336,11.70575 -1.52683,14.58671 0.0164,1.2534 0.0534,1.82314 0.0834,1.26606 0.03,-0.55707 0.14273,-2.2093 0.25072,-3.67159 z m -5.69562,-3.23991 c 0.0669,-1.63015 0.26555,-3.93242 0.4414,-5.1162 0.17582,-1.18377 0.40854,-3.12088 0.51706,-4.30463 0.10855,-1.1838 0.23505,-2.49418 0.28116,-2.91199 0.082,-0.74294 0.0796,-0.74571 -0.10854,-0.12665 -0.71735,2.36188 -1.94685,15.28343 -1.59016,16.71217 0.15145,0.60682 0.32575,-1.00797 0.45899,-4.25274 z m -11.39689,-1.23771 c -0.12599,-0.0732 -0.27663,-0.0641 -0.33464,0.0209 -0.058,0.0841 0.0451,0.14397 0.22916,0.13291 0.20339,-0.0125 0.24475,-0.0722 0.10545,-0.15294 z m -6.1109,-2.78539 c -0.126,-0.073 -0.27663,-0.0641 -0.33465,0.0209 -0.058,0.0841 0.0451,0.14396 0.22916,0.1329 0.2034,-0.0125 0.24478,-0.0722 0.10545,-0.15293 z m 33.10271,-5.61184 c 0.05,-0.21793 -0.034,-0.30917 -0.23296,-0.25321 -0.17109,0.048 -0.34639,0.24079 -0.38941,0.42818 -0.05,0.21792 0.034,0.30918 0.23296,0.2532 0.17109,-0.048 0.34639,-0.24079 0.38941,-0.42817 z m -0.83496,-0.26281 c 0,-0.1231 -0.16163,-0.28498 -0.35919,-0.35989 -0.2947,-0.11183 -0.32221,-0.0716 -0.15327,0.22367 0.23052,0.40283 0.5124,0.47777 0.5124,0.13624 z m -5.67024,-3.01985 c -0.15545,-0.22546 -0.43617,0.48528 -0.43101,1.09122 0.004,0.41758 0.0515,0.38033 0.27288,-0.2123 0.14764,-0.39531 0.21887,-0.79081 0.15818,-0.87892 z m -1.2287,0.30065 c 0.3107,-1.07845 0.31345,-1.10854 0.10145,-1.10854 -0.0896,0 -0.20747,0.2395 -0.26203,0.53223 -0.0545,0.2927 -0.14363,0.7485 -0.19812,1.01285 -0.17109,0.83082 0.0825,0.52234 0.35875,-0.43654 z m 8.17902,0.39344 c -0.23149,-0.33571 -1.28008,-0.7536 -1.28008,-0.51015 0,0.25051 0.63576,0.66607 1.09601,0.71633 0.22706,0.0248 0.29266,-0.0486 0.18407,-0.20614 z m 2.28276,-3.51931 c 0.74449,-1.10954 1.30258,-2.13713 1.24018,-2.28353 -0.13054,-0.30648 -0.58849,0.14709 -1.99438,1.97564 l -0.94522,1.22934 -1.91598,-0.97878 c -1.0538,-0.53832 -1.95708,-0.91916 -2.00735,-0.84628 -0.0958,0.13896 3.75547,2.88203 4.08115,2.90669 0.10345,0.008 0.79709,-0.89356 1.5416,-2.00308 z m -25.30019,0.75124 c -0.0595,-0.13916 -0.22576,-0.25321 -0.36981,-0.25321 -0.144,0 -0.21334,0.11392 -0.154,0.25321 0.0593,0.13938 0.22576,0.25323 0.36981,0.25323 0.144,0 0.21334,-0.11392 0.154,-0.25323 z m -41.55249,-13.43416 c 0.15055,-2.42962 0.30601,-4.58841 0.34556,-4.7973 0.0394,-0.20892 0.23232,-2.60178 0.42833,-5.31752 0.19604,-2.715745 0.39541,-5.450445 0.44307,-6.077145 0.0607,-0.79806 0.0402,-0.98244 -0.0685,-0.61537 -0.0855,0.28826 -0.2093,1.31376 -0.27543,2.27892 -0.0662,0.96516 -0.27341,3.69194 -0.46064,6.059495 -0.59886,7.57297 -0.84665,11.11595 -0.84858,12.13321 -0.004,2.07437 0.17272,0.5914 0.4363,-3.66429 z m -0.53766,-4.54409 c 0.24453,-3.41207 0.52699,-7.457175 0.62768,-8.989115 0.10072,-1.53196 0.22503,-3.07024 0.2763,-3.41841 0.0616,-0.41847 0.0345,-0.54721 -0.0794,-0.37981 -0.0949,0.13916 -0.33606,2.53213 -0.53575,5.31749 -0.19969,2.785365 -0.51966,7.058375 -0.71106,9.495575 -0.19137,2.4372 -0.33837,4.94402 -0.32664,5.57072 l 0.0213,1.13947 0.14145,-1.26607 c 0.0778,-0.69635 0.34156,-4.05777 0.5861,-7.46985 z m -12.393378,-5.57073 c 0.39081,-5.670975 0.81794,-13.977765 0.72562,-14.111665 -0.11545,-0.16754 -0.23887,1.4597 -0.54482,7.18228 -0.27565,5.15588 -0.32669,5.94478 -0.6199,9.581505 -0.0895,1.11051 -0.15218,2.59181 -0.13909,3.29181 l 0.0236,1.2727 0.142,-1.6459 c 0.0782,-0.90522 0.26372,-3.41207 0.41248,-5.57073 z m -1.03626,0.37984 c 0.36804,-4.910065 0.78256,-12.430095 0.76069,-13.800215 l -0.0182,-1.13946 -0.13508,1.15768 c -0.0744,0.63673 -0.18785,2.4029 -0.25229,3.92482 -0.0644,1.52192 -0.22816,4.30543 -0.36386,6.18555 -0.4601,6.375325 -0.60862,9.407485 -0.47537,9.705175 0.0731,0.16316 0.15218,-0.3299 0.17563,-1.09587 0.0236,-0.76597 0.16236,-2.98794 0.30852,-4.93768 z m -4.27975,2.31929 c 0,-0.88306 0.15199,-3.817185 0.33781,-6.520305 0.18577,-2.70309 0.42613,-6.73787 0.53411,-8.96618 0.108,-2.22828 0.2285,-4.19386 0.26783,-4.36795 0.13581,-0.60169 -0.27596,-0.31441 -0.43859,0.30593 -0.17036,0.64965 -0.26339,1.86209 -0.51608,6.72078 -0.0833,1.60159 -0.29014,5.31489 -0.45968,8.25177 -0.16963,2.936895 -0.25815,5.529185 -0.1969,5.760655 0.24516,0.92654 0.4715,0.35782 0.4715,-1.1847 z m 34.744848,-6.244125 c -0.144,-0.13499 -0.34047,-0.24547 -0.4365,-0.24547 -0.096,0 -0.0567,0.11038 0.0873,0.24547 0.14399,0.135 0.34046,0.24545 0.4365,0.24545 0.096,0 0.0567,-0.11037 -0.0873,-0.24545 z m -1.83329,-1.01285 c -0.0593,-0.13917 -0.18646,-0.25323 -0.2825,-0.25323 -0.096,0 -0.126,0.11392 -0.0667,0.25323 0.0593,0.13937 0.18648,0.25321 0.2825,0.25321 0.096,0 0.126,-0.11392 0.0667,-0.25321 z m 28.98314,-0.63726 c 1.92055,-0.48516 4.27762,-1.06583 5.23793,-1.29037 2.18332,-0.51053 2.71818,-0.89878 1.04757,-0.76045 -0.6722,0.0557 -1.49716,0.17067 -1.83328,0.2554 -0.3361,0.0849 -1.23964,0.26817 -2.00786,0.40746 -2.27171,0.41191 -4.85643,0.96462 -5.32896,1.13953 -0.37768,0.13979 -0.5886,-0.0676 -1.48409,-1.45879 -0.5741,-0.89195 -1.35811,-2.16647 -1.74221,-2.83225 -0.38412,-0.6658 -1.03707,-1.73897 -1.45102,-2.38485 -0.41394,-0.64589 -1.00321,-1.61694 -1.30948,-2.15789 -0.85049,-1.50214 -2.98961,-4.67986 -2.62457,-3.8988 0.17691,0.37862 0.38068,0.69196 0.4527,0.69634 0.072,0.004 0.13091,0.12999 0.13091,0.27927 0,0.14918 0.0982,0.42069 0.21824,0.60329 0.12,0.18257 0.49325,0.82656 0.82933,1.43102 0.3361,0.60446 0.72894,1.27506 0.873,1.49019 0.14399,0.21513 0.53351,0.9019 0.8655,1.52616 0.33198,0.62426 1.0391,1.88643 1.57138,2.80483 0.53226,0.91841 1.39506,2.42819 1.9173,3.3551 0.52226,0.9269 0.99367,1.6834 1.04759,1.6811 0.054,-0.002 1.66941,-0.40111 3.58999,-0.88629 z m 28.01364,0.50237 c 0.15181,0.13603 0.59044,-4.9305 0.44511,-5.14128 -0.21127,-0.30639 -0.40457,0.45193 -0.5892,2.31123 -0.19876,2.00167 -0.24112,3.60666 -0.0798,3.02665 0.0485,-0.17505 0.14945,-0.26341 0.224,-0.19654 z m -57.95706,-0.37155 c 0,-0.13938 -0.0833,-0.25321 -0.18491,-0.25321 -0.10163,0 -0.13636,0.11392 -0.0769,0.25321 0.0594,0.13916 0.14254,0.25321 0.1849,0.25321 0.0424,0 0.0769,-0.11392 0.0769,-0.25321 z m -1.6674,-0.9844 c -0.0913,-0.12352 -0.3623,-0.2993 -0.60236,-0.39039 l -0.43648,-0.16566 0.43648,0.38139 c 0.48646,0.42507 0.86905,0.53599 0.60236,0.17464 z m -1.82455,-1.04132 c 0,-0.13937 -0.17672,-0.24521 -0.39285,-0.23543 -0.37482,0.0167 -0.37684,0.0277 -0.0436,0.23543 0.19205,0.11976 0.36884,0.22563 0.39284,0.23542 0.024,0.0104 0.0436,-0.0962 0.0436,-0.23542 z m -0.87298,-0.47898 c 0,-0.12414 -0.18912,-0.2946 -0.42028,-0.37875 -0.23114,-0.0841 -0.56506,-0.21231 -0.74204,-0.28484 -0.1769,-0.0726 -0.007,0.0949 0.37663,0.3721 0.82022,0.59188 0.78569,0.57906 0.78569,0.29149 z m 42.77631,-0.0188 c 0,-0.13499 -0.11782,-0.17964 -0.26189,-0.0995 -0.144,0.0801 -0.2619,0.19049 -0.2619,0.24528 0,0.0547 0.11781,0.0995 0.2619,0.0995 0.144,0 0.26189,-0.11037 0.26189,-0.24528 z m 0.90572,-0.18089 c -0.126,-0.0732 -0.27663,-0.0641 -0.33465,0.0209 -0.058,0.0841 0.0451,0.14396 0.22916,0.1329 0.20341,-0.0125 0.24478,-0.0722 0.10545,-0.15293 z m -48.37255,-2.49568 c -0.32312,-0.20343 -0.63738,-0.36588 -0.69838,-0.36093 -0.22718,0.0188 0.77236,0.73267 1.02397,0.73177 0.144,-5e-4 -0.002,-0.16733 -0.32559,-0.37084 z m -1.72243,-0.90927 c -0.10854,-0.15731 -0.57599,-0.48741 -1.03885,-0.73346 -2.00004,-1.06306 -3.33548,-1.82028 -4.02606,-2.28289 -0.40708,-0.27267 -0.78907,-0.49577 -0.84891,-0.49577 -0.11072,0 -3.60282,-1.98336 -4.871058,-2.76663 -0.3841,-0.23723 -1.7787,-1.0482 -3.09909,-1.80215 -1.32038,-0.75395 -2.4007,-1.43254 -2.4007,-1.50795 0,-0.0753 0.56962,-0.64433 1.26582,-1.26423 2.78588,-2.4806 9.065378,-8.6525 8.959528,-8.80602 -0.13127,-0.19049 -1.67011,0.97538 -1.67011,1.26531 0,0.10745 -0.0702,0.19529 -0.15618,0.19529 -0.15635,0 -4.525648,3.94972 -7.764748,7.01906 -0.94748,0.89781 -1.65459,1.71937 -1.57138,1.82565 0.0833,0.1062 1.95841,1.19093 4.16708,2.41037 2.20864,1.21945 4.487138,2.48226 5.063308,2.80629 0.57617,0.32402 1.83327,1.00492 2.79355,1.51314 0.96029,0.50819 2.53167,1.36748 3.49195,1.90954 1.95241,1.10209 1.98146,1.11425 1.70581,0.71452 z m 92.48937,-3.87358 c 1.10042,-0.32757 1.11102,-0.33798 0.34919,-0.34367 -0.93011,-0.006 -2.86822,0.63325 -2.00788,0.66323 0.2881,0.0104 1.0345,-0.13374 1.65869,-0.31956 z m -4.53955,-0.75748 c 1.10434,-0.19174 3.52033,-0.61207 5.36887,-0.93396 2.04837,-0.3567 3.36099,-0.69239 3.36099,-0.85957 0,-0.27399 -3.59995,-5.10113 -4.11762,-5.52128 -0.15036,-0.12205 -0.32194,-0.15168 -0.38118,-0.0659 -0.0593,0.086 0.67868,1.28631 1.63976,2.66754 l 1.74745,2.51138 -0.62273,0.14584 c -0.3425,0.0801 -1.84055,0.36904 -3.32899,0.64191 -4.08921,0.74963 -6.35441,1.28357 -6.53866,1.54126 -0.22852,0.3196 0.47946,0.28822 2.87211,-0.12727 z m -59.1253,-3.56551 c -0.10618,-0.4016 -0.41231,-0.52689 -0.41231,-0.1688 0,0.2678 0.19085,0.54865 0.3728,0.54865 0.0769,0 0.0947,-0.17088 0.0395,-0.37983 z m -1.64963,-2.86338 c -0.6042,-0.93196 -1.16226,-1.80273 -1.24011,-1.93504 -0.0882,-0.1498 -0.14164,-0.14229 -0.14164,0.0188 0,0.41839 2.34625,4.19279 2.41647,3.88733 0.0351,-0.15252 -0.43059,-1.03996 -1.03481,-1.97192 z m 46.45798,-1.17311 c 0,-0.20072 -0.0785,-0.43529 -0.17454,-0.52138 -0.096,-0.086 -0.17454,0.078 -0.17454,0.36487 0,0.28676 0.0785,0.52138 0.17454,0.52138 0.096,0 0.17454,-0.1642 0.17454,-0.36487 z m -1.57773,-0.76349 c 0.23993,-0.41929 0.10382,-0.89735 -0.25555,-0.89735 -0.31418,0 -0.49301,0.43402 -0.37014,0.89837 0.124,0.46874 0.35708,0.46836 0.62569,-10e-4 z m 2.62385,-0.13103 c 0.16927,-0.15523 0.19987,-0.32006 0.0873,-0.47105 -0.15509,-0.20802 -2.13362,-1.44129 -4.01428,-2.50221 -0.38412,-0.2167 -0.94598,-0.54942 -1.24857,-0.73943 -0.87485,-0.54926 -1.30286,-0.43822 -0.62413,0.1619 0.31441,0.27802 0.6876,0.5055 0.82934,0.5055 0.14163,0 0.25767,0.1062 0.25767,0.23615 0,0.12998 0.17672,0.31617 0.39284,0.41394 0.21607,0.0979 0.43212,0.24946 0.48014,0.33702 0.16399,0.29916 2.03707,1.51984 2.53166,1.64991 0.27145,0.0714 0.575,0.24791 0.67455,0.39229 0.22048,0.31977 0.29993,0.32175 0.63347,0.0167 z m -65.92966,-4.4511 c 0.0596,-0.22534 0.0304,-0.32697 -0.0685,-0.23825 -0.0949,0.0851 -0.17255,0.26193 -0.17255,0.39298 0,0.36423 0.12509,0.28396 0.24123,-0.15482 z m 59.29642,-0.0714 c 0,-0.35678 -0.19667,-0.52046 -0.45357,-0.3775 -0.36437,0.20281 -0.29595,0.5885 0.10436,0.5885 0.19207,0 0.34919,-0.0949 0.34919,-0.211 z m -1.10782,-0.66432 c -0.0569,-0.21492 -0.24398,-0.39074 -0.41581,-0.39074 -0.17182,0 -0.66535,-0.26936 -1.09672,-0.59854 -0.43135,-0.32919 -1.07965,-0.73719 -1.44064,-0.90665 -0.38992,-0.18298 -0.60918,-0.41883 -0.54013,-0.58082 0.0753,-0.17652 -0.0164,-0.22233 -0.26028,-0.12999 -0.20709,0.0785 -0.3765,0.0394 -0.3765,-0.0868 0,-0.12623 -0.0869,-0.22951 -0.19329,-0.22951 -0.10636,0 -0.67595,-0.32607 -1.26582,-0.72462 -1.25485,-1.17537 -3.22254,-1.39403 -4.2153,-2.31397 -0.144,0 -0.2619,-0.11392 -0.2619,-0.25321 0,-0.37199 -0.52286,-0.30944 -0.52912,0.0632 -0.73065,-0.32227 3.83982,2.7825 4.89977,3.47837 0.14727,0.10578 0.52041,0.27267 0.82933,0.37107 0.30895,0.0985 0.56173,0.28381 0.56173,0.41202 0,0.12832 0.14236,0.2331 0.3165,0.2331 0.17418,0 0.74371,0.30335 1.26584,0.67408 0.52212,0.37074 1.09199,0.66213 1.26637,0.64753 0.17436,-0.0146 0.56724,0.17985 0.873,0.43193 0.61447,0.50681 0.73727,0.48645 0.58297,-0.0968 z m -58.69172,-0.64395 c -0.0593,-0.13938 -0.14254,-0.25323 -0.1849,-0.25323 -0.0424,0 -0.0769,0.11392 -0.0769,0.25323 0,0.13916 0.0833,0.25321 0.18491,0.25321 0.10163,0 0.13636,-0.11392 0.0769,-0.25321 z m -0.67003,-1.07618 c -0.0484,-0.17401 -0.088,-0.0317 -0.088,0.31653 0,0.34816 0.0396,0.4906 0.088,0.31651 0.0484,-0.17401 0.0484,-0.45893 0,-0.63304 z m 2.66784,-13.842402 c 0.0164,-1.440575 -0.11527,-0.768035 -0.21949,1.118368 -0.0753,1.362191 -0.0624,1.538031 0.0556,0.759651 0.0845,-0.55708 0.15818,-1.402188 0.16381,-1.878019 z m -1.09176,1.055065 c -0.0438,-0.243715 -0.0798,-0.04423 -0.0798,0.443114 0,0.48743 0.036,0.68686 0.0798,0.44312 0.0438,-0.24372 0.0438,-0.64252 0,-0.886234 z m 0.16873,-1.903929 c -0.0478,-0.171504 -0.084,0.03005 -0.0806,0.447957 0.004,0.417786 0.0427,0.558057 0.0869,0.311691 0.0444,-0.246386 0.0414,-0.588206 -0.007,-0.759648 z m 1.24951,-8.287963 c 0.004,-2.715737 -0.0218,-4.823761 -0.0549,-4.684471 -0.0331,0.139165 -0.0884,3.044893 -0.1229,6.456955 -0.0345,3.412083 -0.009,5.520086 0.0549,4.684492 0.0647,-0.835615 0.11999,-3.741259 0.1229,-6.456976 z m -1.06415,5.890719 c -0.0402,-0.384904 -0.074,-0.130193 -0.0755,0.566257 -8.1e-4,0.696346 0.0315,1.01125 0.0729,0.699809 0.0414,-0.31142 0.0426,-0.881161 0.002,-1.266066 z m 25.88968,0.09911 c 0,-0.04799 -0.17672,-0.304431 -0.39284,-0.569721 l -0.39285,-0.482382 1.30664,-1.722264 c 0.31258,0.535399 -0.19626,0.226607 -0.52095,2.774367 z m -38.29687,-2.259603 c -0.0478,-0.171504 -0.084,0.03004 -0.0805,0.447936 0.004,0.417807 0.0427,0.558078 0.0869,0.311712 0.0444,-0.246386 0.0414,-0.588206 -0.007,-0.759648 z m 12.58671,-7.085199 c -0.0311,-1.427493 -0.0565,-0.259552 -0.0565,2.595454 0,2.854986 0.0255,4.022948 0.0565,2.595455 0.0311,-1.427492 0.0311,-3.763417 0,-5.190909 z m -13.45385,5.444118 c -0.0438,-0.243715 -0.0798,-0.04423 -0.0798,0.443137 0,0.487411 0.036,0.686832 0.0798,0.443116 0.0438,-0.243716 0.0438,-0.642537 0,-0.886253 z m 1.04719,-0.50938 c -0.0436,-0.242109 -0.0778,0.01669 -0.076,0.572683 0.002,0.557076 0.0376,0.755162 0.0795,0.440174 0.0416,-0.314968 0.0402,-0.770769 -0.004,-1.012857 z m -0.86972,-1.642938 c -0.0416,-0.313361 -0.0756,-0.05696 -0.0756,0.56972 0,0.626701 0.034,0.883081 0.0756,0.569721 0.0416,-0.31334 0.0416,-0.826101 0,-1.139441 z m 1.13906,-2.856217 c 0.0476,-3.566959 -0.19367,-10.407045 -0.34515,-9.786123 -0.0449,0.184231 8e-4,2.178273 0.10236,4.431262 0.10127,2.252967 0.12927,5.258614 0.0625,6.679201 -0.0669,1.420587 -0.0642,2.499667 0.005,2.397996 0.07,-0.10161 0.14872,-1.77672 0.17454,-3.722336 z m -0.9579,-3.463019 c -0.0331,-1.015799 -0.0605,-0.251644 -0.0609,1.698123 -3.5e-4,1.949747 0.0269,2.780835 0.0604,1.846865 0.0335,-0.933948 0.0336,-2.52921 5.1e-4,-3.544988 z m 109.95431,1.572875 c -0.0591,-0.138539 -0.27973,-0.383006 -0.49044,-0.543285 -0.38046,-0.289409 -0.38083,-0.287656 -0.0505,0.251853 0.33323,0.544286 0.74274,0.764884 0.54097,0.291432 z M 106.34849,36.220831 c 0,-0.696345 -0.0589,-1.266149 -0.13091,-1.266253 -0.072,-8.4e-5 -0.10381,0.569657 -0.0705,1.266086 0.078,1.633653 0.20141,1.633737 0.20141,1.67e-4 z m -0.13472,-2.844637 c -0.13073,-0.725263 -0.21538,-0.515077 -0.20224,0.502391 0.009,0.723282 0.0445,0.829836 0.14764,0.447164 0.0744,-0.276306 0.0991,-0.703607 0.0547,-0.949555 z m 36.14899,104.990426 c 0.058,-0.0841 0.20861,-0.093 0.33465,-0.0209 0.13927,0.0807 0.098,0.14083 -0.10545,0.15294 -0.18407,0.0104 -0.2872,-0.0488 -0.22918,-0.13291 z m -3.7608,-1.7856 c 0.11818,-0.0693 0.35392,-0.0735 0.52379,-0.008 0.16981,0.0643 0.0731,0.12101 -0.21492,0.12602 -0.28808,0.004 -0.42706,-0.0474 -0.30887,-0.11663 z m -1.69899,-0.18653 c 0,-0.0549 0.11781,-0.16504 0.2619,-0.24528 0.144,-0.0803 0.26189,-0.0355 0.26189,0.0995 0,0.13499 -0.11782,0.24526 -0.26189,0.24526 -0.14399,0 -0.2619,-0.0449 -0.2619,-0.0995 z m 45.65716,-64.591125 c -0.96028,-0.5865 -2.13882,-1.31929 -2.61895,-1.62842 -0.48015,-0.30912 -1.34441,-0.85258 -1.92057,-1.20765 -0.57617,-0.35511 -1.36186,-0.84617 -1.74598,-1.09128 -0.38412,-0.24512 -0.91888,-0.5745 -1.18839,-0.73194 -0.3197,-0.18674 -0.44457,-0.39592 -0.35932,-0.60175 0.10291,-0.24833 0.0753,-0.25045 -0.12981,-0.0104 -0.20932,0.24547 -0.49892,0.15231 -1.47395,-0.47429 -8.04209,-4.77481 -24.10236,-11.040991 -31.41995,-18.693428 0.0302,-0.07094 -0.12108,-0.144172 -0.33628,-0.162742 -0.37343,-0.03255 -3.48806,-1.734323 -3.85299,-2.105415 -0.096,-0.09764 -0.52817,-0.324377 -0.96029,-0.503873 -0.43213,-0.179432 -1.09997,-0.531329 -1.48407,-0.781847 -0.97469,-0.635651 -6.29375,-3.702994 -9.42826,-5.436983 -1.44042,-0.796536 -2.85466,-1.598914 -3.14274,-1.78277 -0.2881,-0.183815 -1.03448,-0.619962 -1.65867,-0.969168 -5.8898,-3.294846 -9.84239,-5.522965 -12.49576,-7.043867 l -3.15469,-1.808266 1.32143,-0.997835 c 0.72678,-0.548835 2.02853,-1.542684 2.89278,-2.208589 3.13647,-2.416627 16.50544,-12.121484 20.22488,-14.6816995 2.3876,-1.64348 3.856,-2.524266 3.92845,-2.356392 3.75803,-2.924234 5.47346,-4.991343 11.35955,-1.44794 l 7.44193,3.566229 c 6.697,3.2092405 7.41009,3.6024695 7.12368,3.9282655 -0.2892,0.328988 -0.27841,0.337647 0.11818,0.09493 0.4872,-0.298255 2.61435,0.692194 14.31697,6.666308 5.92414,3.024216 7.95437,4.078238 12.04721,6.254404 1.0083,0.536108 4.15104,2.198116 6.98388,3.693334 2.83284,1.495218 5.17696,2.814676 5.20918,2.932121 0.0322,0.117466 0.11745,0.160655 0.18943,0.09619 0.20583,-0.184441 15.38897,8.170998 15.36851,8.457506 -8.1697,8.940682 -14.81781,17.250594 -23.99717,26.222907 -0.57618,0.6344 -1.96918,2.203 -3.09557,3.48578 -1.12641,1.28278 -2.10852,2.34642 -2.18248,2.36365 -0.074,0.0167 -0.92016,-0.44852 -1.88044,-1.03505 z M 140.5695,45.494278 c 0,-0.05258 -0.13745,-0.251999 -0.30554,-0.443137 -0.27692,-0.314967 -0.2831,-0.306017 -0.0658,0.09556 0.22809,0.421793 0.37147,0.555929 0.37147,0.347516 z m 17.11052,-30.163566 c 0.11963,-0.208893 0.17799,-0.379834 0.13,-0.379834 -0.048,0 -0.18511,0.170878 -0.30467,0.379834 -0.11945,0.208894 -0.17799,0.379814 -0.13,0.379814 0.048,0 0.18511,-0.170879 0.30465,-0.379814 z m -52.72833,45.578653 c -0.12527,-0.21891 -0.14218,-0.37982 -0.04,-0.37982 0.0974,0 0.2225,0.17088 0.27777,0.37982 0.0553,0.20891 0.0733,0.37983 0.04,0.37983 -0.0333,0 -0.15818,-0.17087 -0.27779,-0.37983 z"
     id="path9661"
     inkscape:connector-curvature="0"
     sodipodi:nodetypes="csccssccscccscssscccssssssssssssscsssscsssssssssssccsscscssccsscsssccscscsscssssssscsscsscsssccscssssscssssssssssssssccssccsssssssssssssccsscssssscsscssssscsscssssssssssscssssssssscccscsssssccssssscssssccsccsscccsssssssscscssscsscssssscccssscsccsssscsssssssscccccccccccscscsssssccssscsssscsssscsscssssssscsscsscscsscssccscccssccscccccssscsccssscssscscssscsssssssssssssssscscssssscsssscssscsscscscscscsssscsscsssccscccccccscssssscssscssssccsscsssscsscsssscssccssscsssscscscssssssssccsssscssssssssssscssssccccscccscccsssccsccsssssscscsscccscccccccsscsscccccsscssccscccccsssssccsccccccccscccsccsccccccccccscccscsssccscccssscsscccsscssscsscssccccccssssccsssscsccssssssscss" />
  <path
     style="fill:#000000;stroke-width:0.21036458"
     d="m 56.896952,153.90474 c -0.002,-0.22216 -0.19127,-0.30612 -0.57108,-0.25304 -0.31261,0.0436 -0.55527,-0.0344 -0.53924,-0.17359 0.0164,-0.13917 -0.33157,-0.25302 -0.77245,-0.25302 -0.48794,0 -0.83025,-0.12435 -0.87482,-0.31787 -0.0404,-0.17484 -0.12981,-0.26731 -0.1989,-0.20551 -0.16963,0.15168 -1.5852,-0.30049 -2.07435,-0.66255 -0.21643,-0.16024 -0.3947,-0.47128 -0.39619,-0.69132 -0.002,-0.32652 -0.0309,-0.33579 -0.15563,-0.0505 -0.17273,0.39454 -1.41562,0.18861 -1.41562,-0.23462 0,-0.1329 -0.14782,-0.24154 -0.32838,-0.24154 -0.18054,0 -0.42633,-0.17088 -0.54609,-0.37955 -0.11982,-0.20876 -0.43577,-0.37956 -0.70228,-0.37956 -0.26937,0 -0.52925,-0.16858 -0.58522,-0.37954 -0.0555,-0.20875 -0.22117,-0.37954 -0.36848,-0.37954 -0.14727,0 -0.26785,-0.11392 -0.26785,-0.25302 0,-0.13917 -0.19674,-0.25305 -0.43722,-0.25305 -0.24047,0 -0.43723,-0.12101 -0.43723,-0.26894 0,-0.14793 -0.14527,-0.2333 -0.32297,-0.18965 -0.17763,0.0436 -0.34174,-0.0346 -0.36467,-0.1738 -0.0733,-0.44556 -0.39649,-0.8844 -0.55004,-0.74709 -0.16454,0.14709 -0.4824,-0.20385 -1.53445,-1.69456 -1.4988,-2.12371 -1.55847,-2.26755 -1.69087,-4.07552 -0.0751,-1.02617 -0.0565,-1.83537 0.0464,-2.02426 0.26808,-0.49185 0.14417,-1.34117 -0.32941,-2.25787 -0.35545,-0.68806 -0.42105,-1.05759 -0.36234,-2.04125 0.0429,-0.71984 0.14218,-1.13807 0.2477,-1.04374 0.11073,0.0991 0.13782,-0.11267 0.0729,-0.5701 -0.44435,-3.13711 -1.33126,-13.8693 -1.33244,-16.1235 l -5.5e-4,-1.98536 1.00563,-1.66462 c 0.86822,-1.43715 6.20903,-8.40153 8.62888,-11.25199 0.67735,-0.79785 0.83564,-1.15984 1.01541,-2.32209 0.40145,-2.595315 1.95843,-4.622885 4.58485,-5.970635 0.88858,-0.45596 1.60169,-0.59502 3.47874,-0.67834 1.32129,-0.0586 2.46697,2e-5 2.60157,0.13333 0.19765,0.1957 0.15527,0.5026 -0.23751,1.72172 -0.7442,2.30976 -1.01224,3.27755 -0.83141,3.00185 0.71318,-1.08726 1.97009,-4.06147 3.62991,-8.58931 2.26134,-6.16882 2.79242,-7.59247 4.63014,-12.41227 0.74287,-1.94835 1.70536,-4.51027 2.13884,-5.69322 0.43349,-1.1829 0.96657,-2.60622 1.18462,-3.16288 0.21805,-0.55666 0.96643,-2.49236 1.66309,-4.30152 1.15737,-3.00565 2.50324,-5.98203 7.83757,-17.332645 1.01375,-2.157096 2.61546,-5.572998 3.55938,-7.590929 0.94391,-2.017932 2.27247,-4.750653 2.95233,-6.072739 2.2388,-4.353564 2.71391,-5.313655 2.62961,-5.313655 -0.25589,0 -4.99575,9.264558 -10.26053,20.055277 -5.24102,10.741961 -6.35555,13.196631 -8.61681,18.977331 -1.42843,3.65173 -3.60043,9.20146 -4.82666,12.33271 -1.22622,3.13125 -2.60839,6.74697 -3.07145,8.03492 -0.46308,1.28794 -0.87434,2.29485 -0.91396,2.23753 -0.0394,-0.0572 0.0551,-0.4597 0.21038,-0.89422 0.15527,-0.43452 0.23517,-0.90056 0.17745,-1.03564 -0.0576,-0.13499 -0.0289,-0.24559 0.0642,-0.24559 0.0929,0 0.20627,-0.59779 0.25177,-1.32841 0.18267,-2.93283 0.82858,-7.91767 1.05736,-8.16026 0.13127,-0.13916 0.29368,-0.78458 0.36103,-1.43425 0.0673,-0.64965 0.23661,-1.31831 0.37617,-1.48591 0.13963,-0.16754 0.25377,-0.54051 0.25377,-0.82871 0,-0.66075 1.1893,-4.2216 1.40999,-4.2216 0.0902,0 0.16399,-0.2101 0.16399,-0.46686 0,-0.25677 0.15745,-0.67293 0.34978,-0.92483 0.19237,-0.25187 0.34979,-0.55899 0.34979,-0.68247 0,-0.20551 0.0858,-0.38436 0.61867,-1.2873 0.0998,-0.16921 0.36199,-0.73449 0.58266,-1.25637 0.22069,-0.52188 0.46368,-0.94886 0.54003,-0.94886 0.0764,0 0.24697,-0.31622 0.37924,-0.70273 0.36757,-1.0742 3.60166,-8.383992 4.27902,-9.671548 0.32945,-0.626263 0.87289,-1.728899 1.20764,-2.450323 0.33474,-0.721404 0.68381,-1.378879 0.77569,-1.461043 0.45134,-0.403557 2.45771,-4.618185 3.34189,-7.02004 0.54825,-1.489335 1.28415,-3.146523 1.63528,-3.682652 0.35114,-0.536129 0.93812,-1.551823 1.30441,-2.257099 0.3663,-0.705296 1.07255,-1.951624 1.56947,-2.769651 0.49689,-0.818005 1.1597,-2.014384 1.47285,-2.658611 2.15298,-4.428737 3.55184,-7.130224 4.37235,-8.443882 0.52155,-0.834989 1.20182,-2.030554 1.51172,-2.656817 0.67931,-1.372724 2.70234,-3.97907 3.42997,-4.41891 0.28858,-0.174426 0.87884,-0.488141 1.3117,-0.697097 0.43286,-0.208977 0.91436,-0.459202 1.06999,-0.556075 0.40574,-0.252562 1.04092,1.414954 1.14546,3.007087 0.066,1.004094 -0.1009,2.236339 -0.78876,5.827876 -0.47981,2.505008 -1.12088,5.408545 -1.4246,6.452302 -0.59251,2.036104 -1.41309,5.486953 -1.74492,7.337908 -0.11218,0.626241 -0.42977,1.602106 -0.70555,2.168592 -0.27579,0.566486 -0.69347,1.648196 -0.92819,2.403796 -0.23471,0.7556 -0.94222,2.226073 -1.57224,3.267681 -0.63002,1.041629 -1.27895,2.220691 -1.44203,2.620159 -0.29507,0.722655 -0.29449,0.72543 0.11763,0.557326 0.41361,-0.168583 0.4137,-0.168166 0.0571,0.289722 -0.19638,0.25227 -0.46988,0.80025 -0.60775,1.217765 -0.13781,0.417494 -0.62929,1.428661 -1.09208,2.247042 -0.82396,1.45712 -1.00047,2.207129 -0.30519,1.296778 0.54447,-0.712891 0.41328,-0.04444 -0.17927,0.913189 -0.29152,0.471157 -0.57893,1.184945 -0.63864,1.586207 -0.0604,0.40627 -0.25096,0.783415 -0.42988,0.851115 -0.17672,0.0668 -0.27492,0.23014 -0.21823,0.36285 0.0567,0.1327 -0.0622,0.30383 -0.2643,0.38028 -0.20207,0.0764 -0.36738,0.29652 -0.36738,0.489033 0,0.20468 -0.18163,0.35004 -0.43724,0.35004 -0.32481,0 -0.43723,0.13395 -0.43723,0.52101 0,0.28655 -0.0698,0.45859 -0.15508,0.38231 -0.21025,-0.18798 -0.60223,0.52808 -0.46496,0.84941 0.0602,0.14125 -0.0913,0.32966 -0.33697,0.41885 -0.24563,0.0891 -0.51128,0.32937 -0.59031,0.53369 -0.0913,0.23581 -0.53935,0.4234 -1.22699,0.51362 -0.5958,0.0782 -1.12928,0.24979 -1.1855,0.3814 -0.20801,0.48697 0.30721,0.79005 1.28872,0.75804 0.84963,-0.0277 0.96294,0.0188 0.71514,0.28707 -0.16199,0.1761 -0.34717,0.62376 -0.41159,0.99506 -0.0645,0.3713 -0.63104,1.44596 -1.25915,2.38817 -0.62813,0.94219 -1.41373,2.32059 -1.74577,3.06306 -0.33207,0.7425 -0.75442,1.56802 -0.9386,1.83448 -0.3709,0.5366 -0.44664,1.24359 -0.13327,1.24359 0.11091,0 0.0351,0.20904 -0.16854,0.46457 -0.22756,0.28554 -0.30772,0.55503 -0.20801,0.69928 0.0996,0.14418 -0.15545,0.73411 -0.66215,1.53063 -1.43778,2.26021 -1.6989,2.84758 -1.63043,3.66775 0.0191,0.2288 -0.34732,1.0828 -0.81429,1.89773 -0.9526,1.66241 -1.16812,2.27705 -0.86205,2.45826 0.14927,0.0883 0.13399,0.20113 -0.0535,0.39588 -0.21792,0.22616 -0.2221,0.30983 -0.0247,0.49402 0.32241,0.3008 0.096,2.219 -0.34225,2.89959 -0.44782,0.69541 -2.07547,0.80979 -4.09282,0.2876 -1.74352,-0.45132 -3.25609,-0.41975 -3.36758,0.0703 -0.0436,0.19132 0.0891,0.31872 0.33611,0.3225 0.40833,0.006 1.79261,0.6311 2.94403,1.32897 0.33667,0.20405 1.2655,0.51433 2.06406,0.68952 l 1.45193,0.31852 -0.37407,0.57606 c -0.20574,0.31685 -0.81976,0.93587 -1.36449,1.37563 -0.54471,0.43971 -1.19468,0.98187 -1.44433,1.20476 -0.42564,0.38002 -0.54542,0.36408 -1.9238,-0.2559 -0.80848,-0.36362 -1.82407,-0.72178 -2.25693,-0.79589 l -0.78702,-0.13478 0.43723,0.4335 c 0.24046,0.23841 0.88356,1.04162 1.42907,1.78489 0.9346,1.27337 0.98156,1.39407 0.81362,2.09098 -0.098,0.40681 -0.22954,0.73956 -0.29227,0.73949 -0.0627,-8e-5 -0.5366,-0.23249 -1.05308,-0.51649 l -0.93903,-0.51635 0.45808,1.13087 c 0.25194,0.62198 0.45806,1.30545 0.45806,1.51885 0,0.41975 -0.0296,0.40585 3.77441,1.769965 3.4447,1.23527 5.32962,2.34027 5.66094,3.31861 0.33828,0.99888 0.45295,9.40817 0.21396,15.68795 -0.0958,2.51546 -0.10655,4.65582 -0.0242,4.78076 0.0835,0.12664 0.11182,-0.0407 0.0644,-0.37955 -0.0495,-0.35267 0.0314,-0.22433 0.19348,0.30717 0.15309,0.5021 0.46985,1.06118 0.70389,1.2424 0.23405,0.18111 0.47681,0.56745 0.53946,0.8583 0.0627,0.29085 0.18693,0.59686 0.27618,0.68005 0.0893,0.0832 0.16872,0.53861 0.17672,1.0121 0.007,0.4735 0.10145,0.94455 0.20767,1.04679 0.13291,0.12789 0.12309,0.18715 -0.0316,0.18986 -0.16726,0.002 -0.1789,0.1279 -0.0451,0.48952 0.13073,0.35352 0.12055,0.51704 -0.0375,0.60097 -0.16781,0.0889 -0.17,0.18799 -0.009,0.43429 0.16054,0.24679 0.15218,0.3988 -0.0364,0.67152 -0.134,0.19383 -0.20196,0.50976 -0.15109,0.70192 0.0509,0.19216 -0.0306,0.69405 -0.18109,1.1153 -0.15054,0.42123 -0.22761,0.93985 -0.17127,1.15248 0.0564,0.21263 -0.0622,0.72134 -0.26359,1.13049 -0.20134,0.40913 -0.3661,0.9102 -0.3661,1.11348 0,0.20322 -0.15745,0.65913 -0.34979,1.01299 -0.19238,0.35383 -0.34979,0.75553 -0.34979,0.89265 0,0.13708 -0.12309,0.31762 -0.27341,0.4011 -0.15036,0.0835 -0.22643,0.26185 -0.16891,0.39634 0.12909,0.30232 -0.23936,1.28282 -0.65067,1.7313 -0.16836,0.1836 -0.30607,0.49239 -0.30607,0.68635 0,0.19403 -0.1029,0.44368 -0.22888,0.55497 -0.20285,0.17922 -0.94382,1.53127 -1.68982,3.08315 -0.14145,0.29432 -0.36037,0.53511 -0.48646,0.53511 -0.12599,0 -0.27823,0.18486 -0.33817,0.41078 -0.18054,0.68051 -1.09643,1.90342 -1.29359,1.72712 -0.10127,-0.0905 -0.22786,0.0778 -0.28141,0.37404 -0.0704,0.38891 -0.18856,0.49673 -0.42544,0.38797 -0.2317,-0.10641 -0.32812,-0.0261 -0.32812,0.27301 0,0.27893 -0.0927,0.37219 -0.27141,0.27296 -0.17272,-0.096 -0.22751,-0.0478 -0.15054,0.13228 0.0731,0.17088 0.0247,0.23485 -0.122,0.16149 -0.13363,-0.0668 -0.43064,0.0891 -0.66004,0.3467 -0.22941,0.25757 -0.62947,0.4683 -0.88901,0.4683 -0.50974,0 -2.37625,0.46342 -2.80388,0.69614 -0.14436,0.0787 -0.35021,0.12331 -0.45762,0.0995 -0.10746,-0.0238 -0.29412,0.12894 -0.41492,0.33965 -0.12073,0.21059 -0.32805,0.38288 -0.46057,0.38288 -0.13254,0 -0.24092,0.10495 -0.24092,0.23341 0,0.27186 -0.9048,0.72454 -1.66149,0.83124 -0.28857,0.0407 -0.60338,0.21705 -0.69956,0.39189 -0.12255,0.2227 -0.33203,0.25267 -0.69957,0.10015 -0.28857,-0.11976 -0.68209,-0.12853 -0.87447,-0.0188 -0.46513,0.26393 -0.65105,0.27687 -0.54909,0.0382 0.12508,-0.29285 -1.52889,-0.2245 -1.67811,0.0693 -0.0784,0.1544 -0.12945,0.12331 -0.13127,-0.0795 z m 1.8337,-12.57211 c 0,-0.13917 -0.17709,-0.28943 -0.39352,-0.33389 -0.21643,-0.0444 -0.3935,0.0476 -0.3935,0.20468 0,0.1571 -0.0693,0.2236 -0.15399,0.14792 -0.2104,-0.18819 -0.35905,-1.41034 -0.17145,-1.41034 0.0829,0 0.14126,-0.0853 0.12999,-0.18986 -0.0109,-0.10432 -0.0109,-0.39576 0,-0.64751 0.0275,-0.6061 0.3705,-0.28559 0.3705,0.34614 0,0.27013 0.0871,0.49115 0.19362,0.49115 0.10654,0 0.14636,0.17818 0.0885,0.39609 -0.0798,0.30046 -0.024,0.35888 0.23065,0.24194 0.22003,-0.10098 0.39861,0.001 0.51826,0.29973 0.24837,0.61757 0.24916,-0.0607 5.4e-4,-0.73191 -0.14836,-0.40118 -0.14327,-0.47604 0.0227,-0.32768 0.13927,0.12456 0.18623,0.0684 0.13327,-0.15919 -0.0449,-0.19341 -0.23225,-0.36788 -0.41619,-0.38787 -0.64302,-0.0699 -0.68204,-0.10745 -0.37817,-0.36346 0.16836,-0.14187 0.30604,-0.42304 0.30604,-0.62486 0,-0.20176 0.0827,-0.367 0.18376,-0.367 0.11709,0 0.17218,-0.82533 0.152,-2.27726 -0.0256,-1.82886 -0.0833,-2.27727 -0.29261,-2.27727 -0.20252,0 -0.2158,-0.0785 -0.0595,-0.35096 0.3421,-0.59636 -0.61584,-1.47195 -2.61278,-2.38815 -2.7348,-1.25475 -6.15121,-2.90481 -8.18743,-3.95434 -0.99532,-0.51301 -1.92415,-0.86919 -2.06408,-0.79151 -0.13999,0.0778 -0.21143,0.0405 -0.1589,-0.0824 0.0525,-0.1229 -0.0196,-0.28751 -0.16018,-0.36559 -0.14072,-0.078 -0.30305,-0.0313 -0.36086,0.10411 -0.0578,0.13541 -0.17836,0.18069 -0.26796,0.10057 -0.0896,-0.0801 -0.16291,-0.0286 -0.16291,0.11454 0,0.14293 -0.13054,0.18757 -0.28999,0.0991 -0.25077,-0.13916 -0.27394,-0.0271 -0.17127,0.83029 0.0651,0.54521 0.16145,1.67447 0.21387,2.50948 0.13563,2.16262 0.57888,5.29986 0.76149,5.3906 0.0853,0.0423 0.34799,0.33585 0.58399,0.65228 0.23599,0.31643 0.93152,0.83447 1.54563,1.15117 0.6141,0.31672 1.36922,0.75831 1.67805,0.98133 0.30881,0.22299 0.61449,0.3288 0.67926,0.23508 0.0647,-0.0937 0.31461,0.0536 0.55516,0.32738 0.47972,0.54593 0.83104,0.66252 0.63855,0.21192 -0.0749,-0.17506 -0.028,-0.23636 0.12091,-0.15816 0.13363,0.0703 0.22559,0.24583 0.20436,0.39019 -0.0435,0.29473 0.96328,0.87607 1.18055,0.68178 0.0769,-0.0689 0.18594,0.0188 0.24225,0.19279 0.0644,0.19988 0.0829,0.17692 0.0496,-0.0618 -0.0291,-0.20877 -0.51246,-0.69919 -1.07435,-1.08985 -1.03043,-0.7164 -1.15096,-1.27385 -0.2182,-1.00916 0.32261,0.0916 0.45952,0.25851 0.39901,0.48659 -0.096,0.36175 0.25283,0.47227 1.16488,0.36922 0.27225,-0.0307 0.48097,0.0743 0.48097,0.24194 0,0.16295 -0.11545,0.23216 -0.25674,0.15377 -0.14127,-0.0785 -0.30359,-0.033 -0.36088,0.10119 -0.0573,0.13416 0.0145,0.30934 0.15818,0.38943 0.14436,0.0801 0.21958,0.30706 0.16727,0.50429 -0.11818,0.4456 0.31506,0.47519 0.6194,0.0424 0.17818,-0.25342 0.21118,-0.24635 0.16618,0.0355 -0.0349,0.2187 0.24163,0.51397 0.7308,0.78018 0.43286,0.2356 1.00857,0.56116 1.27935,0.72353 0.27079,0.16232 0.60062,0.29521 0.73298,0.29521 0.13236,0 0.29185,0.11997 0.35445,0.26643 0.14217,0.33275 1.5683,0.20552 1.5683,-0.14 z m -1.83637,-0.60308 c 0,-0.33354 -0.87351,-0.51642 -0.87978,-0.18423 -0.002,0.1546 -0.0856,0.0818 -0.1836,-0.16149 -0.098,-0.24355 -0.28848,-0.44281 -0.42321,-0.44281 -0.13472,0 -0.32519,-0.19925 -0.42322,-0.4428 -0.098,-0.24355 -0.18187,-0.32895 -0.18627,-0.18987 -0.009,0.28161 -0.3455,-0.39274 -0.34975,-0.70066 -0.004,-0.24378 0.79749,0.0146 1.46143,0.47295 0.27621,0.19028 0.5659,0.28914 0.64377,0.21952 0.0778,-0.0697 0.1985,0.006 0.26812,0.16962 0.0844,0.19759 0.0502,0.22801 -0.10236,0.0916 -0.15254,-0.13646 -0.18674,-0.10599 -0.10236,0.0916 0.0696,0.16295 0.19157,0.23812 0.27103,0.16712 0.0795,-0.0711 0.1921,0.0503 0.25026,0.26961 0.15309,0.57755 0.13036,0.86345 -0.0691,0.86345 -0.0962,0 -0.1749,-0.10057 -0.1749,-0.22352 z m 0,-1.67422 c -0.11982,-0.20874 -0.33145,-0.37952 -0.47043,-0.37952 -0.17309,0 -0.21776,-0.1594 -0.14163,-0.50608 0.13436,-0.61266 -0.17763,-0.68404 -0.33859,-0.0774 -0.0947,0.35711 -0.15618,0.31007 -0.3685,-0.28196 -0.14018,-0.39081 -0.25232,-0.89681 -0.24925,-1.12446 0.005,-0.37105 0.0294,-0.36848 0.2359,0.025 0.12673,0.24136 0.2812,0.36527 0.34336,0.27537 0.0622,-0.0899 0.42224,-0.0167 0.80018,0.16461 0.61496,0.29363 0.6656,0.37932 0.48182,0.81542 -0.16745,0.39753 -0.1489,0.5479 0.10073,0.81609 0.16836,0.18089 0.30606,0.40162 0.30606,0.49064 0,0.30978 -0.48326,0.15941 -0.69956,-0.21765 z m -2.03766,-1.1515 c -0.10109,-0.14626 -0.33983,-0.28292 -0.53052,-0.30372 -0.19068,-0.0209 -0.3467,-0.17484 -0.3467,-0.34253 0,-0.16754 0.10491,-0.24651 0.23318,-0.17526 0.1489,0.0826 0.23319,-0.0634 0.23319,-0.40366 0,-0.63335 0.10727,-0.66715 0.46672,-0.14709 0.14672,0.21233 0.2223,0.55392 0.16781,0.7591 -0.0605,0.22838 0.004,0.37306 0.16818,0.37306 0.14691,0 0.21852,0.11392 0.15909,0.253 -0.13891,0.32525 -0.32032,0.32099 -0.55108,-0.0125 z m 0.11381,-0.76115 c 0,-0.1473 -0.0787,-0.19758 -0.1749,-0.11162 -0.0962,0.086 -0.17491,0.20656 -0.17491,0.26798 0,0.0613 0.0787,0.11162 0.17491,0.11162 0.0962,0 0.1749,-0.12059 0.1749,-0.26796 z m 2.95084,0.71077 c -0.0127,-0.0349 -0.0482,-0.291 -0.0796,-0.56933 -0.28561,-2.51867 -0.29375,-2.72782 -0.0995,-2.5541 0.11091,0.0991 0.20151,0.48973 0.20151,0.86804 0,0.37833 0.12254,0.94112 0.27248,1.25067 0.26781,0.55321 0.21581,1.06796 -0.10781,1.06796 -0.0906,0 -0.17455,-0.0284 -0.18691,-0.0632 z m -4.72163,-0.29521 c -0.0127,-0.0812 -0.0329,-0.23299 -0.0464,-0.33738 -0.0625,-0.48392 -0.31603,-0.78731 -0.54946,-0.6577 -0.14127,0.0785 -0.25674,0.0146 -0.25674,-0.14251 0,-0.17755 -0.16472,-0.22508 -0.43723,-0.12623 -0.46951,0.17047 -0.61771,-0.24782 -0.1749,-0.49366 0.14436,-0.0801 0.25614,-0.29154 0.24854,-0.46987 -0.0109,-0.2559 -0.0324,-0.25726 -0.10236,-0.006 -0.0487,0.17484 -0.16054,0.2535 -0.24854,0.17484 -0.088,-0.0787 -0.16,-0.0223 -0.16,0.12498 0,0.1473 -0.0787,0.26796 -0.1749,0.26796 -0.0962,0 -0.17491,-0.28465 -0.17491,-0.63256 0,-0.34793 -0.0787,-0.63259 -0.1749,-0.63259 -0.0962,0 -0.17491,0.22774 -0.17491,0.50607 0,0.27833 -0.0756,0.50606 -0.16781,0.50606 -0.0924,0 -0.15127,-0.3322 -0.13109,-0.73822 0.0273,-0.54998 0.12054,-0.72919 0.36557,-0.70275 0.18091,0.0188 0.40965,0.22252 0.50834,0.45113 0.10145,0.2352 0.31806,0.36322 0.49873,0.29489 0.22461,-0.0851 0.37079,0.0751 0.49297,0.5401 0.0954,0.36351 0.25432,0.66091 0.3529,0.66091 0.25332,0 0.22319,-0.44117 -0.0394,-0.57685 -0.12018,-0.0622 -0.15364,-0.21298 -0.0744,-0.33527 0.0806,-0.12414 0.22478,-0.0146 0.32651,0.24874 0.14708,0.38026 0.21146,0.40425 0.33399,0.12436 0.10054,-0.22943 0.15272,-0.24476 0.15436,-0.0455 0.002,0.16566 -0.076,0.37174 -0.17218,0.45774 -0.32414,0.28983 -0.18036,0.66922 0.1892,0.49949 0.30437,-0.13979 0.35457,-0.0732 0.30606,0.40594 -0.0516,0.5093 -0.46119,1.0114 -0.51711,0.63384 z m -3.03876,-0.90668 c -0.0595,-0.13917 -0.0247,-0.25304 0.0771,-0.25304 0.10181,0 0.18521,0.11392 0.18521,0.25304 0,0.13916 -0.0347,0.25302 -0.0771,0.25302 -0.0424,0 -0.12581,-0.11392 -0.18521,-0.25302 z m 4.24113,-1.22204 c -1.12261,-0.53507 -1.88008,-1.03009 -1.88008,-1.2287 0,-0.43648 0.004,-0.43536 1.15357,0.29996 0.54377,0.34792 1.07725,0.63405 1.18552,0.63582 0.10818,0.001 0.59035,0.2775 1.07132,0.61264 1.21435,0.84621 0.68318,0.73524 -1.53033,-0.31972 z m -4.75888,-0.8338 c 0.074,-0.33734 0.0294,-0.61873 -0.11945,-0.75523 -0.18882,-0.17317 -0.17909,-0.21836 0.0473,-0.22143 0.38144,-0.004 0.74093,0.65633 0.61487,1.13153 -0.0558,0.21052 -0.22734,0.38276 -0.38113,0.38276 -0.20551,0 -0.24836,-0.1425 -0.16163,-0.53763 z m 0.36108,-0.40594 c -0.0582,-0.0841 -0.0994,0.0653 -0.0918,0.3321 0.009,0.29475 0.05,0.35471 0.10564,0.15293 0.0505,-0.18277 0.0442,-0.4009 -0.0145,-0.48497 z m -1.59227,0.22776 c -0.37924,-0.48353 -0.78702,-1.41181 -0.78702,-1.79166 0,-0.1304 0.23911,-0.0645 0.53135,0.14647 0.38839,0.28031 0.50412,0.50762 0.43012,0.84492 -0.0556,0.25379 -0.0193,0.53466 0.0807,0.62417 0.10363,0.0926 0.18199,-0.0618 0.18199,-0.35826 0,-0.28655 0.0787,-0.52098 0.17491,-0.52098 0.0962,0 0.1749,0.34157 0.1749,0.75908 0,0.86201 -0.26505,0.96179 -0.78703,0.2963 z m 2.92946,-0.4205 c -0.58317,-0.36671 -0.76766,-0.88792 -0.31429,-0.88792 0.43786,0 1.14503,0.57203 1.14503,0.92622 0,0.41871 -0.11218,0.41356 -0.83074,-0.0384 z m 2.05498,-0.7614 c 0,-0.20877 -0.0918,-0.37957 -0.20403,-0.37957 -0.11218,0 -0.16291,-0.0597 -0.11254,-0.13248 0.0504,-0.0728 0.22088,-0.0607 0.37893,0.0269 0.31009,0.17213 0.40018,0.86449 0.11255,0.86449 -0.0962,0 -0.17491,-0.17088 -0.17491,-0.37954 z m -6.35722,-0.24493 c -0.0542,-0.20426 -0.0322,-0.43076 0.0489,-0.50322 0.0811,-0.0726 0.18831,0.0947 0.23834,0.37144 0.10455,0.57844 -0.13908,0.69023 -0.28717,0.13186 z m 2.31394,-0.13124 c -1.84888,-1.08717 -2.12677,-1.28234 -2.02844,-1.42459 0.17199,-0.24883 2.88624,1.16811 2.99049,1.56113 0.12218,0.46062 0.0316,0.44777 -0.96205,-0.13645 z m 3.02892,-0.054 c -0.11545,-0.16692 -0.20988,-0.39471 -0.20988,-0.50605 0,-0.37282 0.26341,-0.2076 0.4841,0.30362 0.23915,0.55405 0.0602,0.68619 -0.27422,0.20238 z m 4.33732,-0.2124 c 0,-0.42868 0.0413,-0.46081 0.24399,-0.18987 0.2517,0.33661 0.21016,0.70584 -0.0795,0.70584 -0.0906,0 -0.16454,-0.23222 -0.16454,-0.51606 z m -5.14411,-0.0693 c -0.18182,-0.19237 -0.25583,-0.41647 -0.16455,-0.49812 0.23069,-0.20634 0.64368,0.2028 0.56214,0.55675 -0.048,0.20822 -0.16109,0.19153 -0.39761,-0.0586 z m -0.7235,-0.15356 c 0.0547,-0.1279 -0.19646,-0.37189 -0.55807,-0.54208 -0.36159,-0.17025 -0.81487,-0.46667 -1.00725,-0.65883 -0.31834,-0.31801 -0.28803,-0.33804 0.33696,-0.22289 0.37771,0.0697 0.73187,0.22287 0.78703,0.34061 0.13891,0.29671 0.75456,0.60713 0.63117,0.31828 -0.0545,-0.1279 -0.0195,-0.30418 0.0784,-0.39158 0.0978,-0.0874 0.17781,0.008 0.17781,0.21486 0,0.5741 -0.19361,1.17426 -0.37882,1.17426 -0.0916,0 -0.12182,-0.10474 -0.0671,-0.23263 z m 5.27931,-0.14835 c -0.0609,-0.22967 5.5e-4,-0.37808 0.15654,-0.37808 0.28287,0 0.34721,0.39538 0.10036,0.61616 -0.0862,0.077 -0.2017,-0.03 -0.25684,-0.23808 z m -2.74922,-11.61196 c -0.26116,-0.36011 -7.45438,-4.04846 -8.51365,-4.36541 -2.35757,-0.70536 -1.70734,0.004 1.49213,1.62677 3.68425,1.86921 7.45858,3.34133 7.02152,2.73864 z m 1.16442,-16.31597 c -0.12999,-0.30423 -0.80007,-0.53955 -0.80007,-0.28098 0,0.22848 0.30834,0.45225 0.66617,0.48348 0.12599,0.0104 0.18617,-0.0803 0.13399,-0.20259 z"
     id="path9680"
     inkscape:connector-curvature="0" />
</svg>
