<?xml version="1.0" encoding="UTF-8" standalone="no"?>
<svg
   xmlns:dc="http://purl.org/dc/elements/1.1/"
   xmlns:cc="http://creativecommons.org/ns#"
   xmlns:rdf="http://www.w3.org/1999/02/22-rdf-syntax-ns#"
   xmlns:svg="http://www.w3.org/2000/svg"
   xmlns="http://www.w3.org/2000/svg"
   xmlns:xlink="http://www.w3.org/1999/xlink"
   xmlns:sodipodi="http://sodipodi.sourceforge.net/DTD/sodipodi-0.dtd"
   xmlns:inkscape="http://www.inkscape.org/namespaces/inkscape"
   style="font-size:12px;font-style:normal;font-weight:normal;fill:#000000;fill-opacity:1;stroke:#000000;stroke-width:1;stroke-linecap:square;stroke-linejoin:miter;stroke-miterlimit:10;stroke-opacity:1;stroke-dasharray:none;stroke-dashoffset:0;font-family:Dialog"
   width="325"
   height="200"
   id="svg12099"
   version="1.1"
   inkscape:version="0.48.4 r9939"
   sodipodi:docname="contact.svg">
  <metadata
     id="metadata21211">
    <rdf:RDF>
      <cc:Work
         rdf:about="">
        <dc:format>image/svg+xml</dc:format>
        <dc:type
           rdf:resource="http://purl.org/dc/dcmitype/StillImage" />
        <dc:title></dc:title>
      </cc:Work>
    </rdf:RDF>
  </metadata>
  <sodipodi:namedview
     pagecolor="#ffffff"
     bordercolor="#666666"
     borderopacity="1"
     objecttolerance="10"
     gridtolerance="10"
     guidetolerance="10"
     inkscape:pageopacity="0"
     inkscape:pageshadow="2"
     inkscape:window-width="1366"
     inkscape:window-height="715"
     id="namedview21209"
     showgrid="false"
     fit-margin-top="1"
     fit-margin-bottom="1"
     fit-margin-left="1"
     fit-margin-right="1"
     inkscape:zoom="1.1818986"
     inkscape:cx="386.07304"
     inkscape:cy="91.982809"
     inkscape:window-x="-8"
     inkscape:window-y="-8"
     inkscape:window-maximized="1"
     inkscape:current-layer="svg12099" />
  <!--Generated by Alchemy (http://al.chemy.org) with Batik SVG Generator-->
  <defs
     id="genericDefs">
    <linearGradient
       inkscape:collect="always"
       xlink:href="#linearGradient1218"
       id="linearGradient21790"
       gradientUnits="userSpaceOnUse"
       spreadMethod="pad"
       x1="928.83081"
       y1="362.13239"
       x2="936.25269"
       y2="377.9021" />
  </defs>
  <path
     style="fill:#000000;stroke-width:0.22506852"
     d=""
     id="path9550"
     inkscape:connector-curvature="0" />
  <path
     style="fill:#000000;stroke-width:0.22506852"
     d=""
     id="path9548"
     inkscape:connector-curvature="0" />
  <path
     style="fill:#000000;stroke-width:0.23343937"
     d="m 97.429544,198.9264 c -1.51991,-0.084 -3.28161,-0.26469 -3.9149,-0.4015 -0.63329,-0.1368 -1.87685,-0.39879 -2.76346,-0.5822 -3.3002,-0.6827 -8.9146,-2.99306 -11.30971,-4.65404 -0.56859,-0.39431 -1.12372,-0.71693 -1.23361,-0.71693 -0.1099,0 -0.70057,-0.60107 -1.31261,-1.33572 -0.61204,-0.73465 -1.29415,-1.50372 -1.51581,-1.70903 -0.22165,-0.20531 -0.403,-0.50936 -0.403,-0.67566 0,-0.1663 -0.0783,-0.30236 -0.17407,-0.30236 -0.37535,0 -0.73201,-1.38766 -0.80585,-3.13539 -0.0559,-1.32292 2.3e-4,-1.83392 0.20174,-1.83392 0.39462,0 0.52525,-0.51268 0.26351,-1.03425 -0.12218,-0.24346 -0.13408,-0.39018 -0.0265,-0.32605 0.10763,0.0641 0.40173,-0.0891 0.65354,-0.34059 0.45695,-0.4563 0.45695,-0.45686 0,-0.28039 -0.37801,0.14599 -0.41107,0.11752 -0.18957,-0.16327 0.14755,-0.18705 0.25118,-0.43771 0.23029,-0.55701 -0.0208,-0.1193 0.11745,-0.26052 0.30744,-0.31381 0.30705,-0.0861 0.30705,-0.0666 0,0.17577 -0.30705,0.24236 -0.30705,0.26137 0,0.17095 0.18999,-0.056 0.32874,-0.25041 0.30834,-0.43213 -0.0205,-0.18172 -0.16336,-1.36931 -0.31769,-2.63908 -0.43094,-3.54566 -0.19996,-5.31501 1.02817,-7.87606 0.56421,-1.17655 1.2635,-2.34789 1.55398,-2.60297 0.50076,-0.43972 0.51044,-0.44028 0.18669,-0.0109 -0.32184,0.42682 -0.31169,0.43654 0.17669,0.16915 0.47705,-0.2612 0.62489,-0.54984 0.53971,-1.0537 -0.0181,-0.10728 0.0732,-0.12762 0.20302,-0.0452 0.12979,0.0824 0.23599,0.0511 0.23599,-0.0696 0,-0.32113 1.92638,-2.24732 2.93286,-2.93257 2.82516,-1.92349 3.83368,-2.50133 6.01129,-3.44425 3.79603,-1.6437 6.5212,-2.20287 11.436357,-2.3466 6.624809,-0.19373 10.613689,0.65185 15.855479,3.36112 1.62764,0.84126 3.0381,1.47955 3.13435,1.41843 0.0962,-0.0611 0.5529,0.27718 1.01479,0.7518 1.34587,1.38295 2.78843,1.04291 1.51835,-0.35792 -0.4669,-0.51497 -0.78554,-0.60956 -1.77576,-0.52714 -0.59712,0.0497 -0.68977,-0.34181 -0.15381,-0.65001 0.32622,-0.18759 0.3288,-0.29401 0.0246,-1.01745 -0.67298,-1.60034 -0.80254,-1.67472 -2.23123,-1.28096 -0.69661,0.192 -1.6811,0.33944 -2.18773,0.32765 -0.87325,-0.0203 -0.84929,-0.0381 0.46057,-0.34182 0.75995,-0.1762 1.63265,-0.32502 1.93932,-0.3307 0.30667,-0.006 0.74444,-0.18409 0.97282,-0.39646 0.38459,-0.35764 0.46155,-0.35496 1.04267,0.0363 0.42788,0.28808 0.65557,0.33563 0.71595,0.1495 0.0487,-0.15011 0.26125,-0.26452 0.47235,-0.25424 0.23935,0.0116 0.27547,0.0636 0.0959,0.13803 -0.49021,0.20326 -0.31661,0.49321 0.2309,0.38566 0.28532,-0.056 0.82938,0.0205 1.20901,0.17015 l 0.69026,0.27205 -0.66326,0.54685 c -0.59965,0.4944 -0.62173,0.56048 -0.23029,0.68907 0.23814,0.0782 0.86334,0.54723 1.38934,1.04223 l 0.95637,0.90001 0.26494,-0.90865 c 0.14571,-0.49976 0.19382,-1.14353 0.1069,-1.43062 l -0.15805,-0.52197 0.545,0.47326 c 0.29973,0.2603 0.65031,0.59482 0.77903,0.74338 0.37933,0.43776 2.19848,1.53319 2.71629,1.63567 0.26271,0.052 0.55254,0.21902 0.64407,0.37118 0.0915,0.15216 0.3323,0.21124 0.53506,0.13129 0.20278,-0.08 0.36868,-0.0422 0.36868,0.0838 0,0.12606 -0.16408,0.22921 -0.36463,0.22921 -0.20053,0 -0.32183,0.13187 -0.26955,0.29306 0.11819,0.36432 2.17217,1.03228 3.85822,1.25469 0.69662,0.0919 1.39498,0.27249 1.55192,0.40134 0.15693,0.12883 0.67508,0.16787 1.15144,0.0867 l 0.8661,-0.14752 -0.69086,0.4106 c -0.6572,0.39059 -0.66562,0.41456 -0.17272,0.4921 0.60506,0.0952 0.63817,0.30689 0.1879,1.20159 -0.73187,1.45428 -1.59448,1.50227 -1.61691,0.09 -0.01,-0.6262 -0.0712,-0.65715 -1.8526,-0.93648 -1.01327,-0.15888 -2.25682,-0.44778 -2.76345,-0.64198 -1.28337,-0.49196 -5.32007,-0.54994 -6.15167,-0.0884 -0.46965,0.26067 -0.55923,0.41411 -0.36079,0.618 0.14518,0.14919 0.18538,0.352 0.0893,0.45069 -0.096,0.0987 -0.27493,-0.005 -0.39751,-0.22978 -0.12258,-0.22508 -0.4516,-0.53148 -0.73116,-0.68089 -0.48472,-0.25905 -0.48223,-0.24253 0.0539,0.35632 0.3092,0.34538 0.5962,0.86563 0.63778,1.15612 0.0416,0.29049 0.23402,0.87455 0.42766,1.29791 0.21924,0.47936 0.36673,1.55476 0.39093,2.85053 0.0346,1.85247 -0.0331,2.23185 -0.61682,3.45786 -0.36062,0.7574 -0.97899,1.69903 -1.37414,2.0925 -1.2147,1.20951 -2.93046,2.54272 -3.27232,2.54272 -0.17862,0 -0.32476,0.0978 -0.32476,0.21728 0,0.11951 -0.0698,0.4042 -0.15513,0.63267 -0.12616,0.33785 -0.0724,0.3808 0.28787,0.2301 0.24365,-0.10189 0.59843,-0.20778 0.78842,-0.23528 0.18999,-0.0275 0.50088,-0.11342 0.69086,-0.19091 0.53857,-0.21965 1.17298,-0.12899 1.08208,0.15464 -0.0452,0.141 -0.33304,0.38789 -0.63969,0.54866 -0.30664,0.16077 -0.48476,0.29387 -0.39581,0.29579 0.089,0.002 -0.0924,0.28525 -0.40301,0.62963 -0.3106,0.34437 -0.56473,0.69383 -0.56473,0.77655 0,0.0827 -0.44465,0.28533 -0.98813,0.45022 -0.70146,0.21283 -0.99795,0.43377 -1.02198,0.76156 -0.0405,0.552 0.34445,0.59236 1.01901,0.10686 0.27478,-0.19777 0.67106,-0.28473 0.89503,-0.19642 0.27218,0.10733 0.34869,0.07 0.23704,-0.11565 -0.10536,-0.17518 -0.0439,-0.22644 0.17019,-0.14202 0.59777,0.23571 2.23595,-0.84533 3.85916,-2.54669 0.87279,-0.91481 1.58689,-1.76842 1.58689,-1.89693 0,-0.12849 0.20585,-0.50252 0.45744,-0.83119 0.25159,-0.32866 0.40092,-0.69153 0.33185,-0.80638 -0.0691,-0.11485 -0.0288,-0.20882 0.0895,-0.20882 0.3239,0 0.70516,-1.75751 0.76999,-3.54951 0.0263,-0.72828 -0.15912,-1.49858 -0.58676,-2.43712 -0.34711,-0.76178 -0.56556,-1.56564 -0.49103,-1.80692 0.0926,-0.2998 -0.14731,-0.73577 -0.77328,-1.40522 -0.68698,-0.73472 -0.87478,-1.09921 -0.77283,-1.49985 0.0741,-0.2911 0.17699,-0.39891 0.22868,-0.23958 0.0516,0.15932 0.47395,0.29132 0.93836,0.29331 1.0881,0.005 1.53449,0.29438 1.32488,0.85987 -0.13021,0.35129 -0.10494,0.37944 0.12764,0.1422 0.15949,-0.16269 0.48447,-0.29579 0.72216,-0.29579 0.35661,0 0.42157,0.15511 0.37165,0.88737 -0.0333,0.48806 -0.15754,1.02049 -0.27613,1.18317 -0.14036,0.19254 -0.12539,0.29579 0.0429,0.29579 0.14217,0 0.25849,0.15444 0.25849,0.3432 0,0.18875 0.17949,0.4464 0.39885,0.57255 0.36089,0.20753 0.32801,0.31995 -0.34543,1.18105 -0.65009,0.83125 -0.74429,1.12837 -0.74429,2.34776 0,3.49373 -1.9876,6.56379 -6.25284,9.65816 -0.96923,0.70316 -1.91512,1.27847 -2.10197,1.27847 -0.18686,0 -0.47267,0.16457 -0.63513,0.36572 -0.16246,0.20114 -0.41771,0.31748 -0.56723,0.25853 -0.14952,-0.059 -0.4179,-0.0116 -0.59639,0.1052 -0.22228,0.14546 -0.10318,0.18736 0.37794,0.13296 1.41481,-0.15998 4.51303,-2.07549 6.4637,-3.99624 2.43173,-2.39443 3.31155,-4.13071 3.56295,-7.03126 l 0.17522,-2.02154 -0.0623,2.36634 c -0.0709,2.69397 -0.52386,3.89875 -2.17105,5.77453 -0.56023,0.63797 -0.8628,1.18137 -0.78052,1.40173 0.10007,0.26795 0.0302,0.31876 -0.27362,0.19897 -0.48054,-0.18948 -2.20512,1.1015 -2.20512,1.65069 0,0.19196 -0.10382,0.2831 -0.23071,0.20251 -0.20593,-0.13078 -2.99332,1.45811 -2.99332,1.70629 0,0.0553 0.23316,0.0385 0.51815,-0.0373 0.28498,-0.0759 -0.14636,0.18971 -0.95853,0.5902 -1.94656,0.95986 -4.26788,1.72194 -6.8137,2.23692 -1.88095,0.38048 -3.0376,0.82272 -2.17623,0.83207 0.28476,0.003 0.28307,0.0412 -0.0115,0.25895 -0.29899,0.22101 -0.29521,0.23899 0.0281,0.13374 0.20546,-0.0669 0.85208,-0.19535 1.43695,-0.28547 0.58486,-0.0901 1.011,-0.25096 0.94697,-0.35742 -0.064,-0.10646 0.22201,-0.17897 0.63564,-0.16113 2.48722,0.10727 6.40044,-0.78549 8.12771,-1.85426 1.42239,-0.88012 1.60096,-0.95281 1.36111,-0.55403 -0.11322,0.18825 -0.025,0.18789 0.31901,-0.001 0.26156,-0.14383 0.55303,-0.39405 0.64772,-0.55604 0.11253,-0.19248 0.0352,-0.18036 -0.22302,0.035 -0.21737,0.18123 -0.42742,0.28771 -0.46679,0.23663 -0.0394,-0.0511 0.74035,-0.89188 1.73273,-1.86844 0.99237,-0.97655 1.80431,-1.72012 1.80431,-1.65236 0,0.0677 -0.46256,0.66652 -1.02792,1.33061 -0.56535,0.66409 -0.96259,1.27456 -0.88277,1.35659 0.0798,0.082 -0.0534,0.15077 -0.29624,0.15276 -0.32602,0.003 -0.36194,0.0554 -0.13742,0.20167 0.2289,0.14913 0.11516,0.36219 -0.46058,0.86269 -0.4205,0.36556 -0.73603,0.76201 -0.70118,0.88102 0.0348,0.119 -0.13559,0.15148 -0.37874,0.0722 -0.25683,-0.0838 -0.59013,0.008 -0.79535,0.2188 -0.46155,0.47428 -0.70286,0.46249 -0.52066,-0.0254 0.12129,-0.32478 0.0876,-0.33942 -0.20565,-0.0893 -0.24225,0.2066 -0.35326,0.74744 -0.35898,1.74906 -0.0104,1.82128 -0.42764,2.38873 -2.64003,3.59039 -0.88662,0.48157 -1.8711,1.02158 -2.18774,1.20004 -0.31665,0.17845 -0.6977,0.32511 -0.84677,0.32592 -0.14907,4.5e-4 -1.08173,0.38986 -2.07259,0.86458 -0.99086,0.47472 -2.06063,0.89491 -2.37727,0.93376 -0.84202,0.10332 -5.12228,1.25514 -5.53089,1.48839 -0.19216,0.10969 -0.94964,0.21366 -1.68328,0.23103 -0.73363,0.0174 -1.50907,0.11183 -1.72319,0.20988 -0.21412,0.0981 -1.632869,0.10953 -3.152766,0.0255 z m 4.490616,-7.89279 c 0,-0.19522 -0.0407,-0.35494 -0.0905,-0.35494 -0.0498,0 -0.15015,0.15972 -0.22305,0.35494 -0.0729,0.19523 -0.0322,0.35495 0.0905,0.35495 0.12268,0 0.22306,-0.15972 0.22306,-0.35495 z m 6.5517,-0.3757 c 0.13817,-0.13635 0.13817,-0.22255 0,-0.23398 -0.24171,-0.02 -0.61915,-0.11147 -1.48536,-0.35991 -0.31665,-0.0908 -0.50293,-0.0835 -0.41397,0.0163 0.089,0.0998 0.0186,0.32848 -0.15626,0.50821 -0.41048,0.42178 -0.58121,0.4135 -0.58121,-0.0282 0,-0.19523 -0.13813,-0.35496 -0.30695,-0.35496 -0.22837,0 -0.36726,0.87268 -0.17282,1.0859 0.0999,0.10952 2.95088,-0.4699 3.11657,-0.63339 z m -8.771299,0.13907 c -0.0729,-0.19522 -0.37207,-0.35495 -0.66481,-0.35495 -0.29273,0 -0.7004,-0.0663 -0.90593,-0.14735 -0.2448,-0.0965 -0.35058,-0.0353 -0.30669,0.17748 0.0368,0.17865 0.42969,0.38957 0.873,0.46872 0.4433,0.0791 0.88047,0.159 0.9715,0.17747 0.091,0.0185 0.10583,-0.12615 0.033,-0.32137 z m 4.397499,0.13467 c 0.0729,-0.12116 0.0111,-0.29734 -0.13713,-0.39151 -0.16325,-0.10367 -0.20809,-0.0689 -0.11365,0.0881 0.10119,0.16824 -0.18963,0.29123 -0.828,0.35017 l -0.98397,0.0909 0.96513,0.0414 c 0.53083,0.0228 1.02475,-0.0578 1.09762,-0.17894 z m -7.167476,-0.25298 c -0.10555,-0.13015 -0.21781,-0.23664 -0.24947,-0.23664 -1.04541,0 -1.08564,0.0127 -0.74844,0.23664 0.46262,0.3072 1.24705,0.3072 0.99791,0 z m 5.968306,-0.15672 c -0.15833,-0.0657 -0.4174,-0.0657 -0.57573,0 -0.15832,0.0656 -0.0288,0.11935 0.28787,0.11935 0.31664,0 0.44618,-0.0537 0.28786,-0.11935 z m -22.165246,-6.17547 c 0,-0.0988 -0.23316,-0.32689 -0.51814,-0.50679 -0.51631,-0.32591 -0.51659,-0.32528 -0.0795,0.17971 0.46935,0.5422 0.5976,0.61239 0.5976,0.32708 z m -2.91427,-2.07852 c -0.075,-0.20083 -0.18576,-0.3144 -0.24612,-0.25237 -0.0604,0.062 -0.0414,0.22634 0.042,0.36516 0.22708,0.37753 0.3598,0.30419 0.20409,-0.11279 z m 27.736906,0.12312 c 2.24114,-0.24257 4.03793,-0.57093 5.11483,-0.93471 0.31665,-0.10697 1.1975,-0.3812 1.95745,-0.60941 2.01564,-0.60526 5.28972,-2.41636 6.157,-3.40581 3.14109,-3.58355 3.43768,-4.13727 3.5239,-6.57881 0.0495,-1.40184 0.0209,-1.72778 -0.0883,-1.00743 l -0.16147,1.06485 -0.18404,-1.18317 c -0.21574,-1.38686 -1.04253,-3.33421 -1.72451,-4.06176 -0.2641,-0.28175 -0.54741,-0.78755 -0.6296,-1.12401 -0.0822,-0.33647 -0.25125,-0.61176 -0.37571,-0.61176 -0.12445,0 -0.65002,-0.37269 -1.16793,-0.82821 -0.5179,-0.45552 -1.07843,-0.82822 -1.24562,-0.82822 -0.16719,0 -0.30398,-0.0892 -0.30398,-0.19824 0,-0.18803 -1.77286,-1.15509 -3.39675,-1.85286 -1.09561,-0.47076 -0.9143,-0.17226 0.23029,0.37915 0.80379,0.38723 0.87853,0.47305 0.41814,0.48014 -0.30832,0.005 -1.01556,0.23496 -1.57164,0.51157 -0.81295,0.40439 -1.06408,0.44393 -1.28172,0.20181 -0.21285,-0.2368 -0.18615,-0.27061 0.12496,-0.15831 0.2176,0.0785 0.46678,0.0245 0.55373,-0.12006 0.10297,-0.1712 0.0517,-0.19532 -0.1469,-0.0692 -0.22147,0.14064 -0.26473,0.0858 -0.15796,-0.20007 0.20643,-0.55277 -0.19382,-0.49007 -0.74379,0.11653 -0.45723,0.50429 -0.47971,0.50561 -1.90885,0.11188 -6.15844,-1.69665 -13.208016,-1.25395 -19.293516,1.21159 -0.82328,0.33356 -1.75132,0.77618 -2.06231,0.98363 -0.58454,0.38989 -1.67897,0.5445 -1.47696,0.20863 0.16585,-0.27575 -0.55995,-0.95345 -0.83444,-0.77913 -0.12763,0.081 -0.23205,0.0908 -0.23205,0.0217 0,-0.0691 0.64702,-0.55768 1.43784,-1.0857 l 1.43784,-0.96004 0.1873,0.74274 c 0.22133,0.87765 0.41295,0.78651 0.44051,-0.20952 0.014,-0.50663 0.17603,-0.78554 0.56099,-0.96577 0.33846,-0.15846 0.54128,-0.16665 0.54128,-0.0219 0,0.12735 -0.14933,0.23156 -0.33184,0.23156 -0.18251,0 -0.40598,0.12326 -0.49659,0.2739 -0.11287,0.18768 -0.008,0.2319 0.33185,0.14047 0.41298,-0.11097 0.50073,-0.0276 0.52125,0.49516 0.0171,0.43743 0.0924,0.30476 0.24747,-0.43627 0.12254,-0.58566 0.39643,-1.20497 0.60863,-1.37624 0.64853,-0.52344 -0.79099,-0.0803 -2.37764,0.73186 -2.62656,1.34452 -5.96836,4.13474 -5.7268,4.78156 0.0639,0.17104 -0.0106,0.39145 -0.16543,0.48981 -0.18006,0.11434 -0.22233,0.0803 -0.11726,-0.0944 0.0904,-0.15025 0.1085,-0.2732 0.0403,-0.2732 -0.0682,0 -0.35132,0.45257 -0.62908,1.0057 -0.75142,1.49639 -0.85568,4.37034 -0.22104,6.09332 1.77598,4.82159 8.56566,8.63605 17.067157,9.58837 3.425349,0.3837 4.820889,0.4037 7.551019,0.10819 z m -7.163749,-2.04186 c -0.29616,-0.30432 -0.15886,-1.91595 0.18846,-2.21213 0.29815,-0.25428 0.34494,-0.153 0.3419,0.74007 -0.003,1.06435 -0.25315,1.75691 -0.53036,1.47206 z m 5.082359,-1.07858 c -0.38634,-0.74999 -0.55025,-1.31382 -0.42065,-1.447 0.1296,-0.13317 0.48971,0.34641 0.92417,1.23079 0.88582,1.80315 0.41756,2.00421 -0.50352,0.21621 z m 0.99023,-0.0877 c -0.72662,-1.17734 -0.84113,-1.51912 -0.50897,-1.51912 0.25355,0 1.50205,2.3592 1.33782,2.52796 -0.0694,0.0713 -0.44239,-0.38266 -0.82885,-1.00884 z m 1.1158,0.3148 c -0.1705,-0.42299 -0.30233,-0.8223 -0.29294,-0.88738 0.009,-0.0651 -0.14866,-0.24426 -0.35122,-0.39818 -0.27818,-0.21139 -0.30346,-0.34748 -0.1033,-0.55624 0.20142,-0.2101 0.29743,-0.17135 0.40025,0.16154 0.0744,0.24086 0.1328,0.52159 0.1298,0.62385 -0.003,0.10227 0.15367,0.34946 0.34819,0.54933 0.30792,0.31641 0.5083,1.27613 0.26645,1.27613 -0.048,0 -0.22672,-0.34607 -0.39723,-0.76905 z m 0.95249,0.0735 c -0.15895,-0.30518 -0.16167,-0.50804 -0.008,-0.60556 0.12699,-0.0806 0.2309,-0.0339 0.2309,0.10396 0,0.48917 0.0471,0.60757 0.30985,0.7794 0.1967,0.12862 0.19308,0.17479 -0.0139,0.17748 -0.15385,0.002 -0.3873,-0.20289 -0.51876,-0.45528 z m -0.78425,-1.44703 c -0.32058,-0.55764 -0.33642,-0.69704 -0.0792,-0.69704 0.36468,0 0.93408,1.10565 0.65927,1.28017 -0.0986,0.0627 -0.35966,-0.19976 -0.58005,-0.58313 z m -13.251106,0.13118 c 0.0239,-0.44824 0.40779,-1.20301 0.42116,-0.82822 0.007,0.19523 -0.0878,0.51468 -0.21057,0.70991 -0.12279,0.19521 -0.21755,0.24846 -0.21059,0.11831 z m 16.791336,-1.26204 c 0,-0.15185 -0.23317,-0.28843 -0.51815,-0.30353 -0.42649,-0.0226 -0.44253,-0.0475 -0.0907,-0.14051 0.45935,-0.12149 1.02597,0.29146 0.76619,0.5584 -0.0866,0.0889 -0.15736,0.0375 -0.15736,-0.11436 z m -16.599116,-0.41713 c -0.28097,-0.34788 -0.1021,-0.77003 0.52241,-1.23301 0.22941,-0.17007 0.4171,-0.4629 0.4171,-0.65074 0,-0.18784 0.10728,-0.34153 0.2384,-0.34153 0.15433,0 0.14269,0.18374 -0.033,0.52111 -0.20221,0.38823 -0.20427,0.54411 -0.008,0.6113 0.14481,0.0496 0.2633,0.33512 0.2633,0.63447 0,0.64063 -0.99088,0.96505 -1.40009,0.4584 z m 12.724346,-1.58979 c -0.27539,-0.30123 -0.50071,-0.72205 -0.50071,-0.93517 0,-0.55903 -1.89836,-1.85166 -2.31831,-1.57859 -0.1815,0.11802 -0.8186,0.21622 -1.41577,0.21821 -1.350319,0.005 -1.673189,-0.44755 -1.355919,-1.89849 0.259919,-1.18869 0.376189,-1.32422 0.815049,-0.94996 0.19348,0.16499 0.77085,0.2567 1.32972,0.2112 l 0.98778,-0.0804 -0.0426,0.88738 c -0.0311,0.64892 0.0498,0.88738 0.30145,0.88738 0.20139,0 0.2759,0.11326 0.17969,0.2732 -0.10148,0.16872 -0.0632,0.20898 0.1001,0.10527 0.31528,-0.20022 2.37582,1.50011 2.19076,1.8078 -0.0701,0.11644 0.0126,0.19197 0.18362,0.16785 0.17104,-0.0241 0.46642,-0.0296 0.65641,-0.0122 0.28731,0.0264 0.29188,0.0665 0.0271,0.2388 -0.25003,0.16272 -0.21299,0.24148 0.17271,0.36727 0.27006,0.0881 0.49101,0.27083 0.49101,0.40614 0,0.1353 0.16082,0.18259 0.35739,0.10507 0.20494,-0.0808 0.29738,-0.0411 0.2167,0.093 -0.28135,0.46777 -1.85125,0.26048 -2.37626,-0.31376 z M 87.067074,174.5884 c -0.0633,-0.10524 0.21113,-0.30822 0.60986,-0.45105 0.93283,-0.33415 0.99766,-0.32747 0.67688,0.0697 -0.32637,0.4041 -1.12984,0.64222 -1.28674,0.38136 z m -0.59061,-1.21163 c -0.28899,-0.55486 -0.28711,-0.55561 2.48183,-0.97925 1.81211,-0.27725 2.14001,-0.27645 2.24531,0.006 0.0678,0.1816 0.1233,0.36317 0.1233,0.40349 0,0.10629 -1.14066,0.38941 -2.04831,0.50839 -0.42995,0.0564 -1.18327,0.19519 -1.67406,0.30849 -0.76413,0.17643 -0.92618,0.141 -1.12807,-0.24663 z m 25.288516,-0.36572 c 0.15833,-0.0656 0.4174,-0.0656 0.57572,0 0.15833,0.0656 0.0288,0.11936 -0.28786,0.11936 -0.31664,0 -0.44618,-0.0537 -0.28786,-0.11936 z m -30.399176,-2.11112 c -0.22228,-0.63984 -0.40363,-1.46228 -0.40301,-1.82762 10e-4,-0.96853 0.48374,-2.78087 0.70271,-2.6418 0.10327,0.0656 0.24892,0.0176 0.32366,-0.10671 0.0747,-0.12428 0.34098,-0.18537 0.59163,-0.13577 0.25066,0.0496 0.45574,0.0165 0.45574,-0.0737 0,-0.0901 0.24917,-0.16389 0.55373,-0.16389 0.58054,0 0.56195,0.16587 -0.10609,0.94654 -0.76758,0.89698 -1.43362,2.52348 -1.57374,3.84318 l -0.14049,1.32314 z m 6.67949,-0.27439 c -1.03547,-0.0468 -1.78473,-0.18429 -1.78473,-0.32752 0,-0.27366 3.23087,-0.0465 4.03004,0.28332 0.46058,0.19009 0.46058,0.19009 0,0.15748 -0.25331,-0.018 -1.2637,-0.0689 -2.24531,-0.11328 z m 1.0308,-0.78217 c -1.86227,-0.34371 -2.96441,-0.69837 -2.17027,-0.69837 0.14379,0 0.20581,-0.14896 0.13782,-0.33102 -0.21671,-0.58032 0.34441,-0.66776 2.3968,-0.37355 2.50084,0.3585 2.61072,0.41967 2.14026,1.19169 l -0.36894,0.60543 z m 0.52365,-0.46174 c -0.25331,-0.11185 -0.77146,-0.19684 -1.15144,-0.18885 -0.6746,0.0142 -0.67189,0.0186 0.11514,0.18885 1.13052,0.24452 1.59007,0.24452 1.0363,0 z m 0,-0.47327 c 0.0848,-0.14105 -0.16548,-0.22711 -0.6197,-0.21304 -0.71645,0.0222 -0.72759,0.0349 -0.18631,0.21304 0.31665,0.1042 0.59552,0.20008 0.6197,0.21305 0.0242,0.013 0.10803,-0.0829 0.18631,-0.21305 z m 0.84919,0.075 c -0.16624,-0.0684 -0.36487,-0.06 -0.44138,0.0187 -0.0765,0.0786 0.0595,0.13455 0.30225,0.12428 0.26827,-0.0114 0.32284,-0.0674 0.13913,-0.14296 z m -2.76346,-0.47327 c -0.16624,-0.0683 -0.36486,-0.0599 -0.44139,0.0187 -0.0765,0.0786 0.0595,0.13456 0.30226,0.12429 0.26827,-0.0114 0.32284,-0.0674 0.13913,-0.14297 z m 14.834596,0.35807 c 0.11597,-0.19282 0.0327,-0.22535 -0.27427,-0.10717 -0.24243,0.0933 0.23281,-0.46924 1.05609,-1.25011 0.82328,-0.78088 1.36734,-1.4248 1.20901,-1.43095 -0.37628,-0.0146 -0.36417,-0.28673 0.0379,-0.85174 0.29853,-0.41951 0.32259,-0.37457 0.28786,0.53776 -0.0292,0.76686 -0.15691,1.06105 -0.55604,1.28075 -0.28498,0.15687 -0.51815,0.37999 -0.51815,0.49582 0,0.11584 0.12954,0.1351 0.28786,0.0428 0.15832,-0.0923 -0.0693,0.22087 -0.50575,0.69594 -0.75401,0.82064 -1.3812,1.17994 -1.02451,0.58691 z m 6.9996,-0.77135 c 0,-0.0651 0.20726,-0.2323 0.46058,-0.37161 0.25332,-0.1393 0.46057,-0.20004 0.46057,-0.13497 0,0.0651 -0.20725,0.2323 -0.46057,0.37161 -0.25332,0.1393 -0.46058,0.20004 -0.46058,0.13497 z m -0.69086,-0.47595 c 0,-0.0574 0.10363,-0.17017 0.23029,-0.25061 0.12665,-0.0804 0.23029,-0.0335 0.23029,0.10436 0,0.13782 -0.10364,0.25059 -0.23029,0.25059 -0.12666,0 -0.23029,-0.047 -0.23029,-0.10434 z m -17.098896,-1.03415 c -0.72829,-0.47945 -1.32415,-0.96202 -1.32415,-1.07238 0,-0.18596 2.06294,0.91197 3.10255,1.65123 0.45213,0.32151 0.45213,0.32294 0,0.30795 -0.24983,-0.008 -1.05011,-0.40734 -1.7784,-0.8868 z m 12.723416,0.67919 c 0,-0.13783 0.10363,-0.2506 0.23029,-0.2506 0.12666,0 0.23029,0.047 0.23029,0.10436 0,0.0574 -0.10363,0.17016 -0.23029,0.25059 -0.12666,0.0804 -0.23029,0.0335 -0.23029,-0.10435 z m 3.62076,0.0567 c -0.0577,-0.10393 0.39944,-0.5899 1.0158,-1.07993 1.19762,-0.95218 1.54049,-0.88923 0.48736,0.0895 -1.01752,0.9456 -1.39136,1.19193 -1.50316,0.99046 z m -15.480606,-1.25381 c -1.01325,-0.50028 -1.65836,-0.91792 -1.43354,-0.92807 0.40922,-0.0185 3.62128,1.54196 3.62128,1.75926 0,0.21122 -0.33161,0.0852 -2.18774,-0.83119 z m 5.181487,-1.00133 c -0.980437,-1.25767 -1.185677,-1.60164 -0.955657,-1.60164 0.12205,0 0.655727,0.53242 1.185947,1.18316 0.53022,0.65075 0.82485,1.17728 0.65474,1.17008 -0.17012,-0.007 -0.56838,-0.34542 -0.88503,-0.7516 z m 5.594809,0.23227 c 0.0669,-0.29284 0.17933,-0.78643 0.24992,-1.09687 0.1779,-0.78251 0.35076,-0.90144 0.33625,-0.23136 -0.0225,1.04144 -0.229,1.86065 -0.46892,1.86065 -0.13135,0 -0.18412,-0.23959 -0.11725,-0.53242 z m -18.862726,0.10298 c 0.0794,-0.13202 0.0194,-0.28283 -0.13328,-0.33513 -0.17221,-0.059 -0.12448,-0.1555 0.12566,-0.25414 0.24116,-0.0951 0.34675,-0.065 0.26263,0.0749 -0.20043,0.33323 0.19637,0.28979 0.56507,-0.0618 0.24522,-0.23388 0.27628,-0.23414 0.14839,-0.001 -0.089,0.16199 -0.37576,0.4122 -0.63731,0.55603 -0.28829,0.15855 -0.41869,0.16701 -0.33116,0.0215 z m 29.715586,-3.88116 c 0.21016,-0.12085 0.51658,-0.12085 0.72674,0 0.27055,0.15558 0.17775,0.20895 -0.36336,0.20895 -0.54112,0 -0.63393,-0.0534 -0.36338,-0.20895 z m 6.43621,15.42445 c 1.17169,-1.30045 2.2346,-2.97278 2.20736,-3.47299 -0.006,-0.10279 -0.21946,0.22069 -0.47525,0.71886 -0.25579,0.49816 -1.2616,1.76549 -2.23513,2.81627 -0.97354,1.05078 -1.55232,1.79265 -1.2862,1.6486 0.26611,-0.14407 1.07127,-0.9139 1.78922,-1.71074 z m 2.59889,-5.73493 c -0.0631,-0.16021 -0.11086,0.0282 -0.10617,0.41861 0.005,0.39044 0.0563,0.52152 0.1147,0.29128 0.0584,-0.23023 0.0545,-0.54969 -0.009,-0.70989 z m 2.9825,-1.70563 c -0.21408,-0.33573 -0.327,-0.71389 -0.25094,-0.84037 0.0761,-0.12647 -0.0821,-0.22995 -0.35154,-0.22995 l -0.48985,0 0.47626,0.68728 c 0.26194,0.37799 0.47626,0.87847 0.47626,1.11217 0,0.31993 0.0653,0.35776 0.26452,0.1531 0.19917,-0.20466 0.16836,-0.42262 -0.12471,-0.88223 z m -2.99442,-0.29636 c -0.0765,-0.0786 -0.13096,0.0612 -0.12096,0.31059 0.0111,0.27566 0.0656,0.33173 0.13913,0.14296 0.0665,-0.17082 0.0583,-0.37492 -0.0181,-0.45355 z m -1.39625,-4.07111 c -0.0835,-0.13882 -0.262,-0.25238 -0.3967,-0.25238 -0.1527,0 -0.13522,0.13577 0.0464,0.36067 0.31585,0.39106 0.59814,0.30379 0.35028,-0.10829 z m 0.42454,-2.48621 c -0.11922,-0.31922 -1.07032,-1.07904 -1.3507,-1.07904 -0.11134,0 1.29825,1.39504 1.42761,1.41286 0.0277,0.004 -0.007,-0.1464 -0.0769,-0.33382 z m -21.2751,-4.62121 1.72716,-0.16745 -1.8423,-0.0126 c -1.013269,-0.007 -2.464079,0.0667 -3.224039,0.16358 l -1.381727,0.17616 1.496867,0.004 c 0.82328,0.002 2.274099,-0.0715 3.224039,-0.16358 z m 3.97247,0.0726 c -0.15832,-0.0656 -0.4174,-0.0656 -0.57572,0 -0.15833,0.0656 -0.0288,0.11935 0.28786,0.11935 0.31665,0 0.44619,-0.0537 0.28786,-0.11935 z m 4.84085,31.72267 c 0.0765,-0.0786 0.27515,-0.087 0.44139,-0.0187 0.1837,0.0755 0.12913,0.13162 -0.13914,0.14297 -0.24276,0.0103 -0.37877,-0.0456 -0.30225,-0.12429 z m 11.91262,-4.40298 c 0,-0.20098 0.17241,-0.51156 0.38314,-0.69018 0.35046,-0.29707 0.35761,-0.27432 0.084,0.26682 -0.4012,0.7933 -0.46709,0.85301 -0.46709,0.42336 z m 0.69087,-1.35593 c 0,-0.13783 0.10363,-0.2506 0.23029,-0.2506 0.12665,0 0.23029,0.047 0.23029,0.10435 0,0.0574 -0.10364,0.17016 -0.23029,0.2506 -0.12666,0.0804 -0.23029,0.0335 -0.23029,-0.10435 z m 5.64205,-12.08228 c 0.0783,-0.13015 0.29778,-0.23663 0.48777,-0.23663 0.18998,0 0.28138,0.10648 0.2031,0.23663 -0.0783,0.13015 -0.29777,0.23663 -0.48776,0.23663 -0.18998,0 -0.28138,-0.10648 -0.20311,-0.23663 z m 5.8751,-2.93708 c 0.14987,-0.15399 0.31788,-0.14099 0.49217,0.0381 0.1993,0.20479 0.14313,0.2625 -0.22755,0.23382 -0.32416,-0.0251 -0.41449,-0.11792 -0.26462,-0.27191 z m -2.19049,-5.1248 c -0.37996,-0.11566 -0.96636,-0.45615 -1.30308,-0.75665 -0.50747,-0.45287 -0.56945,-0.62582 -0.36223,-1.0107 0.22517,-0.41822 0.21109,-0.43161 -0.14177,-0.13482 -0.603,0.50717 -0.7531,0.0931 -0.18965,-0.52317 0.69345,-0.75848 0.62946,-1.07879 -0.0789,-0.39499 -0.47382,0.45741 -0.63041,0.50243 -0.86358,0.24831 -0.22619,-0.24653 -0.2262,-0.33251 -3e-5,-0.41781 0.5566,-0.20991 1.3245,-0.97869 1.15362,-1.15492 -0.0955,-0.0985 -0.44065,0.0787 -0.767,0.39374 -0.89514,0.86411 -2.12029,0.7679 -4.35602,-0.34207 -1.01325,-0.50306 -2.07098,-1.12953 -2.35048,-1.39216 -0.37366,-0.35112 -0.69133,-0.43988 -1.20008,-0.33533 -0.38055,0.0782 -0.74659,0.0513 -0.81344,-0.0599 -0.23932,-0.39789 0.5206,-0.73115 1.96955,-0.86373 1.30069,-0.11902 1.42609,-0.0952 1.0703,0.20354 -0.22165,0.18609 -0.403,0.39757 -0.403,0.46995 0,0.26825 1.8894,-0.0352 2.26204,-0.36332 0.40739,-0.3587 1.19228,-0.70695 1.19228,-0.529 0,0.0576 -0.31089,0.27001 -0.69086,0.47191 -0.37998,0.20191 -0.69087,0.47954 -0.69087,0.61696 0,0.13743 0.3368,0.0419 0.74844,-0.21231 0.9053,-0.55904 2.36706,-0.95073 1.7444,-0.46743 -0.21217,0.16468 -0.71844,0.48909 -1.12506,0.72092 -1.09649,0.62514 -0.65872,0.75446 0.58429,0.1726 1.44792,-0.67778 1.78466,-0.49408 0.58707,0.32028 -1.16649,0.79323 -1.10114,1.08953 0.0821,0.37216 0.48986,-0.29698 1.00149,-0.44256 1.23365,-0.35102 0.31557,0.12444 0.17393,0.29887 -0.6928,0.85321 -1.15725,0.74012 -1.42977,1.06813 -0.57133,0.68763 0.28497,-0.12631 0.80312,-0.34627 1.15144,-0.48879 0.34831,-0.14252 0.63329,-0.41629 0.63329,-0.60839 0,-0.53489 4.33169,1.88586 5.23905,2.92782 0.80445,0.92379 0.97272,1.82472 0.38417,2.05679 -0.5207,0.20532 -2.62137,0.13846 -3.43549,-0.10934 z m -62.868676,-14.1817 c -0.0783,-0.13015 -0.0326,-0.23663 0.10156,-0.23663 0.13412,0 0.24387,0.10648 0.24387,0.23663 0,0.13015 -0.0457,0.23663 -0.10155,0.23663 -0.0558,0 -0.1656,-0.10648 -0.24388,-0.23663 z"
     id="path9631"
     inkscape:connector-curvature="0"
     sodipodi:nodetypes="cssssssssssscssccccccssscsccssssscsssscssscsscccsccssscsccssscssssscccssscscscccsccsssssscccccscssscssccssccscscscccsssccssssssssccssscssscscscssccsscsscscssssscccscccsscsccscscsccsssssccsccssccccsscccccccsscccccsccsssssssscscccccsssscsscsssssscssscccssssccsscscssscscssscccsssscccsccsssssscsccscsccscccsccccsscsccccsccsscsssscscccsccssccsscccccssscccccssccscsscccssssscsccsssscscscccsscsscssscsscscsccscccccccccscccssccccssscsscsssssscsssssscsscssssssscscscscccscccsccccscscsscscccccscscsscsccccccsccccscccccsccccssssccsccssssssscssssssccsccsssssssscsssscssssssssssssssssssssssssss" />
  <path
     style="fill:#000000;stroke-width:0.32607335"
     d="m 228.7508,199.05459 c -0.96553,-0.53805 -8.99944,-4.01475 -16.96999,-7.3438 -2.10602,-0.87962 -3.01968,-1.4226 -2.93834,-1.74622 0.065,-0.25832 0.16694,-1.95683 0.22672,-3.77449 0.0598,-1.81764 0.26224,-4.0484 0.44989,-4.95722 0.18765,-0.90883 0.49223,-2.61907 0.67685,-3.80054 0.8743,-5.59532 1.62898,-9.98287 1.80614,-10.50072 0.13479,-0.39395 0.0896,-0.46819 -0.14606,-0.23995 -0.18767,0.18177 -0.65153,1.89202 -1.0308,3.80054 -0.37927,1.90854 -0.82805,3.92443 -0.9973,4.47975 -0.34992,1.14823 -1.25476,10.66953 -1.26053,13.26415 -0.002,0.94355 -0.11239,1.78173 -0.2451,1.86264 -0.13271,0.0809 -1.10994,-0.27335 -2.17164,-0.78725 -1.06169,-0.51391 -2.12095,-0.94312 -2.35394,-0.95382 -0.23298,-0.0107 -2.05535,-0.76303 -4.04974,-1.67185 -1.99437,-0.90882 -3.83469,-1.65241 -4.08961,-1.65241 -0.2549,0 -1.52835,-0.52422 -2.82987,-1.16495 -2.38925,-1.17618 -4.47712,-1.86498 -5.65853,-1.86677 -1.10795,-0.002 -2.12392,-0.28184 -1.96712,-0.54245 0.0827,-0.13749 -0.0924,-0.2646 -0.38899,-0.28246 -0.29667,-0.0179 -1.22709,-0.0738 -2.06759,-0.12441 -0.8405,-0.0506 -1.52819,-0.21651 -1.52819,-0.3688 0,-0.1523 -0.29809,-0.27691 -0.66243,-0.27691 -0.36434,0 -0.57296,-0.14871 -0.4636,-0.33048 0.10936,-0.18176 -0.0268,-0.33048 -0.30273,-0.33048 -0.27586,0 -0.50158,-0.14705 -0.50158,-0.32678 0,-0.17973 -0.32574,-0.3149 -0.72388,-0.30039 -0.39813,0.0145 -1.37537,-0.0763 -2.17163,-0.20169 -0.79626,-0.12545 -1.88208,-0.26182 -2.41293,-0.30306 -0.53084,-0.0412 -1.29091,-0.10085 -1.68905,-0.13249 -0.39813,-0.0316 -0.72387,-0.20624 -0.72387,-0.388 0,-0.18177 0.32574,-0.34389 0.72387,-0.36029 0.52499,-0.0216 0.4145,-0.1206 -0.40215,-0.36027 -0.61932,-0.18176 -1.28602,-0.46611 -1.48157,-0.63188 -0.19553,-0.16577 -0.91942,-0.51368 -1.60861,-0.77312 -1.24362,-0.46816 -1.2458,-0.47206 -0.28791,-0.51595 1.03945,-0.0476 1.02131,-0.0616 -1.276,-0.98051 -0.65328,-0.26131 -0.82715,-0.46241 -0.55125,-0.63757 0.26725,-0.16966 -0.0616,-0.45829 -0.97607,-0.85671 -0.7585,-0.33046 -1.95819,-0.86391 -2.66599,-1.18543 -0.70779,-0.32154 -2.95181,-1.24932 -4.98671,-2.06175 -2.0349,-0.81244 -7.17444,-2.96056 -11.42119,-4.77363 -7.93273,-3.38672 -44.84672,-18.5365 -57.749387,-23.70079 -3.98133,-1.59352 -7.63042,-3.10336 -8.10909,-3.35516 -1.50583,-0.79219 -1.52197,-1.91294 -0.23273,-16.1541 0.82304,-9.09143 1.2465,-12.11436 1.78597,-12.74958 0.24371,-0.28696 0.4431,-0.68002 0.4431,-0.87346 0,-0.4452 0.8324,-0.78452 1.38763,-0.56565 0.23234,0.0916 0.68911,-0.13616 1.01503,-0.5061 0.63065,-0.71583 1.32989,-0.93128 0.94472,-0.29107 -0.14337,0.23828 -0.0882,0.29175 0.14712,0.1424 0.20717,-0.13153 0.30437,-0.35933 0.21599,-0.50622 -0.0883,-0.14689 0.88649,-0.96997 2.16639,-1.82906 1.27989,-0.85908 7.68378,-5.142116 14.230837,-9.517846 11.77884,-7.87238 13.99496,-9.43811 13.99498,-9.887712 0,-0.127214 -0.44369,-0.906612 -0.98597,-1.732005 -0.54229,-0.825392 -0.90376,-1.63737 -0.80327,-1.804393 0.27913,-0.463934 -0.15361,-1.354774 -0.6581,-1.354774 -0.5055,0 -0.65984,-2.543884 -0.48122,-7.93157 0.0573,-1.726766 0.0308,-3.065218 -0.0587,-2.974329 -0.17915,0.181877 -0.81977,6.183532 -0.92693,8.683763 -0.0613,1.430359 -0.11477,1.530079 -0.5701,1.063175 -0.40257,-0.412791 -0.52307,-1.539127 -0.60609,-5.665305 l -0.10363,-5.150074 -1.61073,-0.699043 c -1.52377,-0.661295 -1.60012,-0.752886 -1.41431,-1.696535 1.03589,-5.260814 1.38812,-13.762862 0.7986,-19.275916 -0.51336,-4.80068 -0.63706,-5.468448 -0.95292,-5.143989 -0.16601,0.170525 -0.14999,1.467188 0.0383,3.100003 0.63432,5.500946 0.69351,11.846829 0.15849,16.991502 -0.28205,2.712132 -0.56373,4.983439 -0.62596,5.047365 -0.0622,0.06392 -1.09623,-0.336854 -2.29777,-0.890633 l -2.18464,-1.006855 0.20891,-3.049058 c 0.51075,-7.454466 0.60057,-14.171962 0.24452,-18.285852 -0.20616,-2.381992 -0.28344,-4.575563 -0.17172,-4.874607 0.1117,-0.299045 0.50403,-0.543723 0.87183,-0.543723 0.3678,0 0.96761,-0.283029 1.33291,-0.628958 1.74921,-1.656465 48.2705,-25.079552 63.40029,-31.9215254 6.14873,-2.780578 5.82375,-2.712312 8.73999,-1.8358399 10.9883,3.3025589 53.34879,17.8293173 67.99108,23.3163003 1.15016,0.431003 6.43447,2.369335 11.74292,4.307398 28.07709,10.25068 56.83933,21.289564 60.16231,23.09014 0.53084,0.287647 1.12091,0.523908 1.31125,0.525025 0.19034,9e-4 0.67326,0.359802 1.07316,0.797061 0.60154,0.657748 0.66483,0.914544 0.36649,1.487174 -0.19834,0.380678 -0.75366,0.949104 -1.23403,1.263173 -1.20731,0.78932 -14.75454,10.884797 -16.22599,12.091706 -1.1732,0.962274 -1.23331,0.974176 -3.05638,0.605461 -1.0228,-0.206859 -2.26955,-0.414033 -2.77055,-0.460378 -0.85227,-0.07886 -0.72798,-0.235927 1.93034,-2.43968 2.98562,-2.475087 15.98941,-12.531764 16.82624,-13.01283 0.71205,-0.409325 0.35003,-0.640805 -3.37327,-2.156841 -1.85284,-0.754443 -3.26116,-1.493745 -3.12958,-1.642898 0.13157,-0.149144 0.0723,-0.173072 -0.13187,-0.0532 -0.2041,0.119913 -2.43891,-0.610107 -4.96623,-1.622265 -2.52733,-1.012158 -5.11107,-2.034479 -5.74165,-2.271838 -0.63058,-0.237351 -4.40397,-1.657663 -8.3853,-3.156242 -3.98133,-1.49858 -9.98952,-3.755087 -13.35153,-5.014452 -3.36201,-1.259366 -7.70528,-2.887509 -9.65171,-3.618105 -1.94642,-0.730587 -4.00948,-1.474012 -4.58456,-1.652045 -0.57508,-0.178033 -1.0456,-0.474206 -1.0456,-0.658153 0,-0.183948 -0.12291,-0.256418 -0.27313,-0.161054 -0.15023,0.09537 -1.27223,-0.204492 -2.49337,-0.666373 -1.22112,-0.461872 -5.91199,-2.173774 -10.42416,-3.804222 -4.51218,-1.630448 -9.145,-3.320555 -10.29517,-3.755798 -1.15015,-0.435243 -3.97327,-1.452505 -6.27361,-2.260594 -2.30032,-0.80808 -5.12344,-1.802053 -6.27361,-2.208821 -1.15015,-0.406768 -5.20387,-1.840602 -9.00825,-3.186319 -11.21294,-3.966302 -16.64857,-5.826844 -26.86393,-9.1951214 -5.30844,-1.750343 -10.40281,-3.4516039 -11.32083,-3.7805989 -0.91802,-0.328987 -1.78667,-0.479202 -1.93034,-0.333803 -0.14367,0.145399 -1.41942,0.773655 -2.83501,1.3961129 -2.24022,0.985078 -4.66808,2.137413 -15.28187,7.2532604 -6.18914,2.983168 -45.28054,23.216931 -45.77988,23.695728 -0.20706,0.19854 3.86243,2.330354 4.4485,2.330354 0.25467,0 52.09228,21.138016 54.36118,22.167063 0.7078,0.321019 4.76151,2.000017 9.00827,3.731104 26.52142,14.244308 50.01916,20.53316 76.08763,32.430479 1.85795,0.85 3.59526,1.61241 3.86069,1.69425 0.47387,0.14611 1.6479,-0.75381 12.54722,-9.61758 2.91964,-2.37439 5.68782,-4.611349 6.15151,-4.971043 2.09867,-1.671451 16.54533,-12.228724 18.66866,-13.951235 0.41025,-0.319047 4.80005,0.877848 5.22501,0.532921 10.86998,-8.822853 -19.60526,15.170097 -21.19778,16.422507 -1.59254,1.25243 -6.37013,5.10618 -10.61688,8.56392 -8.56185,6.971096 -9.19935,7.441566 -10.08359,7.441566 -0.33845,0 -0.75855,0.18589 -0.93354,0.4131 -0.88379,1.14751 -3.12633,9.72968 -4.40986,16.87657 -0.95002,5.28978 -0.96558,5.51358 -0.38352,5.51358 0.46209,0 3.38827,-2.16706 7.12397,-5.27584 1.23864,-1.03077 2.97594,-2.3783 3.86068,-2.9945 0.88475,-0.61621 4.50414,-3.35163 8.04309,-6.0787 3.53896,-2.72709 8.60611,-6.56943 11.26033,-8.53857 2.65422,-1.96913 5.96091,-4.428766 7.34821,-5.465866 6.84011,-5.11342 11.71686,-8.6605 11.90702,-8.6605 0.0966,0 0.0216,0.45375 -0.16661,1.00833 -0.18821,0.55457 -0.27918,1.07303 -0.20217,1.15213 0.077,0.0791 0.68489,-0.36883 1.35084,-0.99542 1.17788,-1.10828 1.3143,-2.06437 0.24005,-1.68247 -0.48041,0.17077 -0.4823,0.14951 -0.02,-0.22533 0.28075,-0.22766 1.00462,-0.81558 1.60862,-1.30652 0.60399,-0.49092 2.50973,-2.024307 4.23498,-3.407529 1.72524,-1.383222 3.1368,-2.745099 3.1368,-3.026399 0,-0.630399 1.46544,-0.339268 2.3325,0.463384 1.33241,1.233439 1.98848,0.660746 -15.17693,13.248364 -4.14479,3.03944 -7.56815,5.67179 -7.60747,5.84967 -0.0393,0.177876 2.44983,2.762806 5.53143,5.744276 3.08161,2.98148 5.68482,5.75607 5.78492,6.16576 0.10011,0.40969 0.0198,1.05617 -0.17839,1.43664 -0.30894,0.59297 -0.65869,0.69174 -2.44944,0.69174 -2.91275,0 -10.21558,0.82078 -19.12208,2.14917 -4.15828,0.62021 -8.7911,1.29431 -10.29516,1.49802 -1.50406,0.20371 -3.20177,0.61897 -3.77268,0.92283 -0.57091,0.30385 -3.24926,2.35167 -5.95189,4.55072 -6.08221,4.94893 -9.08713,7.07342 -10.00134,7.07103 -0.38694,-9e-4 -1.28264,-0.17679 -1.99044,-0.39061 -0.70778,-0.21383 -1.41071,-0.35649 -1.56204,-0.31704 -0.4009,0.1045 -1.19293,-0.64178 -1.00775,-0.94954 0.0867,-0.14422 -0.12664,-0.18582 -0.47424,-0.0924 -0.37164,0.0998 -1.86297,-0.44532 -3.61984,-1.32322 -6.81874,-3.40726 -7.31977,-3.51766 -12.34644,-2.72054 -3.98208,0.63148 -23.09223,3.8209 -28.9265,4.82774 -2.12338,0.36643 -4.3674,0.72984 -4.98672,0.80756 -0.61931,0.0777 -2.34071,0.36889 -3.8253,0.64705 -2.74092,0.51354 -3.58183,0.624 -7.59588,0.99783 -1.23864,0.11535 -2.57662,0.27711 -2.9733,0.35946 -1.06779,0.22166 -2.61006,3.59872 -3.83644,8.40054 -2.33548,9.14447 -3.01826,14.33293 -2.60793,19.81789 0.23082,3.08542 1.06302,6.29018 1.63341,6.29018 0.16093,0 0.21578,-0.20562 0.1219,-0.45692 -0.33879,-0.9069 4.39404,-2.20477 9.91442,-2.71881 1.23863,-0.11533 3.03827,-0.41349 3.99918,-0.66257 0.96092,-0.24907 4.86986,-0.83382 8.68654,-1.29942 14.73593,-1.79766 25.32855,-3.21969 40.55953,-5.44499 2.56575,-0.37487 6.25753,-0.89743 8.20395,-1.16127 14.87197,-2.01583 19.47716,-2.74433 22.86453,-3.61698 1.15088,-0.29649 2.37679,-0.44639 2.72423,-0.33311 0.35848,0.11688 0.63172,0.0534 0.63172,-0.14679 0,-0.19402 0.25336,-0.35048 0.56302,-0.3477 0.48116,0.004 0.49284,0.0517 0.0805,0.32542 -0.29519,0.19596 -0.33263,0.32233 -0.0964,0.32543 0.2124,0.003 0.51033,-0.22284 0.66208,-0.5014 0.15595,-0.28625 0.89729,-0.57953 1.70504,-0.67453 0.78601,-0.0924 1.64628,-0.23376 1.91171,-0.31404 0.26542,-0.0803 1.13407,-0.22826 1.93034,-0.32886 0.79626,-0.1006 1.95447,-0.31531 2.57378,-0.47712 0.61932,-0.16183 1.84148,-0.38757 2.71591,-0.50165 0.87444,-0.11408 2.60497,-0.42677 3.84564,-0.69486 1.24067,-0.26809 2.40731,-0.4275 2.59253,-0.35425 0.21233,0.084 0.31817,-0.51974 0.28643,-1.63378 l -0.0503,-1.76695 1.17637,0.62046 c 1.30428,0.68792 2.30241,2.16968 2.30241,3.41799 0,0.79993 -0.0996,0.83077 -5.38887,1.66844 -2.96388,0.46939 -7.05379,1.08644 -9.08869,1.37123 -2.03491,0.28478 -5.29236,0.90055 -7.23878,1.36837 l -3.53896,0.85059 -2.42949,2.57362 c -1.39865,1.48161 -2.65104,3.15296 -2.95162,3.939 -0.28717,0.75095 -0.3883,1.28042 -0.22473,1.17657 0.16357,-0.10384 0.2974,0.0307 0.2974,0.29888 0,0.26823 -0.15121,0.53947 -0.33602,0.60275 -0.18481,0.0633 -0.3604,0.44747 -0.3902,0.85374 -0.0351,0.4788 -0.26389,0.73869 -0.65029,0.73869 -0.32788,0 -0.89364,0.16355 -1.25726,0.36345 -0.48073,0.26429 -0.60145,0.26429 -0.44245,0 0.12026,-0.1999 0.0465,-0.36345 -0.16385,-0.36345 -0.63396,0 -31.39989,31.91316 -33.69211,34.94845 -0.86341,1.14331 -1.25244,1.4021 -2.09156,1.39132 -0.56698,-0.007 -1.42942,-0.23533 -1.91654,-0.50678 z m -1.37054,-6.75059 c 0.44216,-3.67171 2.66747,-16.38308 3.42,-19.53571 0.15675,-0.65669 0.63491,-1.72362 1.06256,-2.37097 0.64776,-0.98051 0.697,-1.20878 0.2949,-1.36727 -1.08,-0.42571 -1.3571,-0.18004 -1.55592,1.37953 -0.11007,0.86338 -0.40069,2.16465 -0.64583,2.89171 -0.58507,1.73531 -1.43501,5.20109 -1.78302,7.27061 -0.15282,0.90882 -0.57648,3.43701 -0.94147,5.61818 -0.78355,4.68263 -1.17061,9.7669 -0.80892,10.62582 0.32279,0.76655 0.32105,0.7748 0.9577,-4.5119 z m 8.47935,-0.90883 c 1.66987,-1.77221 6.30948,-6.64321 10.31027,-10.82444 4.00077,-4.18124 9.44577,-9.95073 12.09999,-12.82108 2.65422,-2.87035 6.58403,-7.10826 8.73291,-9.41756 2.14889,-2.30931 3.88619,-4.22182 3.86069,-4.25003 -0.0255,-0.0282 -1.20459,0.15955 -2.62017,0.41724 -1.41559,0.25768 -5.43018,0.89474 -8.92133,1.41568 l -6.34754,0.94718 -4.75193,4.71808 c -5.76542,5.72437 -8.9548,8.58147 -9.57949,8.58147 -0.67593,0 -1.75081,2.36782 -2.46764,5.43587 -0.85602,3.66376 -3.40478,15.89813 -3.66975,17.61525 -0.11921,0.7725 -0.0965,1.40455 0.0506,1.40455 0.14702,0 1.63356,-1.45 3.30342,-3.22221 z m -15.3677,-7.6837 c 0.37258,-2.45383 0.96166,-5.87432 1.30906,-7.60108 0.81174,-4.03469 0.93457,-5.00647 0.60645,-4.79817 -0.81414,0.51687 -3.26032,16.21116 -3.18348,20.42479 l 0.0435,2.38464 0.27354,-2.97433 c 0.15046,-1.63589 0.57839,-4.98202 0.95096,-7.43585 z m -2.57122,3.63531 c 0.19889,-1.90854 0.85132,-6.22133 1.44986,-9.58398 1.11773,-6.27959 1.28527,-7.6941 0.74791,-6.3142 -1.00399,2.57815 -2.88075,15.27768 -2.81344,19.03775 0.0293,1.63588 0.0984,2.37947 0.15366,1.65241 0.0553,-0.72706 0.26313,-2.88346 0.46201,-4.79198 z m -10.49511,-4.22854 c 0.12333,-2.12756 0.48935,-5.13237 0.81338,-6.67737 0.32404,-1.545 0.75278,-4.07319 0.95276,-5.61819 0.19999,-1.545 0.43311,-3.25525 0.51806,-3.80055 0.15105,-0.96963 0.14665,-0.97326 -0.19984,-0.16524 -1.32184,3.08259 -3.58736,19.94709 -2.93013,21.81181 0.27913,0.79197 0.60028,-1.31557 0.84577,-5.55046 z m -21.00061,-1.61541 c -0.23225,-0.0955 -0.50974,-0.0837 -0.61664,0.0261 -0.10691,0.10982 0.0831,0.18793 0.42226,0.17358 0.3748,-0.0158 0.45102,-0.0942 0.19438,-0.19967 z m -11.26033,-3.6353 c -0.23225,-0.0955 -0.50973,-0.0837 -0.61663,0.0261 -0.10691,0.10982 0.0831,0.18793 0.42225,0.17358 0.37479,-0.0158 0.45103,-0.0942 0.19438,-0.19967 z m 60.99712,-7.32428 c 0.0922,-0.28442 -0.0625,-0.40351 -0.42926,-0.33048 -0.31537,0.0628 -0.63828,0.31429 -0.71755,0.55885 -0.0922,0.28442 0.0625,0.40352 0.42926,0.33048 0.31537,-0.0628 0.63828,-0.31428 0.71755,-0.55885 z m -1.53857,-0.34299 c 0,-0.16057 -0.29784,-0.37194 -0.66184,-0.46972 -0.54306,-0.14588 -0.59373,-0.0935 -0.28233,0.29193 0.42476,0.52575 0.94417,0.62355 0.94417,0.17779 z m -10.44834,-3.94136 c -0.28645,-0.29424 -0.8037,0.63335 -0.79418,1.4242 0.007,0.54501 0.0947,0.4964 0.50283,-0.27707 0.27219,-0.51593 0.4033,-1.03213 0.29135,-1.14713 z m -2.26407,0.39239 c 0.57251,-1.40751 0.57759,-1.4468 0.18686,-1.4468 -0.16502,0 -0.38229,0.31258 -0.48284,0.69463 -0.10053,0.38205 -0.26482,0.97692 -0.36508,1.32193 -0.3151,1.08434 0.15202,0.68174 0.66106,-0.56976 z m 15.07116,0.5135 c -0.42653,-0.43814 -2.35875,-0.98355 -2.35875,-0.66581 0,0.32697 1.17151,0.8693 2.01958,0.93492 0.41841,0.0324 0.5393,-0.0636 0.33917,-0.26911 z m 4.20637,-4.5932 c 1.37186,-1.44811 2.40022,-2.78925 2.28526,-2.98033 -0.24065,-0.39999 -1.0844,0.192 -3.67501,2.5785 l -1.74168,1.60445 -3.53052,-1.27744 c -1.94178,-0.7026 -3.60626,-1.19963 -3.69886,-1.10452 -0.17662,0.18144 6.92006,3.76147 7.52015,3.79366 0.1905,0.0102 1.46879,-1.16623 2.84066,-2.61432 z m -46.61971,0.98048 c -0.10936,-0.18176 -0.416,-0.33048 -0.68143,-0.33048 -0.26542,0 -0.3931,0.14872 -0.28375,0.33048 0.10936,0.18177 0.416,0.33049 0.68143,0.33049 0.26542,0 0.39311,-0.14872 0.28375,-0.33049 z m -76.56717,-17.53352 c 0.27733,-3.171 0.56386,-5.98852 0.63675,-6.26117 0.0729,-0.27265 0.42806,-3.3957 0.78926,-6.94012 0.36121,-3.54442 0.72859,-7.11362 0.8164,-7.93156 0.11181,-1.04157 0.074,-1.28221 -0.12635,-0.80314 -0.1573,0.37621 -0.38569,1.71465 -0.50754,2.97432 -0.12184,1.25968 -0.50381,4.81851 -0.8488,7.90852 -1.10351,9.88381 -1.56011,14.5079 -1.56364,15.83558 -0.008,2.70734 0.31814,0.77187 0.80392,-4.78243 z m -0.99075,-5.93069 c 0.4506,-4.45324 0.97107,-9.73268 1.15661,-11.7321 0.18553,-1.99942 0.41465,-4.00709 0.50913,-4.46151 0.11356,-0.54615 0.0639,-0.71418 -0.14642,-0.49572 -0.17501,0.18177 -0.61925,3.30482 -0.98721,6.94012 -0.36795,3.6353 -0.95754,9.21218 -1.3102,12.39307 -0.35266,3.18089 -0.62353,6.45266 -0.60191,7.2706 l 0.0393,1.48716 0.26072,-1.6524 c 0.1434,-0.90883 0.62939,-5.29597 1.07998,-9.74922 z m -22.836807,-7.2706 c 0.72014,-7.40145 1.50721,-18.24301 1.33708,-18.41778 -0.21274,-0.21853 -0.44018,1.90515 -1.00393,9.37394 -0.50793,6.72914 -0.60197,7.75878 -1.14226,12.50523 -0.16498,1.44936 -0.2803,3.38268 -0.25628,4.29627 l 0.0437,1.66108 0.26164,-2.14814 c 0.14391,-1.18146 0.48594,-4.45323 0.76007,-7.2706 z m -1.9095,0.49572 c 0.6782,-6.40832 1.44202,-16.22304 1.40171,-18.01125 l -0.0335,-1.48717 -0.24902,1.51095 c -0.13696,0.83102 -0.34616,3.13613 -0.46488,5.12247 -0.11872,1.98633 -0.42043,5.6192 -0.67046,8.07302 -0.84783,8.32071 -1.1215,12.27811 -0.87597,12.66666 0.13465,0.21306 0.28028,-0.43057 0.32365,-1.43028 0.0434,-0.99971 0.29918,-3.89968 0.56849,-6.4444 z m -7.88611,3.02703 c 0,-1.15251 0.2801,-4.98197 0.62245,-8.50992 0.34234,-3.52795 0.78524,-8.79392 0.98421,-11.70216 0.19897,-2.90824 0.42105,-5.47361 0.4935,-5.70081 0.25039,-0.7853 -0.50848,-0.41036 -0.80815,0.39928 -0.31381,0.84787 -0.48537,2.43028 -0.95096,8.77159 -0.15348,2.0903 -0.53465,6.93669 -0.84706,10.76974 -0.3124,3.83306 -0.47567,7.21637 -0.36281,7.51847 0.45174,1.20927 0.86882,0.46701 0.86882,-1.54619 z m 64.022997,-8.14949 c -0.26542,-0.1762 -0.62736,-0.32036 -0.80431,-0.32036 -0.17695,0 -0.10456,0.14416 0.16086,0.32036 0.26543,0.1762 0.62736,0.32036 0.80431,0.32036 0.17695,0 0.10455,-0.14416 -0.16086,-0.32036 z m -3.3781,-1.32192 c -0.10936,-0.18177 -0.34361,-0.33049 -0.52056,-0.33049 -0.17695,0 -0.23225,0.14872 -0.12289,0.33049 0.10936,0.18176 0.34362,0.33048 0.52056,0.33048 0.17695,0 0.23225,-0.14872 0.12289,-0.33048 z m 53.40612,-0.8317 c 3.53895,-0.63321 7.88223,-1.39107 9.65171,-1.68413 4.02318,-0.66631 5.00873,-1.17303 1.93034,-0.99247 -1.23864,0.0726 -2.75878,0.22264 -3.3781,0.33332 -0.61932,0.11069 -2.28424,0.34999 -3.69982,0.53179 -4.186,0.5376 -8.94876,1.25896 -9.81948,1.48723 -0.69594,0.18247 -1.08457,-0.0881 -2.73466,-1.90391 -1.05788,-1.16413 -2.50253,-2.82756 -3.21032,-3.6965 -0.70779,-0.86894 -1.91096,-2.2696 -2.67373,-3.11257 -0.76275,-0.84299 -1.84857,-2.11034 -2.41292,-2.81636 -1.56715,-1.96052 -5.50887,-6.10787 -4.8362,-5.08849 0.32607,0.49414 0.70145,0.90311 0.83416,0.90882 0.13271,0.005 0.2413,0.16973 0.2413,0.36448 0,0.19474 0.18096,0.54907 0.40215,0.78738 0.22118,0.23832 0.90887,1.07879 1.52818,1.8677 0.61932,0.78892 1.3432,1.66414 1.60862,1.94491 0.26542,0.28078 0.9831,1.17711 1.59484,1.99186 0.61173,0.81474 1.91471,2.46206 2.8955,3.6607 0.9808,1.19865 2.57064,3.16914 3.53296,4.37889 0.96233,1.20974 1.83099,2.19708 1.93035,2.19409 0.0993,-0.003 3.07616,-0.52352 6.61512,-1.15674 z m 51.61966,0.65567 c 0.2797,0.17758 1.088,-6.43503 0.82022,-6.71011 -0.38929,-0.39989 -0.74552,0.58981 -1.08572,3.01647 -0.36625,2.61247 -0.44432,4.70721 -0.14723,3.95022 0.0896,-0.22834 0.27534,-0.34379 0.41273,-0.25658 z m -106.79526,-0.48494 c 0,-0.18177 -0.15332,-0.33048 -0.34072,-0.33048 -0.18739,0 -0.25123,0.14871 -0.14187,0.33048 0.10937,0.18176 0.26268,0.33048 0.34072,0.33048 0.078,0 0.14187,-0.14872 0.14187,-0.33048 z m -3.07246,-1.28479 c -0.1681,-0.16134 -0.66758,-0.39061 -1.10995,-0.50951 l -0.8043,-0.21616 0.8043,0.49779 c 0.89639,0.55478 1.60137,0.69953 1.10995,0.22788 z m -3.36202,-1.35907 c 0,-0.18176 -0.32573,-0.32003 -0.72387,-0.30726 -0.69071,0.0221 -0.6944,0.0363 -0.0805,0.30726 0.3539,0.15622 0.67964,0.29448 0.72388,0.30725 0.0442,0.0128 0.0804,-0.12548 0.0804,-0.30725 z m -1.60862,-0.62513 c 0,-0.16207 -0.34848,-0.38451 -0.77441,-0.49432 -0.42593,-0.10981 -1.04122,-0.2771 -1.36732,-0.37176 -0.3261,-0.0947 -0.0138,0.12389 0.69398,0.48565 1.51138,0.77249 1.44775,0.75576 1.44775,0.38043 z m 78.82229,-0.0255 c 0,-0.17606 -0.21716,-0.23451 -0.48258,-0.12989 -0.26542,0.10463 -0.48259,0.24868 -0.48259,0.32011 0,0.0715 0.21717,0.12989 0.48259,0.12989 0.26542,0 0.48258,-0.14405 0.48258,-0.32011 z m 1.66895,-0.23613 c -0.23226,-0.0955 -0.50974,-0.0837 -0.61664,0.0261 -0.10691,0.10981 0.0831,0.18792 0.42225,0.17357 0.37481,-0.0159 0.45103,-0.0942 0.19439,-0.19966 z m -89.13428,-3.25724 c -0.59539,-0.26553 -1.17449,-0.47751 -1.28689,-0.47107 -0.41858,0.024 1.4232,0.95626 1.88685,0.95508 0.26542,-6.5e-4 -0.005,-0.21848 -0.59996,-0.48401 z m -3.17384,-1.18669 c -0.19995,-0.2054 -1.06136,-0.63615 -1.91426,-0.95725 -3.68539,-1.38746 -6.14615,-2.37576 -7.41867,-2.9795 -0.7501,-0.35589 -1.454,-0.64706 -1.56423,-0.64706 -0.20418,0 -6.63881,-2.58859 -8.97573,-3.61085 -0.70778,-0.30962 -3.27755,-1.36806 -5.710587,-2.35209 -2.43304,-0.98402 -4.42369,-1.86967 -4.42369,-1.96809 0,-0.0984 1.04962,-0.84093 2.33249,-1.65 5.133437,-3.23752 16.704437,-11.292756 16.509367,-11.493126 -0.24198,-0.24856 -3.07742,1.27302 -3.07742,1.65144 0,0.14012 -0.12948,0.25477 -0.28773,0.25477 -0.28807,0 -8.33924,5.15492 -14.307807,9.160856 -1.7459,1.1718 -3.04888,2.24403 -2.89552,2.38274 0.15338,0.13871 3.60869,1.55436 7.6785,3.1459 4.069797,1.59154 8.268287,3.23971 9.329977,3.66261 1.0617,0.42289 3.3781,1.31157 5.14758,1.97484 1.76948,0.66327 4.665,1.78479 6.43447,2.49225 3.59764,1.43839 3.65115,1.45426 3.14326,0.93255 z m 170.42663,-5.05557 c 2.02774,-0.42752 2.04727,-0.44113 0.64345,-0.44857 -1.71385,-0.009 -5.28516,0.82649 -3.69983,0.86564 0.53085,0.0131 1.90622,-0.17457 3.05638,-0.41707 z m -8.36482,-0.98863 c 2.0349,-0.25033 6.48676,-0.79885 9.893,-1.21896 3.77447,-0.46552 6.19318,-0.90366 6.19318,-1.12186 0,-0.35759 -6.63352,-6.65772 -7.5874,-7.20606 -0.27716,-0.15934 -0.59324,-0.19798 -0.70238,-0.0859 -0.10914,0.1121 1.25055,1.6788 3.02153,3.48153 l 3.21995,3.27771 -1.14748,0.19031 c -0.63112,0.10466 -3.3915,0.48167 -6.1342,0.83779 -7.53504,0.97836 -11.70902,1.67523 -12.04855,2.01157 -0.42107,0.41713 0.88351,0.37616 5.29235,-0.16617 z m -108.94796,-4.6535 c -0.19579,-0.52414 -0.75978,-0.68768 -0.75978,-0.22033 0,0.3495 0.35167,0.71605 0.68696,0.71605 0.14191,0 0.17468,-0.22307 0.0729,-0.49572 z m -3.03971,-3.73713 c -1.11336,-1.21635 -2.14166,-2.35283 -2.28511,-2.52551 -0.16236,-0.19543 -0.26082,-0.18576 -0.26082,0.0257 0,0.54605 4.32335,5.47218 4.45272,5.07353 0.0646,-0.19915 -0.79343,-1.35729 -1.90679,-2.57363 z m 85.60634,-1.53108 c 0,-0.26192 -0.14478,-0.56813 -0.32172,-0.68047 -0.17695,-0.11234 -0.32173,0.10196 -0.32173,0.47622 0,0.37426 0.14478,0.68047 0.32173,0.68047 0.17694,0 0.32172,-0.2143 0.32172,-0.47622 z m -2.9072,-0.99647 c 0.4421,-0.54722 0.19123,-1.17117 -0.4709,-1.17117 -0.57894,0 -0.90846,0.56646 -0.68206,1.17252 0.22855,0.61176 0.658,0.61126 1.15296,-0.002 z m 4.83485,-0.17102 c 0.31202,-0.20264 0.3683,-0.4177 0.16087,-0.61478 -0.28569,-0.27144 -3.93154,-1.881086 -7.39696,-3.265746 -0.70779,-0.28282 -1.7431,-0.71708 -2.30069,-0.96505 -1.61204,-0.71687 -2.40073,-0.57193 -1.15006,0.21137 0.57935,0.36285 1.26703,0.65973 1.52819,0.65973 0.26114,0 0.4748,0.13869 0.4748,0.30821 0,0.16952 0.32575,0.41264 0.72388,0.54026 0.39813,0.12763 0.79626,0.32557 0.88474,0.43987 0.30222,0.39043 3.75363,1.983606 4.665,2.153366 0.50019,0.0932 1.05952,0.32356 1.24295,0.51198 0.40627,0.41733 0.55268,0.41993 1.16728,0.0208 z M 139.51575,95.290384 c 0.10987,-0.2941 0.0559,-0.42676 -0.12644,-0.31097 -0.17492,0.11104 -0.31804,0.34185 -0.31804,0.51288 0,0.47538 0.23061,0.37063 0.44448,-0.20191 z m 109.26328,-0.093 c 0,-0.46564 -0.36239,-0.67926 -0.83577,-0.49267 -0.67142,0.26467 -0.54537,0.76808 0.19232,0.76808 0.3539,0 0.64345,-0.12393 0.64345,-0.27541 z m -2.04137,-0.86703 c -0.10477,-0.28049 -0.44956,-0.50997 -0.76618,-0.50997 -0.31662,0 -1.22601,-0.35154 -2.02087,-0.78118 -0.79486,-0.42964 -1.98944,-0.96214 -2.65463,-1.18332 -0.71847,-0.2389 -1.1225,-0.54662 -0.99529,-0.75805 0.13859,-0.23034 -0.0306,-0.29015 -0.47962,-0.16955 -0.38156,0.1025 -0.69376,0.0516 -0.69376,-0.11318 0,-0.16474 -0.16027,-0.29954 -0.35615,-0.29954 -0.19589,0 -1.24552,-0.42557 -2.33249,-0.94573 -2.31223,-1.534031 -5.93805,-1.819401 -7.76737,-3.02006 -0.26542,0 -0.48259,-0.14871 -0.48259,-0.33048 0,-0.48551 -0.96343,-0.40387 -0.97496,0.0826 -1.34635,-0.420609 7.07548,3.631557 9.02861,4.53978 0.27124,0.13793 0.95892,0.35587 1.52818,0.48431 0.56928,0.12844 1.03505,0.37042 1.03505,0.53774 0,0.16732 0.26245,0.30423 0.58324,0.30423 0.32078,0 1.3704,0.3959 2.33249,0.87976 0.9621,0.48388 2.01217,0.86417 2.3335,0.84511 0.32135,-0.0191 1.04522,0.23462 1.60862,0.56375 1.13229,0.66147 1.35855,0.63488 1.07422,-0.12624 z m -108.14897,-0.84045 c -0.10936,-0.18177 -0.26268,-0.33048 -0.34072,-0.33048 -0.078,0 -0.14187,0.14871 -0.14187,0.33048 0,0.18176 0.15332,0.33048 0.34072,0.33048 0.18739,0 0.25123,-0.14872 0.14187,-0.33048 z m -1.23468,-1.40455 c -0.0893,-0.2272 -0.16228,-0.0413 -0.16228,0.4131 0,0.45442 0.073,0.64031 0.16228,0.4131 0.0892,-0.2272 0.0892,-0.59899 0,-0.8262 z m 4.91595,-18.066342 c 0.0309,-1.880168 -0.21234,-1.002399 -0.40444,1.459626 -0.13873,1.777872 -0.11495,2.007372 0.1027,0.991452 0.15576,-0.727067 0.29155,-1.830051 0.30174,-2.451078 z m -2.01175,1.37701 c -0.0809,-0.318094 -0.14713,-0.0578 -0.14713,0.578346 0,0.636169 0.0662,0.896431 0.14713,0.578337 0.0809,-0.318084 0.0809,-0.838598 0,-1.156683 z m 0.31099,-2.4849 c -0.0882,-0.223748 -0.15487,0.03934 -0.14831,0.58463 0.007,0.545289 0.0786,0.728363 0.16023,0.406813 0.0816,-0.321551 0.0762,-0.767704 -0.012,-0.991443 z m 2.30244,-10.81699 c 0.006,-3.54442 -0.0403,-6.295685 -0.10132,-6.113916 -0.061,0.18176 -0.16284,3.974045 -0.22637,8.427282 -0.0635,4.453247 -0.018,7.204503 0.10132,6.113916 0.11927,-1.090587 0.22113,-4.882872 0.22637,-8.427282 z m -1.96089,7.688242 c -0.074,-0.502347 -0.13642,-0.169787 -0.13884,0.73904 -0.002,0.908827 0.0581,1.319845 0.13445,0.913374 0.0764,-0.40648 0.0784,-1.150058 0.005,-1.652414 z m 47.70596,0.129302 c 0,-0.06275 -0.32575,-0.397333 -0.72388,-0.743586 l -0.72388,-0.629571 2.40772,-2.247815 c 0.57596,0.69879 -0.36168,0.295756 -0.95996,3.620972 z m -70.56817,-2.949229 c -0.0882,-0.223748 -0.15486,0.03934 -0.1483,0.58463 0.007,0.545298 0.0786,0.728363 0.16023,0.406813 0.0816,-0.321551 0.0762,-0.767696 -0.012,-0.991443 z m 23.19304,-9.247202 c -0.0574,-1.86309 -0.10426,-0.338745 -0.10426,3.387435 0,3.726188 0.0469,5.250533 0.10426,3.387443 0.0573,-1.86309 0.0573,-4.911788 0,-6.774878 z m -24.79091,7.105359 c -0.0809,-0.318093 -0.14713,-0.0578 -0.14713,0.578346 0,0.636169 0.0662,0.896431 0.14713,0.578337 0.0809,-0.318084 0.0809,-0.838598 0,-1.156683 z m 1.92962,-0.664815 c -0.0805,-0.315978 -0.14349,0.02044 -0.13992,0.747431 0.004,0.727067 0.0694,0.985582 0.14641,0.574493 0.0769,-0.411089 0.074,-1.005955 -0.007,-1.321924 z m -1.60262,-2.144282 c -0.0767,-0.408974 -0.13942,-0.07436 -0.13942,0.743587 0,0.817938 0.0628,1.152551 0.13942,0.743577 0.0766,-0.408964 0.0766,-1.078191 0,-1.487164 z m 2.09893,-3.727755 c 0.0877,-4.655407 -0.35688,-13.582714 -0.63601,-12.772311 -0.0828,0.240411 0.002,2.842956 0.1885,5.783426 0.18647,2.94047 0.23825,6.863264 0.11503,8.717325 -0.12321,1.854069 -0.11836,3.262444 0.0108,3.129738 0.12913,-0.132696 0.27391,-2.318885 0.32173,-4.858178 z m -1.76509,-4.519829 c -0.0612,-1.32575 -0.11173,-0.32842 -0.11223,2.216293 -6.4e-4,2.544703 0.0495,3.629412 0.11132,2.410449 0.0617,-1.218962 0.0621,-3.301001 9.5e-4,-4.626742 z m 202.60864,2.052826 c -0.10878,-0.180788 -0.51545,-0.499863 -0.90372,-0.709053 -0.70107,-0.377708 -0.70171,-0.375422 -0.0931,0.328707 0.61401,0.710368 1.3686,0.998285 0.99681,0.380346 z m -202.8478,-6.941892 c 0,-0.908827 -0.10859,-1.652504 -0.2413,-1.652621 -0.13271,-1.08e-4 -0.19113,0.743479 -0.12981,1.652414 0.14383,2.132147 0.37111,2.132273 0.37111,2.07e-4 z m -0.24819,-3.712649 c -0.24099,-0.946566 -0.39688,-0.672251 -0.37265,0.655687 0.0172,0.94399 0.082,1.08307 0.27191,0.583621 0.13712,-0.36063 0.18245,-0.918316 0.10074,-1.239308 z m 66.61038,137.027652 c 0.1069,-0.10981 0.3844,-0.12155 0.61664,-0.0261 0.25664,0.1055 0.18042,0.1838 -0.19437,0.19967 -0.33916,0.0143 -0.52918,-0.0637 -0.42227,-0.17358 z m -6.92988,-2.33048 c 0.21782,-0.0905 0.65214,-0.096 0.96517,-0.0122 0.31302,0.0838 0.13481,0.15786 -0.39603,0.1646 -0.53085,0.006 -0.78696,-0.0618 -0.56914,-0.15235 z m -3.13068,-0.24359 c 0,-0.0714 0.21715,-0.21549 0.48258,-0.32011 0.26542,-0.10463 0.48259,-0.0462 0.48259,0.12988 0,0.17606 -0.21717,0.32011 -0.48259,0.32011 -0.26543,0 -0.48258,-0.0584 -0.48258,-0.12988 z M 257.3047,95.315064 c -1.76948,-0.76548 -3.94111,-1.72187 -4.82585,-2.12532 -0.88475,-0.40345 -2.47727,-1.11272 -3.53897,-1.57616 -1.06168,-0.46345 -2.50944,-1.10437 -3.21723,-1.42428 -0.70779,-0.31991 -1.69319,-0.74979 -2.18978,-0.9553 -0.58912,-0.24382 -0.81922,-0.51672 -0.66212,-0.78535 0.18954,-0.32411 0.13864,-0.32687 -0.23924,-0.013 -0.3857,0.32038 -0.91932,0.19876 -2.71598,-0.61901 C 225.09669,81.58483 195.503,73.40654 182.01917,63.419023 c 0.0555,-0.09252 -0.22326,-0.188142 -0.61965,-0.212503 -0.68811,-0.04231 -6.4273,-2.263556 -7.09977,-2.747863 -0.17695,-0.127439 -0.97322,-0.423377 -1.76948,-0.657649 -0.79627,-0.23428 -2.02686,-0.693451 -2.73465,-1.020403 -1.79601,-0.829615 -11.59724,-4.832945 -17.37308,-7.096069 -2.65422,-1.039984 -5.26018,-2.087215 -5.79102,-2.327158 -0.53085,-0.239952 -1.90622,-0.809152 -3.05637,-1.264902 -10.8529,-4.300254 -18.13617,-7.208262 -23.02545,-9.193272 l -5.81303,-2.360054 2.43493,-1.302325 c 1.33922,-0.716282 3.73791,-2.013413 5.33044,-2.882512 5.77945,-3.154046 30.41395,-15.82028 37.26763,-19.161747 4.3995,-2.144957 7.10529,-3.2945194 7.23878,-3.075426 6.92479,-3.816553 10.08575,-6.514424 20.93182,-1.8897644 l 13.71298,4.6544434 c 12.3403,4.188528 13.65428,4.701741 13.12651,5.126964 -0.5329,0.429364 -0.513,0.440671 0.21784,0.123766 0.89773,-0.389267 4.81736,0.903417 26.38133,8.700472 10.91619,3.947046 14.65723,5.322697 22.19894,8.162907 1.85795,0.699708 7.64897,2.868864 12.86894,4.82035 5.21996,1.951476 9.5394,3.673551 9.59875,3.826827 0.0593,0.153276 0.21643,0.209794 0.34905,0.125593 0.37929,-0.240789 28.35666,10.664318 28.319,11.038272 -15.05401,11.668863 -27.30422,22.514521 -44.21869,34.224674 -1.06169,0.82799 -3.62854,2.87522 -5.70411,4.54943 -2.07557,1.6742 -3.88526,3.06242 -4.02154,3.08491 -0.13629,0.0225 -1.69554,-0.58539 -3.46501,-1.35088 z M 179.93017,60.977905 c 0,-0.0686 -0.25336,-0.328878 -0.56301,-0.578346 -0.51028,-0.411071 -0.52166,-0.399386 -0.12148,0.124784 0.42029,0.550492 0.68449,0.725563 0.68449,0.453562 z m 31.52891,-39.367802 c 0.22029,-0.27264 0.32813,-0.495721 0.23965,-0.495721 -0.0884,0 -0.34108,0.223081 -0.56137,0.495721 -0.22028,0.272649 -0.32813,0.495731 -0.23965,0.495731 0.0884,0 0.34109,-0.223082 0.56137,-0.495731 z m -97.16052,59.486731 c -0.23086,-0.285729 -0.26213,-0.495721 -0.0738,-0.495721 0.17968,0 0.41002,0.223072 0.51188,0.495721 0.10185,0.272649 0.13506,0.495722 0.0738,0.495722 -0.0612,0 -0.2916,-0.223073 -0.51188,-0.495722 z"
     id="path9661"
     inkscape:connector-curvature="0"
     sodipodi:nodetypes="csccssccscccscssscccssssssssssssscsssscsssssssssssccsscscssccsscsssccscscsscssssssscsscsscsssccscssssscssssssssssssssccssccsssssssssssssccsscssssscsscssssscsscssssssssssscssssssssscccscsssssccssssscssssccsccsscccsssssssscscssscsscssssscccssscsccsssscsssssssscccccccccccscscsssssccssscsssscsssscsscssssssscsscsscscsscssccscccssccscccccssscsccssscssscscssscsssssssssssssssscscssssscsssscssscsscscscscscsssscsscsssccscccccccscssssscssscssssccsscsssscsscsssscssccssscsssscscscssssssssccsssscssssssssssscssssccccscccscccsssccsccsssssscscsscccscccccccsscsscccccsscssccscccccsssssccsccccccccscccsccsccccccccccscccscsssccscccssscsscccsscssscsscssccccccssssccsssscsccssssssscss" />
  <path
     style="fill:#000000;stroke-width:0.32623062"
     d="m 35.761693,189.7799 c -0.003,-0.28996 -0.35244,-0.39953 -1.0523,-0.33025 -0.57605,0.057 -1.02321,-0.0449 -0.99366,-0.22656 0.0295,-0.18163 -0.61097,-0.33024 -1.42335,-0.33024 -0.89909,0 -1.52986,-0.16233 -1.61201,-0.41486 -0.0743,-0.22817 -0.23913,-0.34887 -0.36648,-0.26823 -0.31253,0.19793 -2.92099,-0.39217 -3.82234,-0.86471 -0.3988,-0.20907 -0.72731,-0.61509 -0.73004,-0.90225 -0.004,-0.42618 -0.0568,-0.43826 -0.28697,-0.0658 -0.31825,0.51494 -2.6085,0.24612 -2.6085,-0.30619 0,-0.17339 -0.27229,-0.31526 -0.60507,-0.31526 -0.3328,0 -0.78561,-0.22293 -1.00626,-0.49537 -0.22066,-0.27246 -0.80299,-0.49537 -1.29406,-0.49537 -0.49637,0 -0.97524,-0.21997 -1.07837,-0.49537 -0.10201,-0.27244 -0.40757,-0.49535 -0.67901,-0.49535 -0.27143,0 -0.49352,-0.14861 -0.49352,-0.33025 0,-0.18163 -0.36255,-0.33024 -0.80567,-0.33024 -0.44311,0 -0.80567,-0.15795 -0.80567,-0.351 0,-0.19304 -0.26781,-0.3045 -0.59513,-0.24767 -0.32732,0.0568 -0.6297,-0.0453 -0.67194,-0.22693 -0.13524,-0.5815 -0.7306,-1.15425 -1.01356,-0.97505 -0.30324,0.19205 -0.8889,-0.26606 -2.82746,-2.21163 -2.7617901,-2.77176 -2.8717501,-2.95949 -3.1157101,-5.31915 -0.13847,-1.3393 -0.10429,-2.39541 0.0853,-2.64194 0.494,-0.64196 0.26569,-1.75044 -0.60697,-2.94687 -0.655,-0.898 -0.77587,-1.38029 -0.66769,-2.66413 0.0792,-0.93948 0.26205,-1.48533 0.45644,-1.36222 0.20398,0.1292 0.2539,-0.14692 0.13448,-0.74405 -0.81878,-4.09438 -2.45306,-18.10144 -2.45525,-21.0435 l -0.001,-2.59119 1.85305,-2.17256 c 1.59981,-1.8757 11.4411301,-10.96519 15.9001001,-14.68545 1.24811,-1.04134 1.53978,-1.51378 1.87106,-3.03069 0.73972,-3.38724 3.60873,-6.03353 8.44834,-7.79253 1.63732,-0.5951 2.95135,-0.77659 6.41011,-0.88534 2.43471,-0.0765 4.5458,3e-5 4.79383,0.17392 0.36419,0.2553 0.28616,0.65597 -0.43764,2.24709 -1.37131,3.01456 -1.86523,4.27767 -1.532,3.91784 1.31414,-1.41903 3.63022,-5.30078 6.68868,-11.21028 4.16689,-8.051194 5.14548,-9.909284 8.53178,-16.199816 1.36886,-2.542858 3.14239,-5.886563 3.94117,-7.430444 0.79878,-1.54388 1.78107,-3.401497 2.18285,-4.128029 0.40179,-0.726533 1.78082,-3.252884 3.06451,-5.614115 2.13263,-3.922791 4.61263,-7.807392 14.44199,-22.621581 1.868,-2.815314 4.81943,-7.273582 6.55875,-9.907262 1.7393,-2.633681 4.18738,-6.200295 5.44015,-7.92581 4.12532,-5.682026 5.00083,-6.935083 4.84548,-6.935083 -0.47152,0 -9.20551,12.091589 -18.90672,26.175022 -9.6574,14.019833 -11.71113,17.223484 -15.87783,24.768152 -2.63214,4.76604 -6.6344,12.009223 -8.89392,16.095973 -2.25953,4.086739 -4.80637,8.805773 -5.65964,10.486733 -0.85329,1.68095 -1.61113,2.99509 -1.68412,2.9203 -0.0729,-0.0747 0.10148,-0.59998 0.38765,-1.16709 0.28619,-0.56711 0.43335,-1.17536 0.32702,-1.35166 -0.10629,-0.17629 -0.0531,-0.32054 0.11817,-0.32054 0.17131,0 0.38009,-0.78019 0.46394,-1.73377 0.33662,-3.827764 1.52681,-10.333687 1.94835,-10.65031 0.24181,-0.181631 0.54118,-1.023984 0.66525,-1.871884 0.12405,-0.847912 0.436,-1.720604 0.69318,-1.939333 0.25718,-0.218716 0.46761,-0.705447 0.46761,-1.081608 0,-0.862357 2.19148,-5.509797 2.59812,-5.509797 0.16626,0 0.30229,-0.274192 0.30229,-0.609299 0,-0.335119 0.29004,-0.878287 0.64454,-1.207038 0.35449,-0.328752 0.64454,-0.729574 0.64454,-0.890725 0,-0.268335 0.15831,-0.501651 1.14,-1.680109 0.18387,-0.220741 0.66702,-0.958628 1.07365,-1.639753 0.40663,-0.681124 0.8544,-1.238408 0.99506,-1.238408 0.14065,0 0.45511,-0.41272 0.69882,-0.917157 0.67731,-1.401977 6.63666,-10.942298 7.88481,-12.622766 0.60707,-0.81735 1.60843,-2.256449 2.22526,-3.197999 0.61683,-0.941553 1.26003,-1.799651 1.42936,-1.90689 0.83164,-0.526703 4.52869,-6.02739 6.15794,-9.162157 1.01027,-1.943798 2.36624,-4.106672 3.01328,-4.806386 0.64703,-0.699717 1.72866,-2.025348 2.4036,-2.945849 0.67496,-0.9205 1.97634,-2.547153 2.89197,-3.614782 0.91562,-1.067634 2.13693,-2.629074 2.71401,-3.469871 3.96719,-5.780148 6.54483,-9.305978 8.05674,-11.020478 0.96103,-1.089798 2.21455,-2.650193 2.7856,-3.467542 1.251737,-1.79161 4.979507,-5.193249 6.320277,-5.767322 0.53174,-0.227674 1.61939,-0.6370928 2.41701,-0.9098188 0.79762,-0.272725 1.68485,-0.599312 1.97163,-0.725748 0.74764,-0.329616 1.91808,1.8467268 2.11068,3.9246808 0.12151,1.31049 -0.18583,2.918753 -1.45341,7.606235 -0.88411,3.269396 -2.06539,7.058924 -2.62505,8.421171 -1.09179,2.657409 -2.60386,7.161258 -3.2153,9.577021 -0.20687,0.817349 -0.79192,2.091 -1.3001,2.830336 -0.50817,0.739336 -1.27783,2.151122 -1.71032,3.1373 -0.43249,0.986179 -1.73619,2.905341 -2.897117,4.264802 -1.16092,1.359461 -2.35666,2.89831 -2.65718,3.419663 -0.54371,0.943184 -0.54263,0.946814 0.21688,0.727411 0.76215,-0.220165 0.76231,-0.219588 0.10535,0.37812 -0.36188,0.329243 -0.86583,1.044451 -1.11988,1.58935 -0.25404,0.5449 -1.15959,1.864636 -2.01234,2.932747 -1.51829,1.90173 -1.84354,2.880597 -0.56238,1.692475 1.00331,-0.930448 0.76155,-0.0579 -0.33021,1.191823 -0.5372,0.614921 -1.06677,1.546521 -1.17682,2.070218 -0.11136,0.530264 -0.46241,1.02248 -0.79211,1.110833 -0.32563,0.08725 -0.50658,0.300368 -0.40212,0.473576 0.10442,0.173209 -0.1147,0.396559 -0.48701,0.496334 -0.37234,0.09977 -0.67697,0.386991 -0.67697,0.638256 0,0.267143 -0.33455,0.456847 -0.80567,0.456847 -0.59851,0 -0.80566,0.174831 -0.80566,0.679975 0,0.373986 -0.12859,0.598534 -0.28576,0.499 -0.38741,-0.245358 -1.10968,0.689201 -0.85674,1.108572 0.1111,0.184265 -0.16829,0.430276 -0.62092,0.54669 -0.45263,0.116415 -0.94211,0.42985 -1.08775,0.696523 -0.16808,0.307776 -0.99383,0.552605 -2.26092,0.670342 -1.09787,0.102017 -2.08088,0.326015 -2.18448,0.497781 -0.38331,0.635574 0.56608,1.031124 2.37466,0.989358 1.56558,-0.03615 1.77438,0.02321 1.31776,0.374657 -0.29844,0.22969 -0.63972,0.814106 -0.7584,1.298704 -0.11871,0.484593 -1.16279,1.8872 -2.3202,3.116902 -1.15743,1.229704 -2.60501,3.028698 -3.21688,3.997752 -0.61185,0.969067 -1.39013,2.046482 -1.7295,2.394252 -0.68345,0.700363 -0.823,1.623054 -0.24548,1.623054 0.20437,0 0.0646,0.272849 -0.31065,0.60634 -0.41932,0.372669 -0.56703,0.724383 -0.3833,0.912665 0.18373,0.188271 -0.28647,0.958138 -1.22012,1.997683 -2.64935,2.949892 -3.13049,3.716517 -3.00432,4.786959 0.0353,0.298614 -0.64001,1.413187 -1.50048,2.476808 -1.75529,2.16969 -2.15245,2.97187 -1.58847,3.20836 0.27513,0.11534 0.24702,0.26255 -0.0987,0.51669 -0.40155,0.2952 -0.40925,0.40438 -0.0455,0.64477 0.59411,0.3926 0.1769,2.896134 -0.63065,3.784384 -0.82517,0.90763 -3.82441,1.0569 -7.54168,0.37536 -3.21273,-0.58904 -5.99986,-0.54784 -6.20531,0.0917 -0.0802,0.24984 0.16422,0.416 0.61934,0.42092 0.75239,0.008 3.30316,0.82369 5.42484,1.7345 0.62036,0.26632 2.33189,0.67128 3.80337,0.89992 l 2.67543,0.41571 -0.68928,0.75187 c -0.37911,0.41352 -1.51054,1.22144 -2.51431,1.79536 -1.00374,0.57392 -2.20139,1.2815 -2.66141,1.5724 -0.78433,0.49599 -1.00503,0.47519 -3.54494,-0.33398 -1.48971,-0.47459 -3.36114,-0.94203 -4.15876,-1.03875 l -1.45019,-0.17585 0.80567,0.56577 c 0.4431,0.31118 1.62809,1.35948 2.63329,2.32955 1.72213,1.66193 1.80867,1.81946 1.49924,2.72903 -0.1806,0.53093 -0.42296,0.96522 -0.53856,0.96514 -0.11563,-1e-4 -0.9888,-0.30344 -1.94048,-0.6741 l -1.73031,-0.67392 0.84407,1.47594 c 0.46425,0.81177 0.84407,1.70382 0.84407,1.98234 0,0.54782 -0.0546,0.52968 6.95497,2.31006 6.34742,1.61219 9.82068,3.05436 10.43119,4.33126 0.62332,1.30369 0.83464,12.27902 0.39424,20.47501 -0.17642,3.28306 -0.1963,6.07654 -0.0445,6.2396 0.1538,0.16515 0.20605,-0.0532 0.11857,-0.49536 -0.0911,-0.46028 0.058,-0.29278 0.35652,0.40088 0.28211,0.65532 0.86578,1.38501 1.29706,1.62152 0.43126,0.23652 0.87858,0.74061 0.99403,1.1202 0.1155,0.3796 0.34445,0.77899 0.5089,0.88756 0.16444,0.10857 0.31102,0.70298 0.32571,1.32097 0.0147,0.61797 0.1869,1.23277 0.38267,1.3662 0.24483,0.16689 0.22665,0.24421 -0.0582,0.24769 -0.30835,0.004 -0.3296,0.16701 -0.0832,0.6389 0.24097,0.4614 0.22214,0.67478 -0.0692,0.78433 -0.30908,0.11617 -0.31322,0.24531 -0.0182,0.56682 0.29562,0.3221 0.28049,0.52048 -0.0669,0.87644 -0.24695,0.25306 -0.37215,0.6653 -0.27824,0.9161 0.0939,0.2508 -0.0562,0.90582 -0.33368,1.45562 -0.27743,0.54978 -0.4194,1.22666 -0.31549,1.50417 0.10389,0.2775 -0.11457,0.94145 -0.48568,1.47543 -0.37104,0.53398 -0.67462,1.18795 -0.67462,1.45327 0,0.26533 -0.29004,0.86026 -0.64454,1.32207 -0.3545,0.46182 -0.64454,0.9861 -0.64454,1.16506 0,0.17896 -0.22672,0.41453 -0.50382,0.5235 -0.27711,0.10893 -0.41722,0.34173 -0.31136,0.51726 0.23797,0.39457 -0.44106,1.67426 -1.19899,2.25961 -0.31018,0.23954 -0.56397,0.64265 -0.56397,0.89578 0,0.25313 -0.18979,0.57906 -0.42176,0.72432 -0.37376,0.23403 -1.73913,1.99853 -3.11377,4.02397 -0.26068,0.38411 -0.66403,0.69838 -0.89635,0.69838 -0.2323,0 -0.51271,0.24126 -0.62314,0.53612 -0.33258,0.88817 -2.02035,2.48424 -2.38365,2.25415 -0.18653,-0.11808 -0.41987,0.10157 -0.51854,0.48818 -0.12952,0.50756 -0.34746,0.64831 -0.78397,0.50635 -0.42695,-0.13887 -0.60459,-0.0342 -0.60459,0.35631 0,0.36405 -0.17085,0.48577 -0.50014,0.35627 -0.3184,-0.1252 -0.4192,-0.0625 -0.27741,0.17264 0.13458,0.22314 0.0455,0.3065 -0.22496,0.21065 -0.24624,-0.0873 -0.79355,0.11641 -1.21626,0.45252 -0.4227,0.33614 -1.15989,0.61118 -1.63815,0.61118 -0.93926,0 -4.37863,0.60482 -5.16658,0.90855 -0.26587,0.10252 -0.64533,0.16094 -0.84325,0.1299 -0.19792,-0.031 -0.54196,0.16842 -0.76455,0.44327 -0.2226,0.27485 -0.6045,0.49972 -0.84867,0.49972 -0.24416,0 -0.44394,0.13708 -0.44394,0.30464 0,0.35481 -1.66725,0.94561 -3.06155,1.08488 -0.53174,0.0531 -1.11183,0.28328 -1.28907,0.51149 -0.22575,0.29064 -0.61181,0.32975 -1.28907,0.13054 -0.53174,-0.15641 -1.25684,-0.1678 -1.61134,-0.0253 -0.85708,0.34446 -1.19968,0.36134 -1.0118,0.0498 0.23053,-0.38222 -2.81722,-0.29301 -3.09218,0.0905 -0.14443,0.20145 -0.23869,0.16102 -0.24171,-0.10371 z m 3.37888,-16.40842 c 0,-0.18164 -0.32629,-0.37774 -0.72511,-0.43578 -0.3988,-0.0581 -0.7251,0.0621 -0.7251,0.26718 0,0.20499 -0.12765,0.29182 -0.28379,0.19297 -0.38769,-0.24554 -0.66159,-1.84071 -0.31605,-1.84071 0.15266,0 0.26041,-0.11142 0.23942,-0.24767 -0.021,-0.13623 -0.021,-0.51653 0,-0.8451 0.0505,-0.79107 0.68269,-0.37273 0.68269,0.45178 0,0.35255 0.16054,0.64099 0.35675,0.64099 0.19621,0 0.26964,0.23264 0.16316,0.51697 -0.14686,0.39215 -0.0442,0.46839 0.425,0.31577 0.40544,-0.13187 0.7345,0.002 0.95499,0.39119 0.45767,0.806 0.45911,-0.0791 10e-4,-0.95525 -0.27346,-0.52361 -0.26391,-0.6213 0.0418,-0.42768 0.25663,0.16252 0.34316,0.0893 0.24559,-0.20783 -0.0828,-0.25232 -0.42797,-0.48013 -0.76691,-0.50623 -1.18487,-0.0912 -1.25675,-0.14017 -0.69684,-0.47436 0.31019,-0.18514 0.56396,-0.55214 0.56396,-0.81555 0,-0.26343 0.15238,-0.47897 0.3386,-0.47897 0.21588,0 0.31733,-1.07719 0.2799,-2.97217 -0.0471,-2.38691 -0.15329,-2.97218 -0.53918,-2.97218 -0.37318,0 -0.39764,-0.10228 -0.10949,-0.45805 0.63037,-0.77834 -1.13479,-1.92111 -4.81448,-3.11688 -5.03932,-1.63763 -11.33458,-3.79116 -15.08667,-5.16097 -1.83402,-0.66956 -3.54555,-1.13443 -3.80339,-1.03304 -0.25784,0.10145 -0.38959,0.053 -0.29278,-0.1075 0.0968,-0.16052 -0.0361,-0.37524 -0.29521,-0.47716 -0.25919,-0.10192 -0.55841,-0.0407 -0.66496,0.13591 -0.10656,0.17666 -0.32872,0.2357 -0.49373,0.1312 -0.16504,-0.10453 -0.30004,-0.0373 -0.30004,0.14937 0,0.18665 -0.24045,0.24483 -0.53434,0.12925 -0.46212,-0.18172 -0.5048,-0.0353 -0.31574,1.08366 0.12017,0.71157 0.29757,2.18541 0.39411,3.27522 0.25004,2.82254 1.06667,6.91709 1.40317,7.03551 0.15698,0.0552 0.6412,0.43834 1.07607,0.85134 0.43487,0.41298 1.71649,1.08909 2.84807,1.50244 1.13158,0.41335 2.52302,0.98969 3.09208,1.28076 0.56905,0.29106 1.1323,0.42913 1.25165,0.30683 0.11937,-0.12231 0.57971,0.07 1.02299,0.42728 0.88394,0.71252 1.53131,0.86469 1.17662,0.27658 -0.13781,-0.22849 -0.0516,-0.30848 0.22267,-0.20639 0.24623,0.0917 0.41568,0.32084 0.37654,0.50926 -0.0799,0.38464 1.77503,1.14338 2.17539,0.88981 0.14176,-0.0898 0.34263,0.0234 0.44638,0.25165 0.11858,0.26088 0.1526,0.23101 0.0915,-0.0805 -0.0534,-0.27246 -0.94429,-0.91253 -1.97966,-1.42239 -1.89875,-0.935 -2.12084,-1.66256 -0.40206,-1.3171 0.59443,0.11946 0.8467,0.33737 0.73522,0.63507 -0.17679,0.47211 0.46588,0.61638 2.1465,0.48187 0.50165,-0.0401 0.88625,0.0969 0.88625,0.31578 0,0.21269 -0.21289,0.30299 -0.47309,0.20068 -0.2602,-0.10228 -0.55942,-0.0429 -0.66497,0.13211 -0.10549,0.17498 0.0256,0.40371 0.29161,0.50827 0.26591,0.10454 0.40461,0.40074 0.30821,0.65816 -0.21777,0.58156 0.58057,0.62019 1.14133,0.0552 0.32828,-0.33073 0.38915,-0.32151 0.30616,0.0464 -0.0644,0.28542 0.44525,0.67079 1.34661,1.01825 0.79762,0.30748 1.85846,0.73241 2.35743,0.94432 0.49897,0.2119 1.10674,0.38527 1.35061,0.38527 0.24388,0 0.5378,0.1565 0.65314,0.34775 0.26192,0.43427 2.88986,0.26819 2.88986,-0.18262 z m -3.38381,-0.78711 c 0,-0.43532 -1.60956,-0.67398 -1.62114,-0.24039 -0.005,0.20186 -0.15762,0.10691 -0.33829,-0.21091 -0.18065,-0.31786 -0.5316,-0.57793 -0.77984,-0.57793 -0.24826,0 -0.59921,-0.26006 -0.77986,-0.57792 -0.18067,-0.31786 -0.33512,-0.42931 -0.34322,-0.24768 -0.0164,0.36753 -0.63666,-0.51258 -0.64447,-0.91446 -0.007,-0.31819 1.46948,0.0201 2.69291,0.61726 0.50897,0.24845 1.04277,0.37737 1.18625,0.28651 0.14346,-0.0909 0.36579,0.008 0.49405,0.22145 0.15546,0.25777 0.0925,0.29759 -0.18867,0.11948 -0.28122,-0.17812 -0.34412,-0.13829 -0.18865,0.11949 0.12819,0.21266 0.353,0.31078 0.49942,0.21804 0.14643,-0.0928 0.35395,0.0656 0.46115,0.35187 0.28225,0.75377 0.24009,1.12693 -0.12739,1.12693 -0.17725,0 -0.32226,-0.13128 -0.32226,-0.29174 z m 0,-2.18508 c -0.22066,-0.27244 -0.61074,-0.49535 -0.86685,-0.49535 -0.319,0 -0.40124,-0.20802 -0.2611,-0.66049 0.24766,-0.79961 -0.32745,-0.89277 -0.62392,-0.10109 -0.17454,0.46609 -0.28782,0.40468 -0.67901,-0.36799 -0.25824,-0.51007 -0.46492,-1.17048 -0.45928,-1.46759 0.009,-0.48428 0.0542,-0.48091 0.43469,0.0327 0.23345,0.31503 0.51815,0.47676 0.6327,0.3594 0.11457,-0.11737 0.77803,-0.0207 1.47446,0.21484 1.13316,0.38323 1.22646,0.49507 0.88783,1.06424 -0.30867,0.51883 -0.27448,0.71507 0.18558,1.06511 0.31019,0.236 0.56396,0.52416 0.56396,0.64036 0,0.40429 -0.8905,0.20804 -1.28906,-0.28408 z m -3.75472,-1.5029 c -0.18628,-0.19088 -0.62617,-0.36924 -0.97755,-0.39637 -0.35137,-0.0271 -0.63886,-0.2283 -0.63886,-0.44706 0,-0.21876 0.19336,-0.32172 0.42968,-0.22878 0.2743,0.10786 0.42969,-0.0827 0.42969,-0.52684 0,-0.82663 0.19761,-0.87075 0.85999,-0.19198 0.27043,0.27712 0.40965,0.72294 0.30937,0.99073 -0.11164,0.29807 0.008,0.48688 0.30999,0.48688 0.27077,0 0.40267,0.1486 0.29314,0.33023 -0.25601,0.42448 -0.59022,0.41894 -1.01545,-0.0169 z m 0.20978,-0.9934 c 0,-0.19235 -0.14503,-0.25788 -0.32228,-0.14563 -0.17725,0.11226 -0.32226,0.26963 -0.32226,0.34973 0,0.0801 0.14501,0.14564 0.32226,0.14564 0.17725,0 0.32228,-0.15739 0.32228,-0.34974 z m 5.43742,0.92765 c -0.0226,-0.0454 -0.0887,-0.37977 -0.14687,-0.74304 -0.52626,-3.28723 -0.54128,-3.56019 -0.18333,-3.33348 0.20424,0.12934 0.37132,0.63915 0.37132,1.13292 0,0.49376 0.22594,1.2283 0.50208,1.6323 0.49351,0.72203 0.39768,1.39386 -0.19883,1.39386 -0.16678,0 -0.32175,-0.0372 -0.34437,-0.0826 z m -8.70039,-0.38528 c -0.0222,-0.10596 -0.0606,-0.30409 -0.0855,-0.44032 -0.11537,-0.6316 -0.58234,-1.02755 -1.01248,-0.85841 -0.26019,0.10228 -0.47308,0.0187 -0.47308,-0.18584 0,-0.23175 -0.30356,-0.29379 -0.80567,-0.16464 -0.86513,0.2225 -1.13821,-0.32346 -0.32227,-0.64431 0.26587,-0.10453 0.47196,-0.38051 0.45797,-0.61325 -0.02,-0.33399 -0.0598,-0.33574 -0.18867,-0.008 -0.0897,0.22818 -0.29585,0.33086 -0.45795,0.22819 -0.16211,-0.10264 -0.29475,-0.0292 -0.29475,0.16308 0,0.19235 -0.14502,0.34973 -0.32226,0.34973 -0.17725,0 -0.32227,-0.37152 -0.32227,-0.8256 0,-0.45409 -0.14502,-0.8256 -0.32227,-0.8256 -0.17725,0 -0.32227,0.29721 -0.32227,0.66047 0,0.36327 -0.13918,0.66049 -0.30929,0.66049 -0.17011,0 -0.27888,-0.43356 -0.2417,-0.96349 0.0503,-0.71781 0.22211,-0.95169 0.67363,-0.9172 0.33334,0.0254 0.75484,0.29042 0.93668,0.58881 0.18706,0.30695 0.58611,0.47406 0.91899,0.38487 0.41389,-0.11095 0.68325,0.0981 0.90838,0.70491 0.17602,0.47442 0.46865,0.86258 0.65028,0.86258 0.46681,0 0.41129,-0.57578 -0.0726,-0.75287 -0.22156,-0.0811 -0.28319,-0.27799 -0.13696,-0.43757 0.14841,-0.16196 0.41419,-0.0185 0.60162,0.32465 0.27102,0.49628 0.38967,0.52758 0.61543,0.16237 0.18511,-0.29944 0.28135,-0.31943 0.28462,-0.0592 0.003,0.21633 -0.14009,0.48516 -0.31734,0.59742 -0.59727,0.37826 -0.33248,0.87343 0.34862,0.65191 0.56085,-0.18241 0.65336,-0.0955 0.56397,0.5298 -0.0951,0.6647 -0.84983,1.32002 -0.95287,0.82725 z m -5.59941,-1.18336 c -0.10949,-0.18163 -0.0455,-0.33024 0.14212,-0.33024 0.1877,0 0.34129,0.14861 0.34129,0.33024 0,0.18163 -0.064,0.33024 -0.14212,0.33024 -0.0781,0 -0.23174,-0.14861 -0.34129,-0.33024 z m 7.815,-1.59494 c -2.0686,-0.69831 -3.46438,-1.3444 -3.46438,-1.60361 0,-0.56968 0.008,-0.56821 2.12566,0.39149 1.00196,0.45408 1.98498,0.82751 2.18449,0.82985 0.1995,0.002 1.08784,0.36215 1.97408,0.79956 2.23764,1.10444 1.25888,0.95959 -2.81985,-0.41729 z m -8.76903,-1.08823 c 0.13636,-0.44026 0.0543,-0.80752 -0.21998,-0.98567 -0.3479,-0.22589 -0.33008,-0.28499 0.0872,-0.28901 0.70288,-0.007 1.36526,0.85661 1.13301,1.47683 -0.10295,0.27476 -0.41894,0.49956 -0.70232,0.49956 -0.37866,0 -0.45762,-0.18599 -0.29789,-0.70171 z m 0.66534,-0.52981 c -0.10709,-0.10976 -0.18326,0.0853 -0.16926,0.43344 0.0155,0.38471 0.0919,0.46296 0.1947,0.19952 0.0931,-0.23839 0.0816,-0.52322 -0.0254,-0.63296 z m -2.93399,0.29727 c -0.69884,-0.63108 -1.45021,-1.8426 -1.45021,-2.33837 0,-0.17018 0.4406,-0.0842 0.97909,0.19111 0.71568,0.36585 0.92891,0.66253 0.79257,1.10274 -0.10255,0.33122 -0.0356,0.69781 0.14885,0.81463 0.19084,0.12087 0.33537,-0.0807 0.33537,-0.46757 0,-0.37399 0.14503,-0.67998 0.32228,-0.67998 0.17723,0 0.32226,0.44583 0.32226,0.99073 0,1.12504 -0.48837,1.25528 -1.45021,0.38671 z m 5.39799,-0.54882 c -1.07459,-0.47861 -1.41453,-1.15886 -0.57913,-1.15886 0.80684,0 2.1099,0.74659 2.1099,1.20886 0,0.54648 -0.20672,0.53973 -1.53077,-0.05 z m 3.78665,-0.99374 c 0,-0.27245 -0.16919,-0.49537 -0.37598,-0.49537 -0.20679,0 -0.30006,-0.0778 -0.20726,-0.17288 0.0928,-0.095 0.407,-0.0792 0.69825,0.0353 0.57139,0.22469 0.73738,1.12829 0.20726,1.12829 -0.17724,0 -0.32227,-0.22292 -0.32227,-0.49537 z m -11.71423,-0.31966 c -0.0999,-0.26664 -0.0593,-0.56219 0.09,-0.65677 0.14937,-0.0946 0.34698,0.12355 0.43917,0.48478 0.19266,0.75496 -0.25624,0.90085 -0.52918,0.17199 z m 4.26382,-0.17116 c -3.40687,-1.41892 -3.91893,-1.67364 -3.73775,-1.8593 0.3169,-0.32475 5.31839,1.52454 5.51046,2.03748 0.22514,0.60118 0.0584,0.58442 -1.77271,-0.17818 z m 5.58126,-0.0706 c -0.2127,-0.21796 -0.38673,-0.51517 -0.38673,-0.66048 0,-0.48658 0.48538,-0.27094 0.89202,0.39629 0.44068,0.72311 0.11083,0.89557 -0.50529,0.26419 z m 7.99223,-0.27721 c 0,-0.55948 0.0761,-0.60142 0.44959,-0.24769 0.4638,0.4393 0.38725,0.9212 -0.14634,0.9212 -0.16678,0 -0.30325,-0.30308 -0.30325,-0.67351 z m -9.47887,-0.0903 c -0.33498,-0.251 -0.4714,-0.54356 -0.30315,-0.65011 0.42508,-0.26923 1.18607,0.26463 1.0358,0.72664 -0.0884,0.27186 -0.29675,0.2501 -0.73265,-0.0765 z m -1.33315,-0.20034 c 0.10068,-0.16699 -0.36204,-0.48535 -1.02835,-0.70748 -0.6663,-0.22211 -1.50151,-0.60906 -1.85601,-0.85987 -0.58658,-0.41504 -0.53075,-0.44119 0.62091,-0.29089 0.696,0.0909 1.34859,0.29087 1.45021,0.44454 0.25605,0.38724 1.39041,0.79238 1.16305,0.41539 -0.10068,-0.167 -0.0358,-0.39697 0.1444,-0.51106 0.18013,-0.11404 0.32752,0.0121 0.32752,0.28042 0,0.74929 -0.35677,1.53258 -0.69804,1.53258 -0.16875,0 -0.2244,-0.13663 -0.12365,-0.30363 z m 9.72797,-0.19363 c -0.1123,-0.29975 10e-4,-0.49346 0.28851,-0.49346 0.52123,0 0.63981,0.51603 0.18478,0.80421 -0.15867,0.10049 -0.37165,-0.0393 -0.47329,-0.31075 z m -5.06588,-15.15527 c -0.48124,-0.47001 -13.73591,-5.28385 -15.68777,-5.69749 -4.3442201,-0.92062 -3.14606,0.005 2.7495,2.12317 6.78882,2.43958 13.74363,4.3609 12.93827,3.57432 z m 2.14563,-21.29472 c -0.23947,-0.39705 -1.47424,-0.7042 -1.47424,-0.3667 0,0.2982 0.56816,0.59025 1.22752,0.63101 0.23202,0.0144 0.34305,-0.10465 0.24672,-0.26431 z"
     id="path9680"
     inkscape:connector-curvature="0" />
</svg>
