<?xml version="1.0" encoding="UTF-8" standalone="no"?>
<svg
   xmlns:dc="http://purl.org/dc/elements/1.1/"
   xmlns:cc="http://creativecommons.org/ns#"
   xmlns:rdf="http://www.w3.org/1999/02/22-rdf-syntax-ns#"
   xmlns:svg="http://www.w3.org/2000/svg"
   xmlns="http://www.w3.org/2000/svg"
   xmlns:sodipodi="http://sodipodi.sourceforge.net/DTD/sodipodi-0.dtd"
   xmlns:inkscape="http://www.inkscape.org/namespaces/inkscape"
   style="font-size:12px;font-style:normal;font-weight:normal;fill:#000000;fill-opacity:1;stroke:#000000;stroke-width:1;stroke-linecap:square;stroke-linejoin:miter;stroke-miterlimit:10;stroke-opacity:1;stroke-dasharray:none;stroke-dashoffset:0;font-family:Dialog"
   width="495.15762"
   height="93.955772"
   id="svg4733"
   version="1.1"
   inkscape:version="0.48.4 r9939"
   sodipodi:docname="game.svg">
  <metadata
     id="metadata4986">
    <rdf:RDF>
      <cc:Work
         rdf:about="">
        <dc:format>image/svg+xml</dc:format>
        <dc:type
           rdf:resource="http://purl.org/dc/dcmitype/StillImage" />
        <dc:title></dc:title>
      </cc:Work>
    </rdf:RDF>
  </metadata>
  <sodipodi:namedview
     pagecolor="#ffffff"
     bordercolor="#666666"
     borderopacity="1"
     objecttolerance="10"
     gridtolerance="10"
     guidetolerance="10"
     inkscape:pageopacity="0"
     inkscape:pageshadow="2"
     inkscape:window-width="1366"
     inkscape:window-height="715"
     id="namedview4984"
     showgrid="false"
     fit-margin-top="0"
     fit-margin-left="0"
     fit-margin-right="0"
     fit-margin-bottom="0"
     inkscape:zoom="3.8047958"
     inkscape:cx="29.846748"
     inkscape:cy="41.28278"
     inkscape:window-x="-8"
     inkscape:window-y="-8"
     inkscape:window-maximized="1"
     inkscape:current-layer="svg4733" />
  <!--Generated by Alchemy (http://al.chemy.org) with Batik SVG Generator-->
  <defs
     id="genericDefs" />
  <path
     style="fill:#000000;stroke-width:0.69599265"
     d="m 7.4981579,93.710016 -6.75961959,-0.238054 0,-4.748755 0,-4.74876 6.54063959,0 6.5406401,0 0.21899,5.143374 c 0.12043,2.828856 0.21898,5.072924 0.21898,4.986814 0,-0.08612 -3.04184,-0.263689 -6.7596301,-0.394619 z m 8.4083201,-4.961123 0,-4.774455 6.59476,0 6.59476,0 0,4.774455 0,4.774454 -6.59476,0 -6.59476,0 z m 15.16794,0 0,-4.774455 6.59476,0 6.59475,0 0,4.774455 0,4.774454 -6.59475,0 -6.59476,0 z m 14.50847,0 0,-4.774455 6.59475,0 6.59476,0 0,4.774455 0,4.774454 -6.59476,0 -6.59475,0 z m 15.16794,0 0,-4.774455 6.59476,0 6.59476,0 0,4.774455 0,4.774454 -6.59476,0 -6.59476,0 z m 29.67641,0 0,-4.774455 6.594762,0 6.59475,0 0,4.774455 0,4.774454 -6.59475,0 -6.594762,0 z m 59.487562,-0.183633 0.195,-4.958088 6.59475,0 6.59477,0 0.19499,4.958088 0.19501,4.958087 -6.98477,0 -6.98475,0 z M 0.73853831,74.425516 l 0,-7.345317 6.59474959,0 6.5947601,0 0,7.345317 0,7.345315 -6.5947601,0 -6.59474959,0 z m 15.16793969,0 0,-7.345317 6.59476,0 6.59476,0 0,7.345317 0,7.345315 -6.59476,0 -6.59476,0 z m 15.16794,0 0,-7.345317 6.59476,0 6.59475,0 0,7.345317 0,7.345315 -6.59475,0 -6.59476,0 z m 14.50847,0 0,-7.345317 6.59475,0 6.59476,0 0,7.345317 0,7.345315 -6.59476,0 -6.59475,0 z m 15.16794,0 0,-7.345317 6.59476,0 6.59476,0 0,7.345317 0,7.345315 -6.59476,0 -6.59476,0 z m 14.8579,6.646275 c -0.21334,-0.384468 -0.34503,-3.68986 -0.29264,-7.345315 l 0.0952,-6.646277 6.51875,0 6.51874,0 0,7.345317 0,7.345315 -6.22609,0 c -3.42436,0 -6.40065,-0.314564 -6.61399,-0.69904 z m 29.986452,-6.609645 0,-7.381947 6.26502,0 6.26503,0 0,7.251869 0,7.251868 -6.26503,0.130079 -6.26502,0.13007 z m 14.50847,-0.03665 0,-7.345317 6.59476,0 6.59476,0 0,7.345317 0,7.345315 -6.59476,0 -6.59476,0 z M 1.0121983,64.937786 C 0.86168831,64.769467 0.73853831,61.368785 0.73853831,57.380734 l 0,-7.251009 6.59474959,0.144498 6.5947601,0.144496 -0.002,7.412563 -0.002,7.412568 -6.3196701,0 c -3.4757996,0 -6.4427996,-0.137725 -6.5933296,-0.306057 z m 14.8941097,-7.249488 1.7e-4,-7.555547 6.42989,0.210231 6.42989,0.21023 0,7.260447 0,7.260441 -6.43005,0.08488 -6.43006,0.08487 z m 15.16811,0.0037 0,-7.600711 6.42989,0.231135 6.42989,0.231143 0.18875,7.161682 0.18875,7.161682 -4.80508,0.05964 c -2.64279,0.03283 -5.62118,0.126369 -6.61864,0.207887 l -1.81356,0.148214 0,-7.600705 z m 59.35282,0.206882 0,-7.712581 6.594762,0 6.59475,0 0,7.712581 0,7.712581 -6.59475,0 -6.594762,0 z m -44.84435,0 0,-6.978049 6.59475,0 6.59476,0 0,6.978049 0,6.978049 -6.59476,0 -6.59475,0 z m 29.72742,0 0.11678,-6.978049 6.51087,0 6.51085,0 0,6.978049 0,6.978049 -6.62764,0 -6.62764,0 z M 0.73853831,41.398165 l 0,-7.371912 6.61862959,0 6.6186401,0 -0.18875,7.161682 -0.18875,7.161682 -6.4298801,0.210231 -6.42988959,0.21023 z m 15.16793969,-0.02659 0,-7.345315 6.59476,0 6.59476,0 0,7.345315 0,7.345315 -6.59476,0 -6.59476,0 z m 15.16794,0.02659 0,-7.371912 6.61864,0 6.61864,0 -0.18875,7.161682 -0.18875,7.161682 -6.42989,0.210231 -6.42989,0.21023 z m 14.50847,-0.02659 0,-7.345315 6.59475,0 6.59476,0 0,7.345315 0,7.345315 -6.59476,0 -6.59475,0 z m 15.16794,0 0,-7.345315 6.59476,0 6.59476,0 0,7.345315 0,7.345315 -6.59476,0 -6.59476,0 z m 44.844352,0.07858 0,-7.423902 6.26502,0 6.26503,0 0,6.978049 0,6.97805 -5.22188,0 c -2.87202,0 -5.69128,0.20063 -6.26502,0.445852 -0.90881,0.388436 -1.04315,-0.510198 -1.04315,-6.978049 z m 44.18488,-0.07858 0,-7.345315 6.92449,0 6.9245,0 0,7.345315 0,7.345315 -6.9245,0 -6.92449,0 z m 30.21481,-0.0015 -0.20866,-7.346916 6.75963,0.0015 6.75962,0.0015 0,7.345315 0,7.345315 -6.55096,0 -6.55095,0 -0.20868,-7.346917 z M 0.73853831,24.477349 l 0,-7.345315 6.59474959,0 6.5947601,0 0,7.345315 0,7.345315 -6.5947601,0 -6.59474959,0 z m 15.16793969,0 0,-7.345315 6.59476,0 6.59476,0 0,7.345315 0,7.345315 -6.59476,0 -6.59476,0 z m 15.16794,-0.01646 0,-7.36179 6.59476,0.123393 6.59475,0.123394 0,7.238397 0,7.238396 -6.59475,0 -6.59476,0 z m 2.30817,2.220048 c 0.6565,-0.807985 1.04525,-1.469063 0.8639,-1.469063 -0.18136,0 -0.86687,0.661078 -1.52338,1.469063 -0.6565,0.807984 -1.04525,1.469063 -0.8639,1.469063 0.18136,0 0.86688,-0.661079 1.52338,-1.469063 z m 5.27581,-5.876252 c 0.6565,-0.807985 1.04525,-1.469063 0.8639,-1.469063 -0.18136,0 -0.86688,0.661078 -1.52338,1.469063 -0.65651,0.807984 -1.04526,1.469063 -0.8639,1.469063 0.18135,0 0.86687,-0.661079 1.52338,-1.469063 z m 6.92449,3.672657 0,-7.345315 6.59475,0 6.59476,0 0,7.345315 0,7.345315 -6.59476,0 -6.59475,0 z m 15.16794,0 0,-7.345315 6.59476,0 6.59476,0 0,7.345315 0,7.345315 -6.59476,0 -6.59476,0 z m 14.64946,0.183634 0.18875,-7.161683 6.42988,-0.21023 6.42989,-0.21023 0,7.371912 0,7.371912 -6.61863,0 -6.61864,0 z m 15.02695,-0.183634 c 0,-8.445834 -0.86248,-7.718237 8.143952,-6.870264 l 5.04556,0.475044 0,6.870271 0,6.870264 -6.59475,0 -6.594762,0 z m 14.508472,0 0,-7.345315 6.92449,0 6.9245,0 0,7.345315 0,7.345315 -6.9245,0 -6.92449,0 z M 0.74306831,8.1340231 l 0.005,-7.52894793 6.42536959,0 6.4253601,0 0.18794,7.52894793 0.18794,7.5289479 -6.6178401,0 -6.61781959,0 0.005,-7.5289479 z m 15.16340969,0.2102302 0,-7.37191244 6.61863,0 6.61864,0 -0.18875,7.16168224 -0.18874,7.1616819 -6.42989,0.210231 -6.42989,0.21023 z m 15.16651,-0.2684565 -0.002,-7.47072163 6.59619,0.2324131 6.5962,0.23242043 0,6.1422628 c 0,7.9927825 -0.27517,8.2953795 -7.56356,8.3173645 l -5.62596,0.01697 -0.002,-7.4707145 z m 15.22712,6.9965082 c -0.44894,-0.16668 -0.71722,-2.853545 -0.71722,-7.1831233 l 0,-6.91684084 6.59475,0 6.59476,0 0,6.97804934 0,6.9780498 -4.12172,0.05964 c -2.26695,0.03283 -4.91184,0.125105 -5.87753,0.205074 -0.9657,0.07996 -2.07857,0.02556 -2.47304,-0.120882 z m 4.55859,-8.1312932 c 0,-0.2019961 -0.8903,0.5827626 -1.97843,1.7439099 -1.08814,1.1611475 -1.97843,2.2764453 -1.97843,2.4784413 0,0.201997 0.89029,-0.582762 1.97843,-1.7439097 1.08813,-1.1611474 1.97843,-2.2764453 1.97843,-2.4784415 z m 3.29737,-3.3978106 c 0.85188,-1.0099808 1.40048,-1.8363287 1.21913,-1.8363287 -0.18136,0 -1.02673,0.8263479 -1.8786,1.8363287 -0.85188,1.0099809 -1.40048,1.8363289 -1.21913,1.8363289 0.18136,0 1.02673,-0.826348 1.8786,-1.8363289 z m 6.59332,4.5908219 0.002,-7.16168224 6.59475,0 6.59476,0 0,6.92926914 0,6.929262 -6.59619,0.23242 -6.59619,0.232413 0.002,-7.1616819 z m 14.50991,-0.1836329 0,-7.71258079 6.59476,0 6.59475,0 0,7.71258079 0,7.7125808 -6.59475,0 -6.59476,0 z m 30.335882,0 0,-6.97804934 6.26502,0 6.26503,0 0,6.97804934 0,6.9780498 -6.26503,0 -6.26502,0 z"
     id="path10197"
     inkscape:connector-curvature="0"
     sodipodi:nodetypes="scccccsssccccccccccccccccccccccccccccccccccccccccccccccccccccccccccccccccccccccccccccccccccccccccccccccccccccscccccsccccccccccccccccccccccccccscccccccccccccccccssccccccccccccccccccccccscccccccsccccccccccccccccccccccccccccccccccccscccccccscccccsssccccccccccccccccccccccccccccccccccccccscccccccsssssscssscccccccccccccccccccscccccccsccccccscccccccccccccccccccccccccccccscssccccsscccccsccssssssscsscccccccccccccccccccccccccccccc" />
</svg>
