<?xml version="1.0" encoding="UTF-8" standalone="no"?>
<svg
   xmlns:dc="http://purl.org/dc/elements/1.1/"
   xmlns:cc="http://creativecommons.org/ns#"
   xmlns:rdf="http://www.w3.org/1999/02/22-rdf-syntax-ns#"
   xmlns:svg="http://www.w3.org/2000/svg"
   xmlns="http://www.w3.org/2000/svg"
   xmlns:sodipodi="http://sodipodi.sourceforge.net/DTD/sodipodi-0.dtd"
   xmlns:inkscape="http://www.inkscape.org/namespaces/inkscape"
   style="font-size:12px;font-style:normal;font-weight:normal;fill:#000000;fill-opacity:1;stroke:#000000;stroke-width:1;stroke-linecap:square;stroke-linejoin:miter;stroke-miterlimit:10;stroke-opacity:1;stroke-dasharray:none;stroke-dashoffset:0;font-family:Dialog"
   width="170"
   height="150"
   id="svg2985"
   version="1.1"
   inkscape:version="0.48.4 r9939"
   sodipodi:docname="logo.svg">
  <metadata
     id="metadata3012">
    <rdf:RDF>
      <cc:Work
         rdf:about="">
        <dc:format>image/svg+xml</dc:format>
        <dc:type
           rdf:resource="http://purl.org/dc/dcmitype/StillImage" />
      </cc:Work>
    </rdf:RDF>
  </metadata>
  <sodipodi:namedview
     pagecolor="#ffffff"
     bordercolor="#666666"
     borderopacity="1"
     objecttolerance="10"
     gridtolerance="10"
     guidetolerance="10"
     inkscape:pageopacity="0"
     inkscape:pageshadow="2"
     inkscape:window-width="1366"
     inkscape:window-height="715"
     id="namedview3010"
     showgrid="false"
     inkscape:zoom="1.0074671"
     inkscape:cx="240.0872"
     inkscape:cy="150.48234"
     inkscape:window-x="-8"
     inkscape:window-y="-8"
     inkscape:window-maximized="1"
     inkscape:current-layer="svg2985" />
  <!--Generated by Alchemy (http://al.chemy.org) with Batik SVG Generator-->
  <defs
     id="genericDefs" />
  <g
     id="g2988"
     transform="translate(-562.86219,-290.69157)"
     style="fill:#2a0100;fill-opacity:0.63492066">
    <g
       style="fill:#2a0100;stroke:#ffffff;fill-opacity:0.63492066"
       id="g2990">
      <path
         style="fill:#2a0100;fill-opacity:0.63492066;stroke:none"
         d="m 579,335 c 2.41863,1.3696 4.61369,1.18146 6.53916,-0.88502 5.42867,-1.22437 9.24774,-5.82749 11.76053,-10.51505 4.27019,1.65768 3.56411,8.73707 3.70031,13.11994 -0.37321,9.20541 0.98106,18.34999 0.93204,27.53745 -2.0963,2.43871 -1.28502,-7.30654 -0.033,-9.33477 1.03481,-6.80202 2.04422,-13.82015 6.75809,-19.19981 2.48992,-7.60321 11.48967,-4.24631 11.13527,2.90861 1.70029,4.14814 5.78435,16.11008 10.65396,8.54376 3.16298,-2.33087 4.67898,-15.89415 8.57923,-8.83321 3.75047,6.86274 0.38359,19.39763 9.0952,22.1464 6.86566,-1.43178 6.77754,-10.36745 6.50949,-15.98877 -2.03131,-7.95143 -13.73491,-1.90632 -15.896,3.73051 -2.05383,4.87642 -6.2842,13.69906 -0.23429,17.26996 7.63773,2.93466 11.31338,-7.76301 10.5144,-13.77643 -1.26116,2.88046 2.22447,16.59166 9.0741,10.5716 1.87787,-4.42021 1.76701,-13.05259 5.99644,-14.73637 5.62672,5.88517 1.77485,16.48588 9.16164,21.12568 6.63222,2.36728 12.63065,-3.92595 14.99811,-9.50197 2.09864,-5.83715 -2.14533,-12.27481 -8.47337,-12.10312 -5.93568,0.0458 -14.60125,-1.81421 -17.47186,5.01133 -1.6932,6.71654 -2.72883,15.04309 2.67854,20.42393 4.83356,5.67598 8.98169,12.29227 10.7698,19.56685 2.44239,7.41854 -5.16584,12.35442 -11.7478,11.9185 -10.38977,0.83036 -18.4532,-11.16461 -14.51,-20.5449 3.75437,-5.37875 7.46708,-10.85309 12.00725,-15.61733 4.55356,-4.75548 -0.75984,-13.09523 -5.68867,-6.42558 -4.42178,5.52476 0.36058,18.71833 8.18698,12.06624 5.91602,-2.23478 14.0579,2.28775 18.58844,-3.75573 4.88331,-4.59942 3.54807,-13.7865 -4.16525,-13.65864 -5.60392,0.37262 -15.66641,-2.66751 -16.2072,5.67309 -1.56387,6.82874 1.95113,14.22875 8.59656,16.79348 8.63202,3.57507 20.09708,4.09885 26.90286,-3.35225 3.19989,-6.3877 4.60589,-13.73225 5.23007,-20.84414 0.75062,-6.21398 -0.75616,-13.05459 -6.21534,-16.77614 -5.70743,-5.4024 -14.10575,-5.75101 -21.50855,-5.39197 -5.57351,3.86244 -3.29839,13.04351 -4.21715,19.23635 -0.11557,10.92227 1.00514,22.59719 -4.48756,32.50009 -6.0642,7.54922 -17.91946,5.71372 -24.93374,0.48253 -6.63653,-5.32827 -14.40975,-11.02462 -16.66607,-19.6307 1.7932,-8.01461 12.35163,-3.04723 17.9873,-6.10769 6.52651,-0.87475 12.79225,-2.74549 19.08953,-4.53247 7.99089,-1.36911 15.06569,-6.29063 23.28172,-7.62973 5.62508,-2.68915 11.64599,-4.81413 16.80067,-8.3365 4.72857,-2.65171 6.29404,-12.81024 1.17333,-12.4148 9.4355,-1.80924 4.20078,10.8407 -0.56821,13.54523 -7.42048,6.55191 -16.8844,9.88067 -26.44392,11.81664 -6.90288,3.89628 -14.45987,4.89319 -21.88759,7.30965 -5.94564,1.11408 -11.86028,2.45294 -17.80663,3.53184 -3.91955,0.38452 -8.03611,-0.5262 -11.80983,0.61911 2.5416,4.09708 6.44722,8.48529 9.4781,12.73722 6.41542,7.02425 16.11723,14.38712 26.1588,10.88306 7.54301,-3.14052 8.74215,-12.88913 8.6537,-20.13294 0.22798,-9.16252 -0.57202,-18.40073 0.5573,-27.50695 1.09444,-7.68529 10.26296,-9.88029 16.69095,-7.93615 7.108,1.20286 13.9094,5.39196 16.39367,12.43793 3.94826,10.86565 1.52743,23.19135 -3.27112,33.39765 -4.18889,6.33098 -12.90259,6.74669 -19.79375,6.56394 -7.01402,0.80658 -13.70089,-3.42103 -16.3477,-9.89371 -2.8298,-5.12142 -5.20185,-13.85092 1.27665,-17.26383 6.55672,-3.32405 15.59189,-2.09361 20.7619,3.1706 4.51676,5.22785 -0.19579,13.10439 -5.57135,15.39335 -4.95666,2.49507 -10.01653,-1.77431 -13.85311,-2.18868 -1.86308,8.49995 -13.39918,3.68205 -13.69618,-3.23953 -2.1387,-6.70083 7.14432,-15.38589 12.33314,-9.47764 0.5259,6.89898 -3.36189,13.2003 -8.09994,17.87819 -3.39649,4.88738 -7.92994,11.80016 -4.22443,17.64833 4.0086,6.07773 12.38935,7.88536 19.13687,6.48129 4.32366,-3.62765 2.28797,-10.7641 0.59777,-15.43627 -2.68222,-6.97714 -9.13101,-11.69953 -11.53314,-18.74485 -2.6672,-8.31729 -0.51712,-20.03535 8.61676,-23.25778 5.82037,-0.24792 12.58779,0.53317 17.59454,3.60219 5.12434,4.98313 5.3738,14.11885 -0.55218,18.60743 -4.40399,4.66323 -13.14968,5.87235 -17.00284,-0.11413 -3.76876,-5.4795 -2.83493,-12.6595 -5.75136,-18.38772 -1.56837,5.67864 -0.96127,15.32088 -7.55275,17.48949 -7.25531,0.49711 -9.80487,-8.41125 -8.43205,-14.15772 1.71776,-8.74275 5.17093,6.85488 2.2683,9.94805 -1.27622,6.1868 -10.06713,10.20745 -14.62027,5.00337 -4.32972,-5.96473 -0.43651,-13.84282 3.28443,-19.12971 2.55911,-4.80151 7.66315,-8.94616 13.40098,-7.12854 6.80948,1.6738 6.07543,10.46905 3.78531,15.47568 -1.42882,6.08339 -8.58645,11.92916 -12.71921,4.45737 C 639.99433,353.52137 638.3605,346.83054 639,340 c -1.30836,-4.29429 -4.77192,5.199 -5.9331,7.33258 -1.75216,10.72915 -11.92818,2.5596 -13.3989,-3.77788 -2.56471,-3.01737 -2.68687,-18.20511 -7.48846,-9.60125 -5.44957,6.86732 -7.24109,15.53505 -8.96542,23.90187 -3.27428,6.32393 -4.65779,-9.21303 -4.20866,-12.26889 -0.30635,-6.19934 0.49296,-12.55252 -0.38686,-18.6719 -2.53259,4.60331 -7.58497,7.56992 -12.6176,9.44877 C 583.66733,335.90887 581.33367,335.45443 579,335 z"
         id="path2994"
         inkscape:connector-curvature="0" />
      <path
         style="fill:#2a0100;fill-opacity:0.63492066;stroke:none"
         d="m 717,335 c -2.41863,1.3696 -4.61369,1.18146 -6.53916,-0.88502 -5.42867,-1.22437 -9.24774,-5.82749 -11.76053,-10.51505 -4.27019,1.65768 -3.56411,8.73707 -3.70031,13.11994 0.37321,9.20541 -0.98106,18.34999 -0.93204,27.53745 2.0963,2.43871 1.28502,-7.30654 0.033,-9.33477 -1.03481,-6.80202 -2.04422,-13.82015 -6.75809,-19.19981 -2.48992,-7.60321 -11.48967,-4.24631 -11.13527,2.90861 -1.70029,4.14814 -5.78435,16.11008 -10.65396,8.54376 -3.16298,-2.33087 -4.67898,-15.89415 -8.57923,-8.83321 -3.75047,6.86274 -0.38359,19.39763 -9.0952,22.1464 -6.86566,-1.43178 -6.77754,-10.36745 -6.50949,-15.98877 2.03131,-7.95143 13.73491,-1.90632 15.896,3.73051 2.05383,4.87642 6.2842,13.69906 0.23429,17.26996 -7.63773,2.93466 -11.31338,-7.76301 -10.5144,-13.77643 1.26116,2.88046 -2.22447,16.59166 -9.0741,10.5716 -1.87787,-4.42021 -1.76701,-13.05259 -5.99644,-14.73637 -5.62672,5.88517 -1.77485,16.48588 -9.16164,21.12568 -6.63222,2.36728 -12.63065,-3.92595 -14.99811,-9.50197 -2.09864,-5.83715 2.14533,-12.27481 8.47337,-12.10312 5.93568,0.0458 14.60125,-1.81421 17.47186,5.01133 1.6932,6.71654 2.72883,15.04309 -2.67854,20.42393 -4.83356,5.67598 -8.98169,12.29227 -10.7698,19.56685 -2.44239,7.41854 5.16584,12.35442 11.7478,11.9185 10.38977,0.83036 18.4532,-11.16461 14.51,-20.5449 -3.75437,-5.37875 -7.46708,-10.85309 -12.00725,-15.61733 -4.55356,-4.75548 0.75984,-13.09523 5.68867,-6.42558 4.42178,5.52476 -0.36058,18.71833 -8.18698,12.06624 -5.91602,-2.23478 -14.0579,2.28775 -18.58844,-3.75573 -4.88331,-4.59942 -3.54807,-13.7865 4.16525,-13.65864 5.60392,0.37262 15.66641,-2.66751 16.2072,5.67309 1.56387,6.82874 -1.95113,14.22875 -8.59656,16.79348 -8.63202,3.57507 -20.09708,4.09885 -26.90286,-3.35225 -3.19989,-6.3877 -4.60589,-13.73225 -5.23007,-20.84414 -0.75047,-6.21394 0.75614,-13.05461 6.21534,-16.77614 5.70743,-5.4024 14.10575,-5.75101 21.50855,-5.39197 5.57351,3.86244 3.29839,13.04351 4.21715,19.23635 0.11557,10.92227 -1.00514,22.59719 4.48756,32.50009 6.0642,7.54922 17.91946,5.71372 24.93374,0.48253 6.63653,-5.32827 14.40975,-11.02462 16.66607,-19.6307 -1.7932,-8.01461 -12.35163,-3.04723 -17.9873,-6.10769 -6.52651,-0.87475 -12.79225,-2.74549 -19.08953,-4.53247 -7.99089,-1.36911 -15.06569,-6.29063 -23.28172,-7.62973 -5.62508,-2.68915 -11.64599,-4.81413 -16.80067,-8.3365 -4.72857,-2.65171 -6.29404,-12.81024 -1.17333,-12.4148 -9.4355,-1.80924 -4.20078,10.8407 0.56821,13.54523 7.42048,6.55191 16.8844,9.88067 26.44392,11.81664 6.90288,3.89628 14.45987,4.89319 21.88759,7.30965 5.94564,1.11408 11.86028,2.45294 17.80663,3.53184 3.91955,0.38452 8.03611,-0.5262 11.80983,0.61911 -2.5416,4.09708 -6.44722,8.48529 -9.4781,12.73722 -6.41542,7.02425 -16.11723,14.38712 -26.1588,10.88306 -7.54301,-3.14052 -8.74215,-12.88913 -8.6537,-20.13294 -0.22798,-9.16252 0.57202,-18.40073 -0.5573,-27.50695 -1.09444,-7.68529 -10.26296,-9.88029 -16.69095,-7.93615 -7.108,1.20286 -13.9094,5.39196 -16.39367,12.43793 -3.94826,10.86565 -1.52743,23.19135 3.27112,33.39765 4.18889,6.33098 12.90259,6.74669 19.79375,6.56394 7.01402,0.80658 13.70089,-3.42103 16.3477,-9.89371 2.8298,-5.12142 5.20185,-13.85092 -1.27665,-17.26383 -6.55672,-3.32405 -15.59189,-2.09361 -20.7619,3.1706 -4.51676,5.22785 0.19579,13.10439 5.57135,15.39335 4.95666,2.49507 10.01653,-1.77431 13.85311,-2.18867 1.86308,8.49994 13.39918,3.68204 13.69618,-3.23954 2.1387,-6.70083 -7.14432,-15.38589 -12.33314,-9.47764 -0.5259,6.89898 3.36189,13.2003 8.09994,17.87819 3.39649,4.88738 7.92994,11.80016 4.22443,17.64833 -4.0086,6.07773 -12.38935,7.88536 -19.13687,6.48129 -4.32366,-3.62765 -2.28797,-10.7641 -0.59777,-15.43627 2.68222,-6.97714 9.13101,-11.69953 11.53314,-18.74485 2.6672,-8.31729 0.51712,-20.03535 -8.61676,-23.25778 -5.82037,-0.24792 -12.58779,0.53317 -17.59454,3.60219 -5.12434,4.98313 -5.3738,14.11885 0.55218,18.60743 4.40399,4.66323 13.14968,5.87235 17.00284,-0.11413 3.76876,-5.4795 2.83493,-12.6595 5.75136,-18.38773 1.56837,5.67865 0.96127,15.32089 7.55275,17.4895 7.25531,0.49711 9.80487,-8.41125 8.43205,-14.15772 -1.71776,-8.74275 -5.17093,6.85488 -2.2683,9.94805 1.27622,6.1868 10.06713,10.20745 14.62027,5.00337 4.32972,-5.96473 0.43651,-13.84282 -3.28443,-19.12971 -2.55911,-4.80151 -7.66315,-8.94616 -13.40098,-7.12854 -6.80948,1.6738 -6.07543,10.46905 -3.78531,15.47568 1.42882,6.08339 8.58645,11.92916 12.71921,4.45737 C 656.00567,353.52137 657.6395,346.83054 657,340 c 1.30836,-4.29429 4.77192,5.199 5.9331,7.33258 1.75216,10.72915 11.92818,2.5596 13.3989,-3.77788 2.56471,-3.01737 2.68687,-18.20511 7.48846,-9.60125 5.44957,6.86732 7.24109,15.53505 8.96542,23.90187 3.27428,6.32393 4.65779,-9.21303 4.20866,-12.26889 0.30635,-6.19934 -0.49296,-12.55252 0.38686,-18.6719 2.53259,4.60331 7.58497,7.56992 12.6176,9.44877 2.33367,-0.45443 4.66733,-0.90887 7.001,-1.3633 z"
         id="path2996"
         inkscape:connector-curvature="0" />
      <path
         style="fill:#2a0100;fill-opacity:0.63492066;stroke:none"
         d="m 579,401 c 2.41863,-1.3696 4.61369,-1.18146 6.53916,0.88502 5.42867,1.22437 9.24774,5.82749 11.76053,10.51505 4.27019,-1.65768 3.56411,-8.73707 3.70031,-13.11994 -0.37321,-9.20541 0.98106,-18.34999 0.93204,-27.53745 -2.0963,-2.43871 -1.28502,7.30654 -0.033,9.33477 1.03481,6.80202 2.04422,13.82015 6.75809,19.19981 2.48992,7.60321 11.48967,4.24631 11.13527,-2.90861 1.70029,-4.14814 5.78435,-16.11008 10.65396,-8.54376 3.16298,2.33087 4.67898,15.89415 8.57923,8.83321 3.75047,-6.86274 0.38359,-19.39763 9.0952,-22.1464 6.86566,1.43178 6.77754,10.36745 6.50949,15.98877 -2.03131,7.95143 -13.73491,1.90632 -15.896,-3.73051 -2.05383,-4.87642 -6.2842,-13.69906 -0.23429,-17.26996 7.63773,-2.93466 11.31338,7.76301 10.5144,13.77643 -1.26116,-2.88046 2.22447,-16.59166 9.0741,-10.5716 1.87787,4.42021 1.76701,13.05259 5.99644,14.73637 5.62672,-5.88517 1.77485,-16.48588 9.16164,-21.12568 6.63222,-2.36728 12.63065,3.92595 14.99811,9.50197 2.09864,5.83715 -2.14533,12.27481 -8.47337,12.10312 -5.93568,-0.0458 -14.60125,1.81421 -17.47186,-5.01133 -1.6932,-6.71654 -2.72883,-15.04309 2.67854,-20.42393 4.83356,-5.67598 8.98169,-12.29227 10.7698,-19.56685 C 678.19019,336.49996 670.58196,331.56408 664,332 c -10.38977,-0.83036 -18.4532,11.16461 -14.51,20.5449 3.75437,5.37875 7.46708,10.85309 12.00725,15.61733 4.55356,4.75548 -0.75984,13.09523 -5.68867,6.42558 -4.42178,-5.52476 0.36058,-18.71833 8.18698,-12.06624 5.91602,2.23478 14.0579,-2.28775 18.58844,3.75573 4.88331,4.59942 3.54807,13.7865 -4.16525,13.65864 -5.60392,-0.37262 -15.66641,2.66751 -16.2072,-5.67309 -1.56387,-6.82874 1.95113,-14.22875 8.59656,-16.79348 8.63202,-3.57507 20.09708,-4.09885 26.90286,3.35225 3.19989,6.3877 4.60589,13.73225 5.23007,20.84414 0.75047,6.21394 -0.75614,13.05461 -6.21534,16.77614 -5.70743,5.4024 -14.10575,5.75101 -21.50855,5.39197 -5.57351,-3.86244 -3.29839,-13.04351 -4.21715,-19.23635 -0.11557,-10.92227 1.00514,-22.59719 -4.48756,-32.50009 -6.0642,-7.54922 -17.91946,-5.71372 -24.93374,-0.48253 -6.63653,5.32827 -14.40975,11.02462 -16.66607,19.6307 1.7932,8.01461 12.35163,3.04723 17.9873,6.10769 6.52651,0.87475 12.79225,2.74549 19.08953,4.53247 7.99089,1.36911 15.06569,6.29063 23.28172,7.62973 5.62508,2.68915 11.64599,4.81413 16.80067,8.3365 4.72857,2.65171 6.29404,12.81024 1.17333,12.4148 9.4355,1.80924 4.20078,-10.8407 -0.56821,-13.54523 -7.42048,-6.55191 -16.8844,-9.88067 -26.44392,-11.81664 -6.90288,-3.89628 -14.45987,-4.89319 -21.88759,-7.30965 -5.94564,-1.11408 -11.86028,-2.45294 -17.80663,-3.53184 -3.91955,-0.38452 -8.03611,0.5262 -11.80983,-0.61911 2.5416,-4.09708 6.44722,-8.48529 9.4781,-12.73722 6.41542,-7.02425 16.11723,-14.38712 26.1588,-10.88306 7.54301,3.14052 8.74215,12.88913 8.6537,20.13294 0.22798,9.16252 -0.57202,18.40073 0.5573,27.50695 1.09444,7.68529 10.26296,9.88029 16.69095,7.93615 7.108,-1.20286 13.9094,-5.39196 16.39367,-12.43793 3.94826,-10.86565 1.52743,-23.19135 -3.27112,-33.39765 -4.18889,-6.33098 -12.90259,-6.74669 -19.79375,-6.56394 -7.01402,-0.80658 -13.70089,3.42103 -16.3477,9.89371 -2.8298,5.12142 -5.20185,13.85092 1.27665,17.26383 6.55672,3.32405 15.59189,2.09361 20.7619,-3.1706 4.51676,-5.22785 -0.19579,-13.10439 -5.57135,-15.39335 -4.95666,-2.49507 -10.01653,1.77431 -13.85311,2.18868 -1.86308,-8.49995 -13.39918,-3.68205 -13.69618,3.23953 -2.1387,6.70083 7.14432,15.38589 12.33314,9.47764 0.5259,-6.89898 -3.36189,-13.2003 -8.09994,-17.87819 -3.39649,-4.88738 -7.92994,-11.80016 -4.22443,-17.64834 4.0086,-6.07772 12.38935,-7.88535 19.13687,-6.48128 4.32366,3.62765 2.28797,10.7641 0.59777,15.43627 -2.68222,6.97714 -9.13101,11.69953 -11.53314,18.74485 -2.6672,8.31729 -0.51712,20.03535 8.61676,23.25778 5.82037,0.24792 12.58779,-0.53317 17.59454,-3.60219 5.12434,-4.98313 5.3738,-14.11885 -0.55218,-18.60743 -4.40399,-4.66323 -13.14968,-5.87235 -17.00284,0.11413 -3.76876,5.4795 -2.83493,12.6595 -5.75136,18.38772 -1.56837,-5.67864 -0.96127,-15.32088 -7.55275,-17.48949 -7.25531,-0.49711 -9.80487,8.41125 -8.43205,14.15772 1.71776,8.74275 5.17093,-6.85488 2.2683,-9.94805 -1.27622,-6.1868 -10.06713,-10.20745 -14.62027,-5.00337 -4.32972,5.96473 -0.43651,13.84282 3.28443,19.12971 2.55911,4.80151 7.66315,8.94616 13.40098,7.12854 6.80948,-1.6738 6.07543,-10.46905 3.78531,-15.47568 -1.42882,-6.08339 -8.58645,-11.92916 -12.71921,-4.45737 C 639.99433,382.47863 638.3605,389.16946 639,396 c -1.30836,4.29429 -4.77192,-5.199 -5.9331,-7.33258 -1.75216,-10.72915 -11.92818,-2.5596 -13.3989,3.77788 -2.56471,3.01737 -2.68687,18.20511 -7.48846,9.60125 -5.44957,-6.86732 -7.24109,-15.53505 -8.96542,-23.90187 -3.27428,-6.32393 -4.65779,9.21303 -4.20866,12.26889 -0.30635,6.19934 0.49296,12.55252 -0.38686,18.6719 -2.53259,-4.60331 -7.58497,-7.56992 -12.6176,-9.44877 -2.33367,0.45443 -4.66733,0.90887 -7.001,1.3633 z"
         id="path2998"
         inkscape:connector-curvature="0" />
      <path
         style="fill:#2a0100;fill-opacity:0.63492066;stroke:none"
         d="m 717,401 c -2.41863,-1.3696 -4.61369,-1.18146 -6.53916,0.88502 -5.42867,1.22437 -9.24774,5.82749 -11.76053,10.51505 -4.27019,-1.65768 -3.56411,-8.73707 -3.70031,-13.11994 0.37321,-9.20541 -0.98106,-18.34999 -0.93204,-27.53745 2.0963,-2.43871 1.28502,7.30654 0.033,9.33477 -1.03481,6.80202 -2.04422,13.82015 -6.75809,19.19981 -2.48992,7.60321 -11.48967,4.24631 -11.13527,-2.90861 -1.70029,-4.14814 -5.78435,-16.11008 -10.65396,-8.54376 -3.16298,2.33087 -4.67898,15.89415 -8.57923,8.83321 -3.75047,-6.86274 -0.38359,-19.39763 -9.0952,-22.1464 -6.86566,1.43178 -6.77754,10.36745 -6.50949,15.98877 2.03131,7.95143 13.73491,1.90632 15.896,-3.73051 2.05383,-4.87642 6.2842,-13.69906 0.23429,-17.26996 -7.63773,-2.93466 -11.31338,7.76301 -10.5144,13.77643 1.26116,-2.88046 -2.22447,-16.59166 -9.0741,-10.5716 -1.87787,4.42021 -1.76701,13.05259 -5.99644,14.73637 -5.62672,-5.88517 -1.77485,-16.48588 -9.16164,-21.12568 -6.63222,-2.36728 -12.63065,3.92595 -14.99811,9.50197 -2.09864,5.83715 2.14533,12.27481 8.47337,12.10312 5.93568,-0.0458 14.60125,1.81421 17.47186,-5.01133 1.69312,-6.71656 2.72905,-15.04315 -2.67854,-20.42393 -4.83356,-5.67598 -8.98169,-12.29227 -10.7698,-19.56685 C 617.80981,336.49996 625.41804,331.56408 632,332 c 10.38977,-0.83036 18.4532,11.16461 14.51,20.5449 -3.75437,5.37875 -7.46708,10.85309 -12.00725,15.61733 -4.55356,4.75548 0.75984,13.09523 5.68867,6.42558 4.42178,-5.52476 -0.36058,-18.71833 -8.18698,-12.06624 -5.91602,2.23478 -14.0579,-2.28775 -18.58844,3.75573 -4.88331,4.59942 -3.54807,13.7865 4.16525,13.65864 5.60392,-0.37262 15.66641,2.66751 16.2072,-5.67309 1.56387,-6.82874 -1.95113,-14.22875 -8.59656,-16.79348 -8.63202,-3.57507 -20.09708,-4.09885 -26.90286,3.35225 -3.19989,6.3877 -4.60589,13.73225 -5.23007,20.84414 -0.75047,6.21394 0.75614,13.05461 6.21534,16.77614 5.70743,5.4024 14.10575,5.75101 21.50855,5.39197 5.57351,-3.86244 3.29839,-13.04351 4.21715,-19.23635 0.11557,-10.92227 -1.00514,-22.59719 4.48756,-32.50009 6.0642,-7.54922 17.91946,-5.71372 24.93374,-0.48253 6.63653,5.32827 14.40975,11.02462 16.66607,19.6307 -1.7932,8.01461 -12.35163,3.04723 -17.9873,6.10769 -6.52651,0.87475 -12.79225,2.74549 -19.08953,4.53247 -7.99089,1.36911 -15.06569,6.29063 -23.28172,7.62973 -5.62508,2.68915 -11.64599,4.81413 -16.80067,8.3365 -4.72857,2.65171 -6.29404,12.81024 -1.17333,12.4148 -9.4355,1.80924 -4.20078,-10.8407 0.56821,-13.54523 7.42048,-6.55191 16.8844,-9.88067 26.44392,-11.81664 6.90288,-3.89628 14.45987,-4.89319 21.88759,-7.30965 5.94564,-1.11408 11.86028,-2.45294 17.80663,-3.53184 3.91955,-0.38452 8.03611,0.5262 11.80983,-0.61911 -2.5416,-4.09708 -6.44722,-8.48529 -9.4781,-12.73722 -6.41542,-7.02425 -16.11723,-14.38712 -26.1588,-10.88306 -7.54301,3.14052 -8.74215,12.88913 -8.6537,20.13294 -0.22798,9.16252 0.57202,18.40073 -0.5573,27.50695 -1.09444,7.68529 -10.26296,9.88029 -16.69095,7.93615 -7.108,-1.20286 -13.9094,-5.39196 -16.39367,-12.43793 -3.94826,-10.86565 -1.52743,-23.19135 3.27112,-33.39765 4.18889,-6.33098 12.90259,-6.74669 19.79375,-6.56394 7.01402,-0.80658 13.70089,3.42103 16.3477,9.89371 2.8298,5.12142 5.20185,13.85092 -1.27665,17.26383 -6.55672,3.32405 -15.59189,2.09361 -20.7619,-3.1706 -4.51676,-5.22785 0.19579,-13.10439 5.57135,-15.39335 4.95666,-2.49507 10.01653,1.77431 13.85311,2.18867 1.86308,-8.49994 13.39918,-3.68204 13.69618,3.23954 2.1387,6.70083 -7.14432,15.38589 -12.33314,9.47764 -0.5259,-6.89898 3.36189,-13.2003 8.09994,-17.87819 3.39649,-4.88738 7.92994,-11.80016 4.22443,-17.64834 -4.0086,-6.07772 -12.38935,-7.88535 -19.13687,-6.48128 -4.32366,3.62765 -2.28797,10.7641 -0.59777,15.43627 2.68222,6.97714 9.13101,11.69953 11.53314,18.74485 2.6672,8.31729 0.51712,20.03535 -8.61676,23.25778 -5.82037,0.24792 -12.58779,-0.53317 -17.59454,-3.60219 -5.12434,-4.98313 -5.3738,-14.11885 0.55218,-18.60743 4.40399,-4.66323 13.14968,-5.87235 17.00284,0.11413 3.76876,5.4795 2.83493,12.6595 5.75136,18.38773 1.56837,-5.67865 0.96127,-15.32089 7.55275,-17.4895 7.25531,-0.49711 9.80487,8.41125 8.43205,14.15772 -1.71776,8.74275 -5.17093,-6.85488 -2.2683,-9.94805 1.27622,-6.1868 10.06713,-10.20745 14.62027,-5.00337 4.32972,5.96473 0.43651,13.84282 -3.28443,19.12971 -2.55911,4.80151 -7.66315,8.94616 -13.40098,7.12854 -6.80948,-1.6738 -6.07543,-10.46905 -3.78531,-15.47568 1.42882,-6.08339 8.58645,-11.92916 12.71921,-4.45737 2.70246,6.2133 4.33629,12.90413 3.69679,19.73467 1.30836,4.29429 4.77192,-5.199 5.9331,-7.33258 1.75216,-10.72915 11.92818,-2.5596 13.3989,3.77788 2.56471,3.01737 2.68687,18.20511 7.48846,9.60125 5.44957,-6.86732 7.24109,-15.53505 8.96542,-23.90187 3.27428,-6.32393 4.65779,9.21303 4.20866,12.26889 0.30635,6.19934 -0.49296,12.55252 0.38686,18.6719 2.53259,-4.60331 7.58497,-7.56992 12.6176,-9.44877 2.33367,0.45443 4.66733,0.90887 7.001,1.3633 z"
         id="path3000"
         inkscape:connector-curvature="0" />
      <path
         style="fill:#2a0100;fill-opacity:0.63492066;stroke:none"
         d="m 581,316 c -0.18906,10.74454 0.34584,21.51623 -0.28671,32.24268 -1.16684,7.46395 -0.62286,15.07713 -1.64748,22.57277 0.15507,9.67742 -0.59977,19.43311 0.48229,29.06437 1.78608,7.66932 4.29678,15.21898 7.53842,22.38303 -6.86576,-7.17971 -4.76498,-17.58119 -5.08652,-26.59266 0.13475,-11.57349 -0.29359,-23.16852 0.2632,-34.72609 1.63982,-11.97355 6.75938,-23.80951 15.27679,-32.47253 6.43322,-5.54053 12.12587,-12.33668 20.40617,-15.21584 9.12794,-4.75942 19.26473,-8.08481 29.67774,-7.25565 10.03263,-0.1331 20.47084,1.25571 28.83809,7.2434 6.21343,3.23654 12.80338,5.6172 18.45931,9.87142 5.19394,3.13543 9.19732,7.82644 14.26747,11.15115 5.04804,4.66968 7.8944,11.19395 10.39135,17.45727 1.2768,9.59919 0.66633,20.44948 -6.31062,27.90758 -11.89651,13.90456 -29.87123,19.74238 -45.7818,27.64509 -9.00548,3.5021 -17.53615,8.72017 -27.29805,9.82659 -6.83283,1.1912 -12.88498,5.52329 -20.03527,4.96592 -5.60436,1.07129 -10.89833,3.79392 -16.80636,2.92582 -8.04086,-0.18119 -16.13762,0.4188 -24.13754,-0.37574 -6.09538,-1.18433 -12.26857,-6.9007 -10.15918,-13.61858 1.48137,-10.63167 13.61114,-16.27331 23.37622,-14.15761 10.8761,0.20258 21.82174,0.56984 32.64279,-0.77208 6.34117,-0.0692 16.16391,0.27253 16.48882,-8.36553 2.35636,-3.14333 2.01976,-10.52552 3.0043,-11.89986 2.35598,6.61187 -1.13917,13.63228 -4.442,19.11338 -6.86848,4.29952 -15.37997,2.46811 -23.00928,3.9182 -10.10741,0.20526 -20.26525,0.45274 -30.33559,-0.44431 -9.08878,0.30668 -18.99727,8.83753 -15.94138,18.57471 3.87944,5.33587 11.78948,5.86915 17.96979,6.0331 7.37704,-0.18498 14.80935,0.40226 22.14578,-0.3649 5.52655,-2.74953 11.73462,-2.11151 17.51253,-3.75197 7.92711,-4.16753 17.28711,-3.60932 25.17437,-7.81118 13.99424,-6.03748 28.01194,-12.11301 41.38155,-19.44795 10.0715,-5.77123 21.01564,-14.0173 22.72336,-26.32596 1.34653,-8.20167 -0.2095,-16.31222 -4.85422,-23.2099 -3.12034,-6.65092 -10.21923,-9.44745 -14.99915,-14.59393 -13.5418,-9.03255 -28.18877,-17.78846 -44.74398,-19.40827 -9.70268,-0.11795 -20.03325,-1.05544 -28.86006,3.87059 -7.48973,2.40766 -12.89214,8.30258 -19.35782,12.4703 -8.78277,6.71659 -15.4044,16.16201 -18.76246,26.69178 -3.75732,8.48855 -1.67174,18.01291 -2.16487,27.00375 0.13472,11.19354 -0.28555,22.41222 0.2436,33.58811 0.58918,3.45753 5.58859,15.09868 -0.29073,7.40735 -3.42202,-6.50909 -5.35528,-13.83949 -6.6819,-21.05619 -0.51837,-13.11926 -0.45514,-26.30055 0.70201,-39.38753 -0.0946,-7.66197 1.61722,-15.19628 1.02702,-22.88155 0.16895,-4.83842 -0.33764,-9.78647 0.25455,-14.55621 C 579.83637,319.49089 580.41818,317.74545 581,316 z"
         id="path3002"
         inkscape:connector-curvature="0" />
      <path
         style="fill:#2a0100;fill-opacity:0.63492066;stroke:none"
         d="m 715,316 c 0.18906,10.74454 -0.34584,21.51623 0.28671,32.24268 1.16684,7.46395 0.62286,15.07713 1.64748,22.57277 -0.15507,9.67742 0.59977,19.43311 -0.48229,29.06437 -1.78608,7.66932 -4.29678,15.21898 -7.53842,22.38303 6.86576,-7.17971 4.76498,-17.58119 5.08652,-26.59266 -0.13475,-11.57349 0.29359,-23.16852 -0.2632,-34.72609 -1.63982,-11.97355 -6.75938,-23.80951 -15.27679,-32.47253 -6.43322,-5.54053 -12.12587,-12.33668 -20.40617,-15.21584 -9.12794,-4.75942 -19.26473,-8.08481 -29.67774,-7.25565 -10.03263,-0.1331 -20.47084,1.25571 -28.83809,7.2434 -6.21343,3.23654 -12.80338,5.6172 -18.45931,9.87142 -5.19394,3.13543 -9.19732,7.82644 -14.26747,11.15115 -5.04804,4.66968 -7.8944,11.19395 -10.39135,17.45727 -1.2768,9.59919 -0.66633,20.44948 6.31062,27.90758 11.89651,13.90456 29.87123,19.74238 45.7818,27.64509 9.00548,3.5021 17.53615,8.72017 27.29805,9.82659 6.83283,1.1912 12.88498,5.52329 20.03527,4.96592 5.60436,1.07129 10.89833,3.79392 16.80636,2.92582 8.04086,-0.18119 16.13762,0.4188 24.13755,-0.37574 6.09537,-1.18433 12.26856,-6.9007 10.15917,-13.61858 -1.48137,-10.63167 -13.61114,-16.27331 -23.37622,-14.15761 -10.8761,0.20258 -21.82174,0.56984 -32.64279,-0.77208 -6.34117,-0.0692 -16.16391,0.27253 -16.48882,-8.36553 -2.35636,-3.14333 -2.01976,-10.52552 -3.0043,-11.89986 -2.35598,6.61187 1.13917,13.63228 4.442,19.11338 6.86848,4.29952 15.37997,2.46811 23.00928,3.9182 10.10741,0.20526 20.26525,0.45274 30.33559,-0.44431 9.08878,0.30668 18.99727,8.83753 15.94138,18.57471 -3.87944,5.33587 -11.78948,5.86915 -17.96979,6.0331 -7.37704,-0.18498 -14.80935,0.40226 -22.14578,-0.3649 -5.52655,-2.74953 -11.73462,-2.11151 -17.51253,-3.75197 -7.92711,-4.16753 -17.28711,-3.60932 -25.17437,-7.81118 -13.99424,-6.03748 -28.01194,-12.11301 -41.38155,-19.44795 -10.0715,-5.77123 -21.01564,-14.0173 -22.72336,-26.32596 -1.34653,-8.20167 0.2095,-16.31222 4.85422,-23.2099 3.12034,-6.65092 10.21923,-9.44745 14.99915,-14.59393 13.5418,-9.03255 28.18877,-17.78846 44.74398,-19.40827 9.70268,-0.11795 20.03325,-1.05544 28.86006,3.87059 7.48973,2.40766 12.89214,8.30258 19.35782,12.4703 8.78277,6.71659 15.4044,16.16201 18.76246,26.69178 3.75732,8.48855 1.67174,18.01291 2.16487,27.00375 -0.13472,11.19354 0.28555,22.41222 -0.2436,33.58811 -0.58918,3.45753 -5.58859,15.09868 0.29073,7.40735 3.42202,-6.50909 5.35528,-13.83949 6.6819,-21.05619 0.51837,-13.11926 0.45514,-26.30055 -0.70201,-39.38753 0.0946,-7.66197 -1.61722,-15.19628 -1.02702,-22.88155 -0.16895,-4.83842 0.33764,-9.78647 -0.25455,-14.55621 C 716.16363,319.49089 715.58182,317.74545 715,316 z"
         id="path3004"
         inkscape:connector-curvature="0" />
      <path
         style="fill:#2a0100;fill-opacity:0.63492066;stroke:none"
         d="m 581,420 c -0.18906,-10.74454 0.34584,-21.51623 -0.28671,-32.24268 -1.16684,-7.46395 -0.62286,-15.07713 -1.64748,-22.57277 0.15507,-9.67742 -0.59977,-19.43311 0.48229,-29.06437 1.78608,-7.66932 4.29678,-15.21898 7.53842,-22.38303 -6.86576,7.17971 -4.76498,17.58119 -5.08652,26.59266 0.13475,11.57349 -0.29359,23.16852 0.2632,34.72609 1.63982,11.97355 6.75938,23.80951 15.27679,32.47253 6.43322,5.54053 12.12587,12.33668 20.40617,15.21584 9.12794,4.75942 19.26473,8.08481 29.67774,7.25565 10.03263,0.1331 20.47084,-1.25571 28.83809,-7.2434 6.21343,-3.23654 12.80338,-5.6172 18.45931,-9.87142 5.19394,-3.13543 9.19732,-7.82644 14.26747,-11.15115 5.04804,-4.66968 7.8944,-11.19395 10.39135,-17.45727 1.2768,-9.59919 0.66633,-20.44948 -6.31062,-27.90758 -11.89651,-13.90456 -29.87123,-19.74238 -45.7818,-27.64509 -9.00548,-3.5021 -17.53615,-8.72017 -27.29805,-9.82658 -6.83283,-1.19121 -12.88498,-5.5233 -20.03527,-4.96593 -5.60436,-1.07129 -10.89833,-3.79392 -16.80636,-2.92582 -8.04086,0.18119 -16.13762,-0.4188 -24.13754,0.37575 -6.09538,1.18432 -12.26857,6.90069 -10.15918,13.61857 1.48137,10.63167 13.61114,16.27331 23.37622,14.15761 10.8761,-0.20258 21.82174,-0.56984 32.64279,0.77208 6.34117,0.0692 16.16391,-0.27253 16.48882,8.36553 2.35636,3.14333 2.01976,10.52552 3.0043,11.89986 2.35598,-6.61187 -1.13917,-13.63228 -4.442,-19.11338 -6.86848,-4.29952 -15.37997,-2.46811 -23.00928,-3.9182 -10.10741,-0.20526 -20.26525,-0.45274 -30.33559,0.44431 -9.08878,-0.30668 -18.99727,-8.83753 -15.94138,-18.57471 3.87944,-5.33587 11.78948,-5.86915 17.96979,-6.0331 7.37704,0.18498 14.80935,-0.40226 22.14578,0.3649 5.52655,2.74953 11.73462,2.11151 17.51253,3.75198 7.92711,4.16752 17.28711,3.60931 25.17437,7.81117 13.99424,6.03748 28.01194,12.11301 41.38155,19.44795 10.0715,5.77123 21.01564,14.0173 22.72336,26.32596 1.34653,8.20167 -0.2095,16.31222 -4.85422,23.2099 -3.12034,6.65092 -10.21923,9.44745 -14.99915,14.59393 -13.5418,9.03255 -28.18877,17.78846 -44.74398,19.40827 -9.70268,0.11795 -20.03325,1.05544 -28.86006,-3.87058 -7.48973,-2.40767 -12.89214,-8.30259 -19.35782,-12.47031 -8.78277,-6.71659 -15.4044,-16.16201 -18.76246,-26.69178 -3.75732,-8.48855 -1.67174,-18.01291 -2.16487,-27.00375 0.13472,-11.19354 -0.28555,-22.41222 0.2436,-33.58811 0.58918,-3.45753 5.58859,-15.09868 -0.29073,-7.40735 -3.42202,6.50909 -5.35528,13.83949 -6.6819,21.05619 -0.51837,13.11926 -0.45514,26.30055 0.70201,39.38753 -0.0946,7.66197 1.61722,15.19628 1.02702,22.88155 0.16895,4.83842 -0.33764,9.78647 0.25455,14.55621 0.58182,1.74545 1.16363,3.49089 1.74545,5.23634 z"
         id="path3006"
         inkscape:connector-curvature="0" />
      <path
         style="fill:#2a0100;fill-opacity:0.63492066;stroke:none"
         d="m 715,420 c 0.18906,-10.74454 -0.34584,-21.51623 0.28671,-32.24268 1.16684,-7.46395 0.62286,-15.07713 1.64748,-22.57277 -0.15507,-9.67742 0.59977,-19.43311 -0.48229,-29.06437 -1.78608,-7.66932 -4.29678,-15.21898 -7.53842,-22.38303 6.86576,7.17971 4.76498,17.58119 5.08652,26.59266 -0.13475,11.57349 0.29359,23.16852 -0.2632,34.72609 -1.63982,11.97355 -6.75938,23.80951 -15.27679,32.47253 -6.43322,5.54053 -12.12587,12.33668 -20.40617,15.21584 -9.12794,4.75942 -19.26473,8.08481 -29.67774,7.25565 -10.03263,0.1331 -20.47084,-1.25571 -28.83809,-7.2434 -6.21343,-3.23654 -12.80338,-5.6172 -18.45931,-9.87142 -5.19394,-3.13543 -9.19732,-7.82644 -14.26747,-11.15115 -5.04804,-4.66968 -7.8944,-11.19395 -10.39135,-17.45727 -1.2768,-9.59919 -0.66633,-20.44948 6.31062,-27.90758 11.89651,-13.90456 29.87123,-19.74238 45.7818,-27.64509 9.00548,-3.5021 17.53615,-8.72017 27.29805,-9.82658 6.83283,-1.19121 12.88498,-5.5233 20.03527,-4.96593 5.60436,-1.07129 10.89833,-3.79392 16.80636,-2.92582 8.04086,0.18119 16.13762,-0.4188 24.13755,0.37575 6.09537,1.18432 12.26856,6.90069 10.15917,13.61857 -1.48137,10.63167 -13.61114,16.27331 -23.37622,14.15761 -10.8761,-0.20258 -21.82174,-0.56984 -32.64279,0.77208 -6.34117,0.0692 -16.16391,-0.27253 -16.48882,8.36553 -2.35636,3.14333 -2.01976,10.52552 -3.0043,11.89986 -2.35598,-6.61187 1.13917,-13.63228 4.442,-19.11338 6.86848,-4.29952 15.37997,-2.46811 23.00928,-3.9182 10.10741,-0.20526 20.26525,-0.45274 30.33559,0.44431 9.08878,-0.30668 18.99727,-8.83753 15.94138,-18.57471 -3.87944,-5.33587 -11.78948,-5.86915 -17.96979,-6.0331 -7.37704,0.18498 -14.80935,-0.40226 -22.14578,0.3649 -5.52655,2.74953 -11.73462,2.11151 -17.51253,3.75198 -7.92711,4.16752 -17.28711,3.60931 -25.17437,7.81117 -13.99424,6.03748 -28.01194,12.11301 -41.38155,19.44795 -10.0715,5.77123 -21.01564,14.0173 -22.72336,26.32596 -1.34653,8.20167 0.2095,16.31222 4.85422,23.2099 3.12034,6.65092 10.21923,9.44745 14.99915,14.59393 13.5418,9.03255 28.18877,17.78846 44.74398,19.40827 9.70268,0.11795 20.03325,1.05544 28.86006,-3.87058 7.48973,-2.40767 12.89214,-8.30259 19.35782,-12.47031 8.78277,-6.71659 15.4044,-16.16201 18.76246,-26.69178 3.75732,-8.48855 1.67174,-18.01291 2.16487,-27.00375 -0.13472,-11.19354 0.28555,-22.41222 -0.2436,-33.58811 -0.58918,-3.45753 -5.58859,-15.09868 0.29073,-7.40735 3.42202,6.50909 5.35528,13.83949 6.6819,21.05619 0.51837,13.11926 0.45514,26.30055 -0.70201,39.38753 0.0946,7.66197 -1.61722,15.19628 -1.02702,22.88155 -0.16895,4.83842 0.33764,9.78647 -0.25455,14.55621 C 716.16363,416.50911 715.58182,418.25455 715,420 z"
         id="path3008"
         inkscape:connector-curvature="0" />
    </g>
  </g>
</svg>
